<?xml version="1.0" encoding="utf-8"?>
<!-- Generator: Adobe Illustrator 25.4.1, SVG Export Plug-In . SVG Version: 6.00 Build 0)  -->
<svg version="1.1" id="Слой_1" xmlns="http://www.w3.org/2000/svg" xmlns:xlink="http://www.w3.org/1999/xlink" x="0px" y="0px"
	 viewBox="0 0 973 509" style="enable-background:new 0 0 973 509;" xml:space="preserve">
<style type="text/css">
	.st0{display:none;}
	.st1{display:inline;fill:none;stroke:#000000;stroke-width:8;stroke-miterlimit:10;}
	.st2{fill:none;stroke:#000000;stroke-width:8;stroke-miterlimit:10;}
	.st3{display:inline;}
	.st4{fill:#E3E6EA;}
	.st5{fill:#185090;}
	.st6{fill:#E4E7EB;}
	.st7{fill:#C8D4E0;}
	.st8{fill:#02365A;}
</style>
<g class="st0">
	<line class="st1" x1="1849" y1="2" x2="2147" y2="173"/>
	<line class="st1" x1="2147" y1="345" x2="1849" y2="2"/>
	<line class="st1" x1="1849" y1="174" x2="2147" y2="173"/>
	<line class="st1" x1="1849" y1="346" x2="2147" y2="345"/>
	<line class="st1" x1="1849" y1="518" x2="2147" y2="345"/>
	<line class="st1" x1="2147" y1="173" x2="1849" y2="346"/>
	<line class="st1" x1="1849" y1="519" x2="2147" y2="173"/>
	<line class="st1" x1="2147" y1="345" x2="1849" y2="173"/>
</g>
<g>
	<line class="st2" x1="75" y1="88" x2="349" y2="88"/>
	<line class="st2" x1="349" y1="260" x2="75" y2="88"/>
	<line class="st2" x1="349" y1="432" x2="75" y2="88"/>
	<line class="st2" x1="75" y1="260" x2="349" y2="88"/>
	<line class="st2" x1="349" y1="260" x2="75" y2="260"/>
	<line class="st2" x1="349" y1="432" x2="75" y2="260"/>
	<line class="st2" x1="75" y1="432" x2="349" y2="88"/>
	<line class="st2" x1="349" y1="260" x2="75" y2="432"/>
	<line class="st2" x1="349" y1="432" x2="75" y2="432"/>
</g>
<g>
	<line class="st2" x1="349" y1="88" x2="623" y2="88"/>
	<line class="st2" x1="623" y1="260" x2="349" y2="88"/>
	<line class="st2" x1="623" y1="432" x2="349" y2="88"/>
	<line class="st2" x1="349" y1="260" x2="623" y2="88"/>
	<line class="st2" x1="623" y1="260" x2="349" y2="260"/>
	<line class="st2" x1="623" y1="432" x2="349" y2="260"/>
	<line class="st2" x1="349" y1="432" x2="623" y2="88"/>
	<line class="st2" x1="623" y1="260" x2="349" y2="432"/>
	<line class="st2" x1="623" y1="432" x2="349" y2="432"/>
</g>
<g>
	<line class="st2" x1="623" y1="88" x2="897" y2="88"/>
	<line class="st2" x1="897" y1="260" x2="623" y2="88"/>
	<line class="st2" x1="897" y1="432" x2="623" y2="88"/>
	<line class="st2" x1="623" y1="260" x2="897" y2="88"/>
	<line class="st2" x1="897" y1="260" x2="623" y2="260"/>
	<line class="st2" x1="897" y1="432" x2="623" y2="260"/>
	<line class="st2" x1="623" y1="432" x2="897" y2="88"/>
	<line class="st2" x1="897" y1="260" x2="623" y2="432"/>
	<line class="st2" x1="897" y1="432" x2="623" y2="432"/>
</g>
<g class="st0">
	<line class="st1" x1="897" y1="88" x2="1171" y2="88"/>
	<line class="st1" x1="1171" y1="260" x2="897" y2="88"/>
	<line class="st1" x1="1171" y1="432" x2="897" y2="88"/>
	<line class="st1" x1="897" y1="260" x2="1171" y2="88"/>
	<line class="st1" x1="1171" y1="260" x2="897" y2="260"/>
	<line class="st1" x1="1171" y1="432" x2="897" y2="260"/>
	<line class="st1" x1="897" y1="432" x2="1171" y2="88"/>
	<line class="st1" x1="1171" y1="260" x2="897" y2="432"/>
	<line class="st1" x1="1171" y1="432" x2="897" y2="432"/>
</g>
<g class="st0">
	<line class="st1" x1="1171" y1="88" x2="1445" y2="88"/>
	<line class="st1" x1="1445" y1="260" x2="1171" y2="88"/>
	<line class="st1" x1="1445" y1="432" x2="1171" y2="88"/>
	<line class="st1" x1="1171" y1="260" x2="1445" y2="88"/>
	<line class="st1" x1="1445" y1="260" x2="1171" y2="260"/>
	<line class="st1" x1="1445" y1="432" x2="1171" y2="260"/>
	<line class="st1" x1="1171" y1="432" x2="1445" y2="88"/>
	<line class="st1" x1="1445" y1="260" x2="1171" y2="432"/>
	<line class="st1" x1="1445" y1="432" x2="1171" y2="432"/>
</g>
<g class="st0">
	<line class="st1" x1="1445" y1="88" x2="1719" y2="88"/>
	<line class="st1" x1="1719" y1="260" x2="1445" y2="88"/>
	<line class="st1" x1="1719" y1="432" x2="1445" y2="88"/>
	<line class="st1" x1="1445" y1="260" x2="1719" y2="88"/>
	<line class="st1" x1="1719" y1="260" x2="1445" y2="260"/>
	<line class="st1" x1="1719" y1="432" x2="1445" y2="260"/>
	<line class="st1" x1="1445" y1="432" x2="1719" y2="88"/>
	<line class="st1" x1="1719" y1="260" x2="1445" y2="432"/>
	<line class="st1" x1="1719" y1="432" x2="1445" y2="432"/>
</g>
<g class="st0">
	<line class="st1" x1="898" y1="88" x2="1172" y2="88"/>
	<line class="st1" x1="1172" y1="260" x2="898" y2="88"/>
	<line class="st1" x1="1172" y1="432" x2="898" y2="88"/>
	<line class="st1" x1="898" y1="260" x2="1172" y2="88"/>
	<line class="st1" x1="1172" y1="260" x2="898" y2="260"/>
	<line class="st1" x1="1172" y1="432" x2="898" y2="260"/>
	<line class="st1" x1="898" y1="432" x2="1172" y2="88"/>
	<line class="st1" x1="1172" y1="260" x2="898" y2="432"/>
	<line class="st1" x1="1172" y1="432" x2="898" y2="432"/>
</g>
<g class="st0">
	<g class="st3">
		<circle class="st4" cx="1172" cy="90.5" r="67.6"/>
		<path class="st5" d="M1172,30.4c33.1,0,60.1,27,60.1,60.1s-27,60.1-60.1,60.1s-60.1-27-60.1-60.1S1138.9,30.4,1172,30.4
			 M1172,15.4c-41.5,0-75.1,33.6-75.1,75.1s33.6,75.1,75.1,75.1s75.1-33.6,75.1-75.1S1213.5,15.4,1172,15.4L1172,15.4z"/>
	</g>
	<g class="st3">
		<circle class="st4" cx="1172" cy="262.4" r="67.6"/>
		<path class="st5" d="M1172,202.3c33.1,0,60.1,27,60.1,60.1s-27,60.1-60.1,60.1s-60.1-27-60.1-60.1S1138.9,202.3,1172,202.3
			 M1172,187.3c-41.5,0-75.1,33.6-75.1,75.1c0,41.5,33.6,75.1,75.1,75.1s75.1-33.6,75.1-75.1C1247.1,220.9,1213.5,187.3,1172,187.3
			L1172,187.3z"/>
	</g>
	<g class="st3">
		<circle class="st4" cx="1172.3" cy="433.4" r="67.6"/>
		<path class="st5" d="M1172.3,373.4c33.1,0,60.1,27,60.1,60.1s-27,60.1-60.1,60.1s-60.1-27-60.1-60.1S1139.2,373.4,1172.3,373.4
			 M1172.3,358.4c-41.5,0-75.1,33.6-75.1,75.1s33.6,75.1,75.1,75.1s75.1-33.6,75.1-75.1S1213.8,358.4,1172.3,358.4L1172.3,358.4z"/>
	</g>
</g>
<g>
	<g>
		
			<ellipse transform="matrix(0.7071 -0.7071 0.7071 0.7071 -40.2907 78.8856)" class="st6" cx="75.1" cy="88.1" rx="67.6" ry="67.6"/>
		<path class="st7" d="M75.1,28c33.1,0,60.1,27,60.1,60.1s-27,60.1-60.1,60.1S15,121.2,15,88.1S42,28,75.1,28 M75.1,13
			C33.6,13,0,46.6,0,88.1s33.6,75.1,75.1,75.1s75.1-33.6,75.1-75.1S116.5,13,75.1,13L75.1,13z"/>
	</g>
	<g>
		
			<ellipse transform="matrix(0.2298 -0.9732 0.9732 0.2298 -195.1402 273.274)" class="st6" cx="75.1" cy="259.9" rx="67.6" ry="67.6"/>
		<path class="st7" d="M75.1,199.8c33.1,0,60.1,27,60.1,60.1s-27,60.1-60.1,60.1S15,293,15,259.9S42,199.8,75.1,199.8 M75.1,184.8
			C33.6,184.8,0,218.5,0,259.9S33.6,335,75.1,335s75.1-33.6,75.1-75.1S116.5,184.8,75.1,184.8L75.1,184.8z"/>
	</g>
	<g>
		
			<ellipse transform="matrix(0.9239 -0.3827 0.3827 0.9239 -159.6041 61.615)" class="st6" cx="75.1" cy="432" rx="67.6" ry="67.6"/>
		<path class="st7" d="M75.1,371.9c33.1,0,60.1,27,60.1,60.1s-27,60.1-60.1,60.1S15,465.1,15,432S42,371.9,75.1,371.9 M75.1,356.9
			C33.6,356.9,0,390.5,0,432s33.6,75.1,75.1,75.1s75.1-33.6,75.1-75.1S116.5,356.9,75.1,356.9L75.1,356.9z"/>
	</g>
</g>
<g>
	<ellipse class="st2" cx="348.5" cy="225.5" rx="47.5" ry="51.5"/>
	<ellipse class="st2" cx="349.5" cy="397.5" rx="47.5" ry="51.5"/>
	<ellipse class="st2" cx="348.5" cy="53.5" rx="47.5" ry="51.5"/>
	<g>
		<ellipse transform="matrix(0.2298 -0.9732 0.9732 0.2298 183.1496 407.4155)" class="st4" cx="349" cy="88" rx="67.6" ry="67.6"/>
		<path class="st8" d="M349,27.9c33.1,0,60.1,27,60.1,60.1s-27,60.1-60.1,60.1s-60.1-27-60.1-60.1S315.8,27.9,349,27.9 M349,12.9
			c-41.5,0-75.1,33.6-75.1,75.1s33.6,75.1,75.1,75.1c41.5,0,75.1-33.6,75.1-75.1S390.4,12.9,349,12.9L349,12.9z"/>
	</g>
	<g>
		
			<ellipse transform="matrix(0.7071 -0.7071 0.7071 0.7071 -81.58 322.8885)" class="st4" cx="349" cy="259.9" rx="67.6" ry="67.6"/>
		<path class="st8" d="M349,199.8c33.1,0,60.1,27,60.1,60.1S382.1,320,349,320s-60.1-27-60.1-60.1S315.8,199.8,349,199.8 M349,184.8
			c-41.5,0-75.1,33.6-75.1,75.1c0,41.5,33.6,75.1,75.1,75.1c41.5,0,75.1-33.6,75.1-75.1C424,218.5,390.4,184.8,349,184.8L349,184.8z
			"/>
	</g>
	<g>
		
			<ellipse transform="matrix(0.9871 -0.1602 0.1602 0.9871 -64.6667 61.4744)" class="st4" cx="349" cy="431.8" rx="67.6" ry="67.6"/>
		<path class="st8" d="M349,371.8c33.1,0,60.1,27,60.1,60.1s-27,60.1-60.1,60.1s-60.1-27-60.1-60.1S315.8,371.8,349,371.8
			 M349,356.8c-41.5,0-75.1,33.6-75.1,75.1s33.6,75.1,75.1,75.1c41.5,0,75.1-33.6,75.1-75.1S390.4,356.8,349,356.8L349,356.8z"/>
	</g>
</g>
<g>
	<ellipse class="st2" cx="622.9" cy="227.2" rx="47.5" ry="51.5"/>
	<ellipse class="st2" cx="623.9" cy="399.2" rx="47.5" ry="51.5"/>
	<ellipse class="st2" cx="622.9" cy="55.2" rx="47.5" ry="51.5"/>
	<g>
		<circle class="st4" cx="623.4" cy="89.7" r="67.6"/>
		<path class="st8" d="M623.4,29.7c33.1,0,60.1,27,60.1,60.1s-27,60.1-60.1,60.1s-60.1-27-60.1-60.1S590.3,29.7,623.4,29.7
			 M623.4,14.7c-41.5,0-75.1,33.6-75.1,75.1c0,41.5,33.6,75.1,75.1,75.1s75.1-33.6,75.1-75.1C698.5,48.3,664.9,14.7,623.4,14.7
			L623.4,14.7z"/>
	</g>
	<g>
		<circle class="st4" cx="623.4" cy="261.7" r="67.6"/>
		<path class="st8" d="M623.4,201.6c33.1,0,60.1,27,60.1,60.1s-27,60.1-60.1,60.1s-60.1-27-60.1-60.1S590.3,201.6,623.4,201.6
			 M623.4,186.6c-41.5,0-75.1,33.6-75.1,75.1c0,41.5,33.6,75.1,75.1,75.1s75.1-33.6,75.1-75.1C698.5,220.2,664.9,186.6,623.4,186.6
			L623.4,186.6z"/>
	</g>
	<g>
		<circle class="st4" cx="623.4" cy="433.6" r="67.6"/>
		<path class="st8" d="M623.4,373.5c33.1,0,60.1,27,60.1,60.1s-27,60.1-60.1,60.1s-60.1-27-60.1-60.1S590.3,373.5,623.4,373.5
			 M623.4,358.5c-41.5,0-75.1,33.6-75.1,75.1s33.6,75.1,75.1,75.1s75.1-33.6,75.1-75.1S664.9,358.5,623.4,358.5L623.4,358.5z"/>
	</g>
</g>
<g>
	<ellipse class="st2" cx="897" cy="227.6" rx="47.5" ry="51.5"/>
	<ellipse class="st2" cx="898" cy="399.6" rx="47.5" ry="51.5"/>
	<ellipse class="st2" cx="897" cy="55.6" rx="47.5" ry="51.5"/>
	<g>
		<path class="st4" d="M897.5,157.6c-37.3,0-67.6-30.3-67.6-67.6c0-37.3,30.3-67.6,67.6-67.6c37.3,0,67.6,30.3,67.6,67.6
			C965.1,127.3,934.7,157.6,897.5,157.6z"/>
		<path class="st8" d="M897.5,30c33.1,0,60.1,27,60.1,60.1s-27,60.1-60.1,60.1s-60.1-27-60.1-60.1S864.4,30,897.5,30 M897.5,15
			c-41.5,0-75.1,33.6-75.1,75.1s33.6,75.1,75.1,75.1c41.5,0,75.1-33.6,75.1-75.1S938.9,15,897.5,15L897.5,15z"/>
	</g>
	<g>
		<path class="st4" d="M897.5,329.6c-37.3,0-67.6-30.3-67.6-67.6s30.3-67.6,67.6-67.6c37.3,0,67.6,30.3,67.6,67.6
			S934.7,329.6,897.5,329.6z"/>
		<path class="st8" d="M897.5,201.9c33.1,0,60.1,27,60.1,60.1s-27,60.1-60.1,60.1s-60.1-27-60.1-60.1S864.4,201.9,897.5,201.9
			 M897.5,186.9c-41.5,0-75.1,33.6-75.1,75.1c0,41.5,33.6,75.1,75.1,75.1c41.5,0,75.1-33.6,75.1-75.1
			C972.6,220.5,938.9,186.9,897.5,186.9L897.5,186.9z"/>
	</g>
	<g>
		<path class="st4" d="M897.5,501.5c-37.3,0-67.6-30.3-67.6-67.6s30.3-67.6,67.6-67.6c37.3,0,67.6,30.3,67.6,67.6
			S934.7,501.5,897.5,501.5z"/>
		<path class="st8" d="M897.5,373.8c33.1,0,60.1,27,60.1,60.1c0,33.1-27,60.1-60.1,60.1s-60.1-27-60.1-60.1
			C837.4,400.8,864.4,373.8,897.5,373.8 M897.5,358.8c-41.5,0-75.1,33.6-75.1,75.1c0,41.5,33.6,75.1,75.1,75.1
			c41.5,0,75.1-33.6,75.1-75.1C972.6,392.5,938.9,358.8,897.5,358.8L897.5,358.8z"/>
	</g>
</g>
<g class="st0">
	<ellipse class="st1" cx="1171" cy="227.6" rx="47.5" ry="51.5"/>
	<ellipse class="st1" cx="1172" cy="399.6" rx="47.5" ry="51.5"/>
	<ellipse class="st1" cx="1171" cy="55.6" rx="47.5" ry="51.5"/>
	<g class="st3">
		<path class="st4" d="M1171.5,157.6c-37.3,0-67.6-30.3-67.6-67.6c0-37.3,30.3-67.6,67.6-67.6c37.3,0,67.6,30.3,67.6,67.6
			C1239.1,127.3,1208.7,157.6,1171.5,157.6z"/>
		<path class="st8" d="M1171.5,30c33.1,0,60.1,27,60.1,60.1s-27,60.1-60.1,60.1s-60.1-27-60.1-60.1S1138.4,30,1171.5,30 M1171.5,15
			c-41.5,0-75.1,33.6-75.1,75.1s33.6,75.1,75.1,75.1s75.1-33.6,75.1-75.1S1212.9,15,1171.5,15L1171.5,15z"/>
	</g>
	<g class="st3">
		<path class="st4" d="M1171.5,329.6c-37.3,0-67.6-30.3-67.6-67.6s30.3-67.6,67.6-67.6c37.3,0,67.6,30.3,67.6,67.6
			S1208.7,329.6,1171.5,329.6z"/>
		<path class="st8" d="M1171.5,201.9c33.1,0,60.1,27,60.1,60.1s-27,60.1-60.1,60.1s-60.1-27-60.1-60.1S1138.4,201.9,1171.5,201.9
			 M1171.5,186.9c-41.5,0-75.1,33.6-75.1,75.1c0,41.5,33.6,75.1,75.1,75.1s75.1-33.6,75.1-75.1
			C1246.6,220.5,1212.9,186.9,1171.5,186.9L1171.5,186.9z"/>
	</g>
	<g class="st3">
		<path class="st4" d="M1171.5,501.5c-37.3,0-67.6-30.3-67.6-67.6s30.3-67.6,67.6-67.6c37.3,0,67.6,30.3,67.6,67.6
			S1208.7,501.5,1171.5,501.5z"/>
		<path class="st8" d="M1171.5,373.8c33.1,0,60.1,27,60.1,60.1c0,33.1-27,60.1-60.1,60.1s-60.1-27-60.1-60.1
			C1111.4,400.8,1138.4,373.8,1171.5,373.8 M1171.5,358.8c-41.5,0-75.1,33.6-75.1,75.1c0,41.5,33.6,75.1,75.1,75.1
			s75.1-33.6,75.1-75.1C1246.6,392.5,1212.9,358.8,1171.5,358.8L1171.5,358.8z"/>
	</g>
</g>
<g class="st0">
	<ellipse class="st1" cx="1445" cy="227.6" rx="47.5" ry="51.5"/>
	<ellipse class="st1" cx="1446" cy="399.6" rx="47.5" ry="51.5"/>
	<ellipse class="st1" cx="1445" cy="55.6" rx="47.5" ry="51.5"/>
	<g class="st3">
		<path class="st4" d="M1445.5,157.6c-37.3,0-67.6-30.3-67.6-67.6c0-37.3,30.3-67.6,67.6-67.6c37.3,0,67.6,30.3,67.6,67.6
			C1513.1,127.3,1482.7,157.6,1445.5,157.6z"/>
		<path class="st8" d="M1445.5,30c33.1,0,60.1,27,60.1,60.1s-27,60.1-60.1,60.1s-60.1-27-60.1-60.1S1412.4,30,1445.5,30 M1445.5,15
			c-41.5,0-75.1,33.6-75.1,75.1s33.6,75.1,75.1,75.1s75.1-33.6,75.1-75.1S1486.9,15,1445.5,15L1445.5,15z"/>
	</g>
	<g class="st3">
		<path class="st4" d="M1445.5,329.6c-37.3,0-67.6-30.3-67.6-67.6s30.3-67.6,67.6-67.6c37.3,0,67.6,30.3,67.6,67.6
			S1482.7,329.6,1445.5,329.6z"/>
		<path class="st8" d="M1445.5,201.9c33.1,0,60.1,27,60.1,60.1s-27,60.1-60.1,60.1s-60.1-27-60.1-60.1S1412.4,201.9,1445.5,201.9
			 M1445.5,186.9c-41.5,0-75.1,33.6-75.1,75.1c0,41.5,33.6,75.1,75.1,75.1s75.1-33.6,75.1-75.1
			C1520.6,220.5,1486.9,186.9,1445.5,186.9L1445.5,186.9z"/>
	</g>
	<g class="st3">
		<path class="st4" d="M1445.5,501.5c-37.3,0-67.6-30.3-67.6-67.6s30.3-67.6,67.6-67.6c37.3,0,67.6,30.3,67.6,67.6
			S1482.7,501.5,1445.5,501.5z"/>
		<path class="st8" d="M1445.5,373.8c33.1,0,60.1,27,60.1,60.1c0,33.1-27,60.1-60.1,60.1s-60.1-27-60.1-60.1
			C1385.4,400.8,1412.4,373.8,1445.5,373.8 M1445.5,358.8c-41.5,0-75.1,33.6-75.1,75.1c0,41.5,33.6,75.1,75.1,75.1
			s75.1-33.6,75.1-75.1C1520.6,392.5,1486.9,358.8,1445.5,358.8L1445.5,358.8z"/>
	</g>
</g>
<g class="st0">
	<ellipse class="st1" cx="1719" cy="227.6" rx="47.5" ry="51.5"/>
	<ellipse class="st1" cx="1720" cy="399.6" rx="47.5" ry="51.5"/>
	<ellipse class="st1" cx="1719" cy="55.6" rx="47.5" ry="51.5"/>
	<g class="st3">
		<path class="st4" d="M1719.5,157.6c-37.3,0-67.6-30.3-67.6-67.6c0-37.3,30.3-67.6,67.6-67.6c37.3,0,67.6,30.3,67.6,67.6
			C1787.1,127.3,1756.7,157.6,1719.5,157.6z"/>
		<path class="st8" d="M1719.5,30c33.1,0,60.1,27,60.1,60.1s-27,60.1-60.1,60.1s-60.1-27-60.1-60.1S1686.4,30,1719.5,30 M1719.5,15
			c-41.5,0-75.1,33.6-75.1,75.1s33.6,75.1,75.1,75.1s75.1-33.6,75.1-75.1S1760.9,15,1719.5,15L1719.5,15z"/>
	</g>
	<g class="st3">
		<path class="st4" d="M1719.5,329.6c-37.3,0-67.6-30.3-67.6-67.6s30.3-67.6,67.6-67.6c37.3,0,67.6,30.3,67.6,67.6
			S1756.7,329.6,1719.5,329.6z"/>
		<path class="st8" d="M1719.5,201.9c33.1,0,60.1,27,60.1,60.1s-27,60.1-60.1,60.1s-60.1-27-60.1-60.1S1686.4,201.9,1719.5,201.9
			 M1719.5,186.9c-41.5,0-75.1,33.6-75.1,75.1c0,41.5,33.6,75.1,75.1,75.1s75.1-33.6,75.1-75.1
			C1794.6,220.5,1760.9,186.9,1719.5,186.9L1719.5,186.9z"/>
	</g>
	<g class="st3">
		<path class="st4" d="M1719.5,501.5c-37.3,0-67.6-30.3-67.6-67.6s30.3-67.6,67.6-67.6c37.3,0,67.6,30.3,67.6,67.6
			S1756.7,501.5,1719.5,501.5z"/>
		<path class="st8" d="M1719.5,373.8c33.1,0,60.1,27,60.1,60.1c0,33.1-27,60.1-60.1,60.1s-60.1-27-60.1-60.1
			C1659.4,400.8,1686.4,373.8,1719.5,373.8 M1719.5,358.8c-41.5,0-75.1,33.6-75.1,75.1c0,41.5,33.6,75.1,75.1,75.1
			s75.1-33.6,75.1-75.1C1794.6,392.5,1760.9,358.8,1719.5,358.8L1719.5,358.8z"/>
	</g>
</g>
</svg>
