<?xml version="1.0" encoding="utf-8"?>
<!-- Generator: Adobe Illustrator 25.4.1, SVG Export Plug-In . SVG Version: 6.00 Build 0)  -->
<svg version="1.1" id="Слой_1" xmlns="http://www.w3.org/2000/svg" xmlns:xlink="http://www.w3.org/1999/xlink" x="0px" y="0px"
	 viewBox="0 0 1336.1 666" style="enable-background:new 0 0 1336.1 666;" xml:space="preserve">
<style type="text/css">
	.st0{fill:none;stroke:#000000;stroke-width:8;stroke-miterlimit:10;}
	.st1{display:none;}
	.st2{display:inline;fill:none;stroke:#000000;stroke-width:8;stroke-miterlimit:10;}
	.st3{display:inline;}
	.st4{fill:#E4E7EB;}
	.st5{fill:#185090;}
	.st6{fill:#326A66;}
	.st7{fill:none;stroke:#000000;stroke-width:4;stroke-miterlimit:10;}
	.st8{fill:#E3E6EA;}
	.st9{fill:#02365A;}
</style>
<g>
	<line class="st0" x1="75.1" y1="75" x2="272.4" y2="75"/>
	<line class="st0" x1="272.4" y1="247" x2="75.1" y2="75"/>
	<line class="st0" x1="75.1" y1="591" x2="272.4" y2="591"/>
	<line class="st0" x1="272.4" y1="419" x2="75.1" y2="591"/>
	<line class="st0" x1="75.1" y1="247" x2="272.4" y2="75"/>
	<line class="st0" x1="272.4" y1="247" x2="75.1" y2="247"/>
	<line class="st0" x1="272.4" y1="419" x2="75.1" y2="247"/>
	<line class="st0" x1="75.1" y1="419" x2="272.4" y2="591"/>
	<line class="st0" x1="272.4" y1="419" x2="75.1" y2="419"/>
	<line class="st0" x1="272.4" y1="247" x2="75.1" y2="419"/>
</g>
<g>
	<line class="st0" x1="666.9" y1="248" x2="864.1" y2="76"/>
	<line class="st0" x1="864.1" y1="248" x2="666.9" y2="248"/>
	<line class="st0" x1="864.1" y1="420" x2="666.9" y2="248"/>
	<line class="st0" x1="864.1" y1="592" x2="666.9" y2="248"/>
	<line class="st0" x1="666.9" y1="420" x2="864.1" y2="592"/>
	<line class="st0" x1="864.1" y1="420" x2="666.9" y2="420"/>
	<line class="st0" x1="864.1" y1="248" x2="666.9" y2="420"/>
	<line class="st0" x1="864.1" y1="76" x2="666.9" y2="420"/>
</g>
<g>
	<line class="st0" x1="864.1" y1="76" x2="1061.4" y2="76"/>
	<line class="st0" x1="1061.4" y1="248" x2="864.1" y2="76"/>
	<line class="st0" x1="1061.4" y1="420" x2="864.1" y2="76"/>
	<line class="st0" x1="1061.4" y1="592" x2="864.1" y2="76"/>
	<line class="st0" x1="864.1" y1="592" x2="1061.4" y2="592"/>
	<line class="st0" x1="1061.4" y1="420" x2="864.1" y2="592"/>
	<line class="st0" x1="1061.4" y1="248" x2="864.1" y2="592"/>
	<line class="st0" x1="1061.4" y1="76" x2="864.1" y2="592"/>
	<line class="st0" x1="864.1" y1="248" x2="1061.4" y2="76"/>
	<line class="st0" x1="1061.4" y1="248" x2="864.1" y2="248"/>
	<line class="st0" x1="1061.4" y1="420" x2="864.1" y2="248"/>
	<line class="st0" x1="1061.4" y1="592" x2="864.1" y2="248"/>
	<line class="st0" x1="864.1" y1="420" x2="1061.4" y2="592"/>
	<line class="st0" x1="1061.4" y1="420" x2="864.1" y2="420"/>
	<line class="st0" x1="1061.4" y1="248" x2="864.1" y2="420"/>
	<line class="st0" x1="1061.4" y1="76" x2="864.1" y2="420"/>
</g>
<g>
	<line class="st0" x1="469.9" y1="161" x2="272.4" y2="75"/>
	<line class="st0" x1="272.4" y1="247" x2="469.9" y2="161"/>
	<line class="st0" x1="469.9" y1="332.9" x2="272.4" y2="247"/>
	<line class="st0" x1="272.4" y1="419" x2="469.9" y2="332.9"/>
	<line class="st0" x1="469.9" y1="505" x2="272.4" y2="591"/>
	<line class="st0" x1="272.4" y1="419" x2="469.9" y2="505"/>
</g>
<g>
	<line class="st0" x1="469.9" y1="161" x2="666.9" y2="248"/>
	<line class="st0" x1="469.9" y1="332.9" x2="666.9" y2="248"/>
	<line class="st0" x1="469.9" y1="505" x2="666.9" y2="420"/>
	<line class="st0" x1="469.9" y1="332.9" x2="666.9" y2="420"/>
</g>
<g>
	<line class="st0" x1="1063.7" y1="76" x2="1261" y2="76"/>
	<line class="st0" x1="1261" y1="248" x2="1063.7" y2="76"/>
	<line class="st0" x1="1261" y1="420" x2="1063.7" y2="76"/>
	<line class="st0" x1="1261" y1="592" x2="1063.7" y2="76"/>
	<line class="st0" x1="1063.7" y1="592" x2="1261" y2="592"/>
	<line class="st0" x1="1261" y1="420" x2="1063.7" y2="592"/>
	<line class="st0" x1="1261" y1="248" x2="1063.7" y2="592"/>
	<line class="st0" x1="1261" y1="76" x2="1063.7" y2="592"/>
	<line class="st0" x1="1063.7" y1="248" x2="1261" y2="76"/>
	<line class="st0" x1="1261" y1="248" x2="1063.7" y2="248"/>
	<line class="st0" x1="1261" y1="420" x2="1063.7" y2="248"/>
	<line class="st0" x1="1261" y1="592" x2="1063.7" y2="248"/>
	<line class="st0" x1="1063.7" y1="420" x2="1261" y2="592"/>
	<line class="st0" x1="1261" y1="420" x2="1063.7" y2="420"/>
	<line class="st0" x1="1261" y1="248" x2="1063.7" y2="420"/>
	<line class="st0" x1="1261" y1="76" x2="1063.7" y2="420"/>
</g>
<g class="st1">
	<line class="st2" x1="1263.2" y1="76" x2="1460.5" y2="76"/>
	<line class="st2" x1="1460.5" y1="248" x2="1263.2" y2="76"/>
	<line class="st2" x1="1460.5" y1="420" x2="1263.2" y2="76"/>
	<line class="st2" x1="1460.5" y1="592" x2="1263.2" y2="76"/>
	<line class="st2" x1="1263.2" y1="592" x2="1460.5" y2="592"/>
	<line class="st2" x1="1460.5" y1="420" x2="1263.2" y2="592"/>
	<line class="st2" x1="1460.5" y1="248" x2="1263.2" y2="592"/>
	<line class="st2" x1="1460.5" y1="76" x2="1263.2" y2="592"/>
	<line class="st2" x1="1263.2" y1="248" x2="1460.5" y2="76"/>
	<line class="st2" x1="1460.5" y1="248" x2="1263.2" y2="248"/>
	<line class="st2" x1="1460.5" y1="420" x2="1263.2" y2="248"/>
	<line class="st2" x1="1460.5" y1="592" x2="1263.2" y2="248"/>
	<line class="st2" x1="1263.2" y1="420" x2="1460.5" y2="592"/>
	<line class="st2" x1="1460.5" y1="420" x2="1263.2" y2="420"/>
	<line class="st2" x1="1460.5" y1="248" x2="1263.2" y2="420"/>
	<line class="st2" x1="1460.5" y1="76" x2="1263.2" y2="420"/>
</g>
<g class="st1">
	<line class="st2" x1="1460.5" y1="74.8" x2="1657.8" y2="74.8"/>
	<line class="st2" x1="1657.8" y1="246.8" x2="1460.5" y2="74.8"/>
	<line class="st2" x1="1657.8" y1="418.8" x2="1460.5" y2="74.8"/>
	<line class="st2" x1="1657.8" y1="590.8" x2="1460.5" y2="74.8"/>
	<line class="st2" x1="1460.5" y1="590.8" x2="1657.8" y2="590.8"/>
	<line class="st2" x1="1657.8" y1="418.8" x2="1460.5" y2="590.8"/>
	<line class="st2" x1="1657.8" y1="246.8" x2="1460.5" y2="590.8"/>
	<line class="st2" x1="1657.8" y1="74.8" x2="1460.5" y2="590.8"/>
	<line class="st2" x1="1460.5" y1="246.8" x2="1657.8" y2="74.8"/>
	<line class="st2" x1="1657.8" y1="246.8" x2="1460.5" y2="246.8"/>
	<line class="st2" x1="1657.8" y1="418.8" x2="1460.5" y2="246.8"/>
	<line class="st2" x1="1657.8" y1="590.8" x2="1460.5" y2="246.8"/>
	<line class="st2" x1="1460.5" y1="418.8" x2="1657.8" y2="590.8"/>
	<line class="st2" x1="1657.8" y1="418.8" x2="1460.5" y2="418.8"/>
	<line class="st2" x1="1657.8" y1="246.8" x2="1460.5" y2="418.8"/>
	<line class="st2" x1="1657.8" y1="74.8" x2="1460.5" y2="418.8"/>
</g>
<g class="st1">
	<line class="st2" x1="1664.3" y1="76" x2="1861.6" y2="76"/>
	<line class="st2" x1="1861.6" y1="248" x2="1664.3" y2="76"/>
	<line class="st2" x1="1861.6" y1="420" x2="1664.3" y2="76"/>
	<line class="st2" x1="1861.6" y1="592" x2="1664.3" y2="76"/>
	<line class="st2" x1="1664.3" y1="592" x2="1861.6" y2="592"/>
	<line class="st2" x1="1861.6" y1="420" x2="1664.3" y2="592"/>
	<line class="st2" x1="1861.6" y1="248" x2="1664.3" y2="592"/>
	<line class="st2" x1="1861.6" y1="76" x2="1664.3" y2="592"/>
	<line class="st2" x1="1664.3" y1="248" x2="1861.6" y2="76"/>
	<line class="st2" x1="1861.6" y1="248" x2="1664.3" y2="248"/>
	<line class="st2" x1="1861.6" y1="420" x2="1664.3" y2="248"/>
	<line class="st2" x1="1861.6" y1="592" x2="1664.3" y2="248"/>
	<line class="st2" x1="1664.3" y1="420" x2="1861.6" y2="592"/>
	<line class="st2" x1="1861.6" y1="420" x2="1664.3" y2="420"/>
	<line class="st2" x1="1861.6" y1="248" x2="1664.3" y2="420"/>
	<line class="st2" x1="1861.6" y1="76" x2="1664.3" y2="420"/>
</g>
<g id="Последний_слой" class="st1">
	<g class="st3">
		<line class="st0" x1="1461.8" y1="156.9" x2="1258" y2="73.7"/>
		<line class="st0" x1="1461.8" y1="328.7" x2="1258" y2="73.7"/>
		<line class="st0" x1="1461.8" y1="500.8" x2="1258" y2="73.7"/>
		<line class="st0" x1="1461.8" y1="156.9" x2="1258" y2="245.6"/>
		<line class="st0" x1="1461.8" y1="328.7" x2="1258" y2="245.6"/>
		<line class="st0" x1="1461.8" y1="500.8" x2="1258" y2="417.5"/>
		<line class="st0" x1="1258" y1="589.7" x2="1461.8" y2="500.8"/>
		<line class="st0" x1="1258" y1="417.5" x2="1461.8" y2="328.7"/>
		<line class="st0" x1="1258" y1="589.7" x2="1461.8" y2="328.7"/>
		<line class="st0" x1="1461.8" y1="156.9" x2="1258" y2="589.7"/>
		<line class="st0" x1="1258" y1="417.5" x2="1461.8" y2="156.9"/>
	</g>
	<g class="st3">
		<g>
			<ellipse class="st4" cx="1461.8" cy="156.9" rx="67.6" ry="67.6"/>
			<path class="st5" d="M1461.8,96.8c33.1,0,60.1,27,60.1,60.1s-27,60.1-60.1,60.1s-60.1-27-60.1-60.1S1428.7,96.8,1461.8,96.8
				 M1461.8,81.8c-41.5,0-75.1,33.6-75.1,75.1s33.6,75.1,75.1,75.1s75.1-33.6,75.1-75.1S1503.2,81.8,1461.8,81.8L1461.8,81.8z"/>
		</g>
		<g>
			<ellipse class="st4" cx="1461.8" cy="328.7" rx="67.6" ry="67.6"/>
			<path class="st5" d="M1461.8,268.6c33.1,0,60.1,27,60.1,60.1s-27,60.1-60.1,60.1s-60.1-27-60.1-60.1S1428.7,268.6,1461.8,268.6
				 M1461.8,253.6c-41.5,0-75.1,33.7-75.1,75.1s33.6,75.1,75.1,75.1s75.1-33.6,75.1-75.1S1503.2,253.6,1461.8,253.6L1461.8,253.6z"
				/>
		</g>
		<g>
			
				<ellipse transform="matrix(0.7071 -0.7071 0.7071 0.7071 74.0341 1180.3457)" class="st4" cx="1461.8" cy="500.8" rx="67.6" ry="67.6"/>
			<path class="st5" d="M1461.8,440.7c33.1,0,60.1,27,60.1,60.1s-27,60.1-60.1,60.1s-60.1-27-60.1-60.1S1428.7,440.7,1461.8,440.7
				 M1461.8,425.7c-41.5,0-75.1,33.6-75.1,75.1s33.6,75.1,75.1,75.1s75.1-33.6,75.1-75.1S1503.2,425.7,1461.8,425.7L1461.8,425.7z"
				/>
		</g>
	</g>
</g>
<g>
	<g>
		<ellipse class="st4" cx="467.3" cy="161.1" rx="67.6" ry="67.6"/>
		<path class="st6" d="M467.3,101c33.1,0,60.1,27,60.1,60.1s-27,60.1-60.1,60.1s-60.1-27-60.1-60.1S434.2,101,467.3,101 M467.3,86
			c-41.5,0-75.1,33.6-75.1,75.1s33.6,75.1,75.1,75.1s75.1-33.6,75.1-75.1S508.7,86,467.3,86L467.3,86z"/>
	</g>
	<g>
		<ellipse class="st4" cx="467.3" cy="332.9" rx="67.6" ry="67.6"/>
		<path class="st6" d="M467.3,272.8c33.1,0,60.1,27,60.1,60.1s-27,60.1-60.1,60.1s-60.1-27-60.1-60.1S434.2,272.8,467.3,272.8
			 M467.3,257.8c-41.5,0-75.1,33.7-75.1,75.1s33.6,75.1,75.1,75.1s75.1-33.6,75.1-75.1S508.7,257.8,467.3,257.8L467.3,257.8z"/>
	</g>
	<g>
		
			<ellipse transform="matrix(0.7071 -0.7071 0.7071 0.7071 -220.206 478.3766)" class="st4" cx="467.3" cy="505" rx="67.6" ry="67.6"/>
		<path class="st6" d="M467.3,444.9c33.1,0,60.1,27,60.1,60.1s-27,60.1-60.1,60.1s-60.1-27-60.1-60.1S434.2,444.9,467.3,444.9
			 M467.3,429.9c-41.5,0-75.1,33.6-75.1,75.1s33.6,75.1,75.1,75.1s75.1-33.6,75.1-75.1S508.7,429.9,467.3,429.9L467.3,429.9z"/>
	</g>
	<circle class="st7" cx="467.1" cy="505" r="52.5"/>
	<circle class="st7" cx="467.3" cy="333" r="52.5"/>
	<circle class="st7" cx="467.1" cy="161" r="52.5"/>
</g>
<g>
	<g>
		
			<ellipse transform="matrix(0.7071 -0.7071 0.7071 0.7071 26.5356 214.6352)" class="st8" cx="272.4" cy="75.3" rx="67.6" ry="67.6"/>
		<path class="st6" d="M272.4,15.2c33.1,0,60.1,27,60.1,60.1s-27,60.1-60.1,60.1s-60.1-27-60.1-60.1S239.3,15.2,272.4,15.2
			 M272.4,0.2c-41.5,0-75.1,33.6-75.1,75.1s33.6,75.1,75.1,75.1s75.1-33.6,75.1-75.1S313.8,0.2,272.4,0.2L272.4,0.2z"/>
	</g>
	<g>
		<ellipse class="st8" cx="272.3" cy="247.2" rx="67.6" ry="67.6"/>
		<path class="st6" d="M272.4,187.1c33.1,0,60.1,27,60.1,60.1s-27,60.1-60.1,60.1s-60.1-27-60.1-60.1S239.3,187.1,272.4,187.1
			 M272.4,172.1c-41.5,0-75.1,33.6-75.1,75.1s33.6,75.1,75.1,75.1s75.1-33.6,75.1-75.1C347.5,205.8,313.8,172.1,272.4,172.1
			L272.4,172.1z"/>
	</g>
	<g>
		
			<ellipse transform="matrix(0.7071 -0.7071 0.7071 0.7071 -216.5685 315.3412)" class="st8" cx="272.4" cy="419.1" rx="67.6" ry="67.6"/>
		<path class="st6" d="M272.4,359.1c33.1,0,60.1,27,60.1,60.1s-27,60.1-60.1,60.1s-60.1-27-60.1-60.1S239.3,359.1,272.4,359.1
			 M272.4,344.1c-41.5,0-75.1,33.6-75.1,75.1s33.6,75.1,75.1,75.1s75.1-33.6,75.1-75.1S313.8,344.1,272.4,344.1L272.4,344.1z"/>
	</g>
	<g>
		<ellipse class="st8" cx="272.4" cy="591.2" rx="67.6" ry="67.6"/>
		<path class="st6" d="M272.4,531.1c33.1,0,60.1,27,60.1,60.1s-27,60.1-60.1,60.1s-60.1-27-60.1-60.1S239.3,531.1,272.4,531.1
			 M272.4,516.1c-41.5,0-75.1,33.6-75.1,75.1s33.6,75.1,75.1,75.1s75.1-33.6,75.1-75.1C347.5,549.8,313.8,516.1,272.4,516.1
			L272.4,516.1z"/>
	</g>
	<circle class="st7" cx="272.4" cy="76" r="52.5"/>
	<circle class="st7" cx="272.4" cy="246.9" r="52.5"/>
	<circle class="st7" cx="272.8" cy="419.2" r="52.5"/>
	<circle class="st7" cx="272.4" cy="592" r="52.5"/>
</g>
<g>
	<g>
		<circle class="st8" cx="859.2" cy="75.5" r="67.6"/>
		<path class="st9" d="M859.2,15.4c33.1,0,60.1,27,60.1,60.1s-27,60.1-60.1,60.1s-60.1-27-60.1-60.1S826,15.4,859.2,15.4 M859.2,0.4
			c-41.5,0-75.1,33.6-75.1,75.1s33.6,75.1,75.1,75.1s75.1-33.6,75.1-75.1S900.6,0.4,859.2,0.4L859.2,0.4z"/>
	</g>
	<g>
		<circle class="st8" cx="859.2" cy="247.4" r="67.6"/>
		<path class="st9" d="M859.2,187.3c33.1,0,60.1,27,60.1,60.1s-27,60.1-60.1,60.1s-60.1-27-60.1-60.1S826,187.3,859.2,187.3
			 M859.2,172.3c-41.5,0-75.1,33.6-75.1,75.1s33.6,75.1,75.1,75.1s75.1-33.6,75.1-75.1C934.2,205.9,900.6,172.3,859.2,172.3
			L859.2,172.3z"/>
	</g>
	<g>
		<circle class="st8" cx="859.2" cy="419.3" r="67.6"/>
		<path class="st9" d="M859.2,359.2c33.1,0,60.1,27,60.1,60.1s-27,60.1-60.1,60.1s-60.1-27-60.1-60.1S826,359.2,859.2,359.2
			 M859.2,344.2c-41.5,0-75.1,33.6-75.1,75.1s33.6,75.1,75.1,75.1s75.1-33.6,75.1-75.1S900.6,344.2,859.2,344.2L859.2,344.2z"/>
	</g>
	<g>
		<circle class="st8" cx="859.2" cy="591.4" r="67.6"/>
		<path class="st9" d="M859.2,531.3c33.1,0,60.1,27,60.1,60.1s-27,60.1-60.1,60.1s-60.1-27-60.1-60.1S826,531.3,859.2,531.3
			 M859.2,516.3c-41.5,0-75.1,33.6-75.1,75.1s33.6,75.1,75.1,75.1s75.1-33.6,75.1-75.1S900.6,516.3,859.2,516.3L859.2,516.3z"/>
	</g>
</g>
<g>
	<g>
		<path class="st8" d="M1059.3,142.5c-37.3,0-67.6-30.3-67.6-67.6s30.3-67.6,67.6-67.6c37.3,0,67.6,30.3,67.6,67.6
			S1096.6,142.5,1059.3,142.5z"/>
		<path class="st9" d="M1059.3,14.8c33.1,0,60.1,27,60.1,60.1s-27,60.1-60.1,60.1s-60.1-27-60.1-60.1S1026.2,14.8,1059.3,14.8
			 M1059.3-0.2c-41.5,0-75.1,33.6-75.1,75.1s33.6,75.1,75.1,75.1c41.5,0,75.1-33.6,75.1-75.1S1100.8-0.2,1059.3-0.2L1059.3-0.2z"/>
	</g>
	<g>
		<path class="st8" d="M1059.3,314.4c-37.3,0-67.6-30.3-67.6-67.6s30.3-67.6,67.6-67.6c37.3,0,67.6,30.3,67.6,67.6
			S1096.6,314.4,1059.3,314.4z"/>
		<path class="st9" d="M1059.3,186.8c33.1,0,60.1,27,60.1,60.1s-27,60.1-60.1,60.1s-60.1-27-60.1-60.1S1026.2,186.8,1059.3,186.8
			 M1059.3,171.8c-41.5,0-75.1,33.6-75.1,75.1s33.6,75.1,75.1,75.1c41.5,0,75.1-33.6,75.1-75.1S1100.8,171.8,1059.3,171.8
			L1059.3,171.8z"/>
	</g>
	<g>
		<path class="st8" d="M1059.3,486.3c-37.3,0-67.6-30.3-67.6-67.6s30.3-67.6,67.6-67.6c37.3,0,67.6,30.3,67.6,67.6
			S1096.6,486.3,1059.3,486.3z"/>
		<path class="st9" d="M1059.3,358.7c33.1,0,60.1,27,60.1,60.1s-27,60.1-60.1,60.1s-60.1-27-60.1-60.1S1026.2,358.7,1059.3,358.7
			 M1059.3,343.7c-41.5,0-75.1,33.6-75.1,75.1s33.6,75.1,75.1,75.1c41.5,0,75.1-33.6,75.1-75.1S1100.8,343.7,1059.3,343.7
			L1059.3,343.7z"/>
	</g>
	<g>
		<path class="st8" d="M1059.3,658.4c-37.3,0-67.6-30.3-67.6-67.6s30.3-67.6,67.6-67.6c37.3,0,67.6,30.3,67.6,67.6
			S1096.6,658.4,1059.3,658.4z"/>
		<path class="st9" d="M1059.3,530.8c33.1,0,60.1,27,60.1,60.1s-27,60.1-60.1,60.1s-60.1-27-60.1-60.1S1026.2,530.8,1059.3,530.8
			 M1059.3,515.8c-41.5,0-75.1,33.6-75.1,75.1s33.6,75.1,75.1,75.1c41.5,0,75.1-33.6,75.1-75.1S1100.8,515.8,1059.3,515.8
			L1059.3,515.8z"/>
	</g>
</g>
<g>
	<g>
		<ellipse class="st8" cx="75.1" cy="75" rx="67.6" ry="67.6"/>
		<path class="st9" d="M75.1,14.9c33.1,0,60.1,27,60.1,60.1s-27,60.1-60.1,60.1S15,108.1,15,75S41.9,14.9,75.1,14.9 M75.1-0.1
			C33.6-0.1,0,33.5,0,75s33.6,75.1,75.1,75.1s75.1-33.6,75.1-75.1S116.5-0.1,75.1-0.1L75.1-0.1z"/>
	</g>
	<g>
		<ellipse class="st8" cx="75.1" cy="246.9" rx="67.6" ry="67.6"/>
		<path class="st9" d="M75.1,186.8c33.1,0,60.1,27,60.1,60.1s-27,60.1-60.1,60.1S15,280,15,246.9S41.9,186.8,75.1,186.8 M75.1,171.8
			C33.6,171.8,0,205.4,0,246.9S33.6,322,75.1,322s75.1-33.6,75.1-75.1C150.1,205.5,116.5,171.8,75.1,171.8L75.1,171.8z"/>
	</g>
	<g>
		<ellipse class="st8" cx="75.1" cy="418.8" rx="67.6" ry="67.6"/>
		<path class="st9" d="M75.1,358.8c33.1,0,60.1,27,60.1,60.1s-27,60.1-60.1,60.1S15,452,15,418.9S41.9,358.8,75.1,358.8 M75.1,343.8
			C33.6,343.8,0,377.4,0,418.9S33.6,494,75.1,494s75.1-33.6,75.1-75.1C150.1,377.4,116.5,343.8,75.1,343.8L75.1,343.8z"/>
	</g>
	<g>
		
			<ellipse transform="matrix(0.7071 -0.7071 0.7071 0.7071 -395.8378 226.1509)" class="st8" cx="75.1" cy="590.9" rx="67.6" ry="67.6"/>
		<path class="st9" d="M75.1,530.8c33.1,0,60.1,27,60.1,60.1s-27,60.1-60.1,60.1S15,624,15,590.9S41.9,530.8,75.1,530.8 M75.1,515.8
			C33.6,515.8,0,549.4,0,590.9S33.6,666,75.1,666s75.1-33.6,75.1-75.1S116.5,515.8,75.1,515.8L75.1,515.8z"/>
	</g>
</g>
<g>
	<g>
		<path class="st8" d="M1261,142.5c-37.3,0-67.6-30.3-67.6-67.6s30.3-67.6,67.6-67.6c37.3,0,67.6,30.3,67.6,67.6
			S1298.3,142.5,1261,142.5z"/>
		<path class="st9" d="M1261,14.8c33.1,0,60.1,27,60.1,60.1s-27,60.1-60.1,60.1s-60.1-27-60.1-60.1S1227.9,14.8,1261,14.8 M1261-0.2
			c-41.5,0-75.1,33.6-75.1,75.1s33.6,75.1,75.1,75.1s75.1-33.6,75.1-75.1S1302.5-0.2,1261-0.2L1261-0.2z"/>
	</g>
	<g>
		<path class="st8" d="M1261,314.4c-37.3,0-67.6-30.3-67.6-67.6s30.3-67.6,67.6-67.6c37.3,0,67.6,30.3,67.6,67.6
			S1298.3,314.4,1261,314.4z"/>
		<path class="st9" d="M1261,186.8c33.1,0,60.1,27,60.1,60.1s-27,60.1-60.1,60.1s-60.1-27-60.1-60.1S1227.9,186.8,1261,186.8
			 M1261,171.8c-41.5,0-75.1,33.6-75.1,75.1s33.6,75.1,75.1,75.1s75.1-33.6,75.1-75.1S1302.5,171.8,1261,171.8L1261,171.8z"/>
	</g>
	<g>
		<path class="st8" d="M1261,486.3c-37.3,0-67.6-30.3-67.6-67.6s30.3-67.6,67.6-67.6c37.3,0,67.6,30.3,67.6,67.6
			S1298.3,486.3,1261,486.3z"/>
		<path class="st9" d="M1261,358.7c33.1,0,60.1,27,60.1,60.1s-27,60.1-60.1,60.1s-60.1-27-60.1-60.1S1227.9,358.7,1261,358.7
			 M1261,343.7c-41.5,0-75.1,33.6-75.1,75.1s33.6,75.1,75.1,75.1s75.1-33.6,75.1-75.1S1302.5,343.7,1261,343.7L1261,343.7z"/>
	</g>
	<g>
		<path class="st8" d="M1261,658.4c-37.3,0-67.6-30.3-67.6-67.6s30.3-67.6,67.6-67.6c37.3,0,67.6,30.3,67.6,67.6
			S1298.3,658.4,1261,658.4z"/>
		<path class="st9" d="M1261,530.8c33.1,0,60.1,27,60.1,60.1s-27,60.1-60.1,60.1s-60.1-27-60.1-60.1S1227.9,530.8,1261,530.8
			 M1261,515.8c-41.5,0-75.1,33.6-75.1,75.1s33.6,75.1,75.1,75.1s75.1-33.6,75.1-75.1S1302.5,515.8,1261,515.8L1261,515.8z"/>
	</g>
</g>
<g class="st1">
	<g class="st3">
		<path class="st8" d="M1462.7,142.5c-37.3,0-67.6-30.3-67.6-67.6s30.3-67.6,67.6-67.6c37.3,0,67.6,30.3,67.6,67.6
			S1500,142.5,1462.7,142.5z"/>
		<path class="st9" d="M1462.7,14.8c33.1,0,60.1,27,60.1,60.1s-27,60.1-60.1,60.1s-60.1-27-60.1-60.1S1429.6,14.8,1462.7,14.8
			 M1462.7-0.2c-41.5,0-75.1,33.6-75.1,75.1s33.6,75.1,75.1,75.1s75.1-33.6,75.1-75.1S1504.2-0.2,1462.7-0.2L1462.7-0.2z"/>
	</g>
	<g class="st3">
		<path class="st8" d="M1462.7,314.4c-37.3,0-67.6-30.3-67.6-67.6s30.3-67.6,67.6-67.6c37.3,0,67.6,30.3,67.6,67.6
			S1500,314.4,1462.7,314.4z"/>
		<path class="st9" d="M1462.7,186.8c33.1,0,60.1,27,60.1,60.1s-27,60.1-60.1,60.1s-60.1-27-60.1-60.1S1429.6,186.8,1462.7,186.8
			 M1462.7,171.8c-41.5,0-75.1,33.6-75.1,75.1s33.6,75.1,75.1,75.1s75.1-33.6,75.1-75.1S1504.2,171.8,1462.7,171.8L1462.7,171.8z"/>
	</g>
	<g class="st3">
		<path class="st8" d="M1462.7,486.3c-37.3,0-67.6-30.3-67.6-67.6s30.3-67.6,67.6-67.6c37.3,0,67.6,30.3,67.6,67.6
			S1500,486.3,1462.7,486.3z"/>
		<path class="st9" d="M1462.7,358.7c33.1,0,60.1,27,60.1,60.1s-27,60.1-60.1,60.1s-60.1-27-60.1-60.1S1429.6,358.7,1462.7,358.7
			 M1462.7,343.7c-41.5,0-75.1,33.6-75.1,75.1s33.6,75.1,75.1,75.1s75.1-33.6,75.1-75.1S1504.2,343.7,1462.7,343.7L1462.7,343.7z"/>
	</g>
	<g class="st3">
		<path class="st8" d="M1462.7,658.4c-37.3,0-67.6-30.3-67.6-67.6s30.3-67.6,67.6-67.6c37.3,0,67.6,30.3,67.6,67.6
			S1500,658.4,1462.7,658.4z"/>
		<path class="st9" d="M1462.7,530.8c33.1,0,60.1,27,60.1,60.1s-27,60.1-60.1,60.1s-60.1-27-60.1-60.1S1429.6,530.8,1462.7,530.8
			 M1462.7,515.8c-41.5,0-75.1,33.6-75.1,75.1s33.6,75.1,75.1,75.1s75.1-33.6,75.1-75.1S1504.2,515.8,1462.7,515.8L1462.7,515.8z"/>
	</g>
</g>
<g class="st1">
	<g class="st3">
		<path class="st8" d="M1664.3,141.3c-37.3,0-67.6-30.3-67.6-67.6s30.3-67.6,67.6-67.6c37.3,0,67.6,30.3,67.6,67.6
			S1701.6,141.3,1664.3,141.3z"/>
		<path class="st9" d="M1664.3,13.6c33.1,0,60.1,27,60.1,60.1s-27,60.1-60.1,60.1s-60.1-27-60.1-60.1S1631.2,13.6,1664.3,13.6
			 M1664.3-1.4c-41.5,0-75.1,33.6-75.1,75.1s33.6,75.1,75.1,75.1s75.1-33.6,75.1-75.1S1705.8-1.4,1664.3-1.4L1664.3-1.4z"/>
	</g>
	<g class="st3">
		<path class="st8" d="M1664.3,313.2c-37.3,0-67.6-30.3-67.6-67.6s30.3-67.6,67.6-67.6c37.3,0,67.6,30.3,67.6,67.6
			S1701.6,313.2,1664.3,313.2z"/>
		<path class="st9" d="M1664.3,185.6c33.1,0,60.1,27,60.1,60.1s-27,60.1-60.1,60.1s-60.1-27-60.1-60.1S1631.2,185.6,1664.3,185.6
			 M1664.3,170.6c-41.5,0-75.1,33.6-75.1,75.1s33.6,75.1,75.1,75.1s75.1-33.6,75.1-75.1S1705.8,170.6,1664.3,170.6L1664.3,170.6z"/>
	</g>
	<g class="st3">
		<path class="st8" d="M1664.3,485.1c-37.3,0-67.6-30.3-67.6-67.6s30.3-67.6,67.6-67.6c37.3,0,67.6,30.3,67.6,67.6
			S1701.6,485.1,1664.3,485.1z"/>
		<path class="st9" d="M1664.3,357.5c33.1,0,60.1,27,60.1,60.1s-27,60.1-60.1,60.1s-60.1-27-60.1-60.1S1631.2,357.5,1664.3,357.5
			 M1664.3,342.5c-41.5,0-75.1,33.6-75.1,75.1s33.6,75.1,75.1,75.1s75.1-33.6,75.1-75.1S1705.8,342.5,1664.3,342.5L1664.3,342.5z"/>
	</g>
	<g class="st3">
		<path class="st8" d="M1664.3,657.2c-37.3,0-67.6-30.3-67.6-67.6s30.3-67.6,67.6-67.6c37.3,0,67.6,30.3,67.6,67.6
			S1701.6,657.2,1664.3,657.2z"/>
		<path class="st9" d="M1664.3,529.6c33.1,0,60.1,27,60.1,60.1s-27,60.1-60.1,60.1s-60.1-27-60.1-60.1S1631.2,529.6,1664.3,529.6
			 M1664.3,514.6c-41.5,0-75.1,33.6-75.1,75.1s33.6,75.1,75.1,75.1s75.1-33.6,75.1-75.1S1705.8,514.6,1664.3,514.6L1664.3,514.6z"/>
	</g>
</g>
<g class="st1">
	<g class="st3">
		<path class="st8" d="M1868.2,142.5c-37.3,0-67.6-30.3-67.6-67.6s30.3-67.6,67.6-67.6c37.3,0,67.6,30.3,67.6,67.6
			S1905.5,142.5,1868.2,142.5z"/>
		<path class="st9" d="M1868.2,14.8c33.1,0,60.1,27,60.1,60.1s-27,60.1-60.1,60.1s-60.1-27-60.1-60.1S1835.1,14.8,1868.2,14.8
			 M1868.2-0.2c-41.5,0-75.1,33.6-75.1,75.1s33.6,75.1,75.1,75.1s75.1-33.6,75.1-75.1S1909.7-0.2,1868.2-0.2L1868.2-0.2z"/>
	</g>
	<g class="st3">
		<path class="st8" d="M1868.2,314.4c-37.3,0-67.6-30.3-67.6-67.6s30.3-67.6,67.6-67.6c37.3,0,67.6,30.3,67.6,67.6
			S1905.5,314.4,1868.2,314.4z"/>
		<path class="st9" d="M1868.2,186.8c33.1,0,60.1,27,60.1,60.1s-27,60.1-60.1,60.1s-60.1-27-60.1-60.1S1835.1,186.8,1868.2,186.8
			 M1868.2,171.8c-41.5,0-75.1,33.6-75.1,75.1s33.6,75.1,75.1,75.1s75.1-33.6,75.1-75.1S1909.7,171.8,1868.2,171.8L1868.2,171.8z"/>
	</g>
	<g class="st3">
		<path class="st8" d="M1868.2,486.3c-37.3,0-67.6-30.3-67.6-67.6s30.3-67.6,67.6-67.6c37.3,0,67.6,30.3,67.6,67.6
			S1905.5,486.3,1868.2,486.3z"/>
		<path class="st9" d="M1868.2,358.7c33.1,0,60.1,27,60.1,60.1s-27,60.1-60.1,60.1s-60.1-27-60.1-60.1S1835.1,358.7,1868.2,358.7
			 M1868.2,343.7c-41.5,0-75.1,33.6-75.1,75.1s33.6,75.1,75.1,75.1s75.1-33.6,75.1-75.1S1909.7,343.7,1868.2,343.7L1868.2,343.7z"/>
	</g>
	<g class="st3">
		<path class="st8" d="M1868.2,658.4c-37.3,0-67.6-30.3-67.6-67.6s30.3-67.6,67.6-67.6c37.3,0,67.6,30.3,67.6,67.6
			S1905.5,658.4,1868.2,658.4z"/>
		<path class="st9" d="M1868.2,530.8c33.1,0,60.1,27,60.1,60.1s-27,60.1-60.1,60.1s-60.1-27-60.1-60.1S1835.1,530.8,1868.2,530.8
			 M1868.2,515.8c-41.5,0-75.1,33.6-75.1,75.1s33.6,75.1,75.1,75.1s75.1-33.6,75.1-75.1S1909.7,515.8,1868.2,515.8L1868.2,515.8z"/>
	</g>
</g>
<g>
	<g>
		<path class="st8" d="M666.9,314.6c-37.3,0-67.6-30.3-67.6-67.6s30.3-67.6,67.6-67.6c37.3,0,67.6,30.3,67.6,67.6
			S704.2,314.6,666.9,314.6z"/>
		<path class="st6" d="M666.9,186.9c33.1,0,60.1,27,60.1,60.1s-27,60.1-60.1,60.1s-60.1-27-60.1-60.1S633.8,186.9,666.9,186.9
			 M666.9,171.9c-41.5,0-75.1,33.6-75.1,75.1s33.6,75.1,75.1,75.1S742,288.5,742,247S708.4,171.9,666.9,171.9L666.9,171.9z"/>
	</g>
	<g>
		<path class="st8" d="M666.9,486.5c-37.3,0-67.6-30.3-67.6-67.6s30.3-67.6,67.6-67.6c37.3,0,67.6,30.3,67.6,67.6
			S704.2,486.5,666.9,486.5z"/>
		<path class="st6" d="M666.9,358.8c33.1,0,60.1,27,60.1,60.1S700,479,666.9,479s-60.1-27-60.1-60.1S633.8,358.8,666.9,358.8
			 M666.9,343.8c-41.5,0-75.1,33.6-75.1,75.1s33.6,75.1,75.1,75.1s75.1-33.6,75.1-75.1C742,377.5,708.4,343.8,666.9,343.8
			L666.9,343.8z"/>
	</g>
	<circle class="st7" cx="666.7" cy="419.3" r="52.5"/>
	<circle class="st7" cx="666.7" cy="246.7" r="52.5"/>
</g>
</svg>
