<?xml version="1.0" encoding="utf-8"?>
<!-- Generator: Adobe Illustrator 25.4.1, SVG Export Plug-In . SVG Version: 6.00 Build 0)  -->
<svg version="1.1" id="Слой_1" xmlns="http://www.w3.org/2000/svg" xmlns:xlink="http://www.w3.org/1999/xlink" x="0px" y="0px"
	 viewBox="0 0 1622.1 666" style="enable-background:new 0 0 1622.1 666;" xml:space="preserve">
<style type="text/css">
	.st0{fill:none;stroke:#000000;stroke-width:8;stroke-miterlimit:10;}
	.st1{display:none;}
	.st2{display:inline;fill:none;stroke:#000000;stroke-width:8;stroke-miterlimit:10;}
	.st3{fill:#E4E7EB;}
	.st4{fill:#C8D4E0;}
	.st5{fill:#E3E6EA;}
	.st6{fill:#02365A;}
	.st7{display:inline;}
	.st8{fill:#185090;}
</style>
<g>
	<line class="st0" x1="348" y1="419" x2="75" y2="505"/>
	<line class="st0" x1="75" y1="161" x2="349" y2="75"/>
	<line class="st0" x1="349" y1="247" x2="75" y2="161"/>
	<line class="st0" x1="349" y1="419" x2="75" y2="161"/>
	<line class="st0" x1="349" y1="591" x2="75" y2="161"/>
	<line class="st0" x1="75" y1="333" x2="349" y2="75"/>
	<line class="st0" x1="349" y1="247" x2="75" y2="333"/>
	<line class="st0" x1="349" y1="419" x2="75" y2="333"/>
	<line class="st0" x1="349" y1="591" x2="75" y2="333"/>
	<line class="st0" x1="75" y1="505" x2="349" y2="75"/>
	<line class="st0" x1="349" y1="247" x2="75" y2="505"/>
	<line class="st0" x1="349" y1="591" x2="75" y2="505"/>
</g>
<g>
	<line class="st0" x1="349" y1="75" x2="649" y2="75"/>
	<line class="st0" x1="649" y1="247" x2="349" y2="75"/>
	<line class="st0" x1="649" y1="419" x2="349" y2="75"/>
	<line class="st0" x1="649" y1="591" x2="349" y2="75"/>
	<line class="st0" x1="349" y1="591" x2="649" y2="591"/>
	<line class="st0" x1="649" y1="419" x2="349" y2="591"/>
	<line class="st0" x1="649" y1="247" x2="349" y2="591"/>
	<line class="st0" x1="649" y1="75" x2="349" y2="591"/>
	<line class="st0" x1="349" y1="247" x2="649" y2="75"/>
	<line class="st0" x1="649" y1="247" x2="349" y2="247"/>
	<line class="st0" x1="649" y1="419" x2="349" y2="247"/>
	<line class="st0" x1="649" y1="591" x2="349" y2="247"/>
	<line class="st0" x1="349" y1="419" x2="649" y2="591"/>
	<line class="st0" x1="649" y1="419" x2="349" y2="419"/>
	<line class="st0" x1="649" y1="247" x2="349" y2="419"/>
	<line class="st0" x1="649" y1="75" x2="349" y2="419"/>
</g>
<g>
	<line class="st0" x1="649" y1="76" x2="949" y2="76"/>
	<line class="st0" x1="949" y1="248" x2="649" y2="76"/>
	<line class="st0" x1="949" y1="420" x2="649" y2="76"/>
	<line class="st0" x1="949" y1="592" x2="649" y2="76"/>
	<line class="st0" x1="649" y1="592" x2="949" y2="592"/>
	<line class="st0" x1="949" y1="420" x2="649" y2="592"/>
	<line class="st0" x1="949" y1="248" x2="649" y2="592"/>
	<line class="st0" x1="949" y1="76" x2="649" y2="592"/>
	<line class="st0" x1="649" y1="248" x2="949" y2="76"/>
	<line class="st0" x1="949" y1="248" x2="649" y2="248"/>
	<line class="st0" x1="949" y1="420" x2="649" y2="248"/>
	<line class="st0" x1="949" y1="592" x2="649" y2="248"/>
	<line class="st0" x1="649" y1="420" x2="949" y2="592"/>
	<line class="st0" x1="949" y1="420" x2="649" y2="420"/>
	<line class="st0" x1="949" y1="248" x2="649" y2="420"/>
	<line class="st0" x1="949" y1="76" x2="649" y2="420"/>
</g>
<g>
	<line class="st0" x1="949" y1="76" x2="1249" y2="76"/>
	<line class="st0" x1="1249" y1="248" x2="949" y2="76"/>
	<line class="st0" x1="1249" y1="420" x2="949" y2="76"/>
	<line class="st0" x1="1249" y1="592" x2="949" y2="76"/>
	<line class="st0" x1="949" y1="592" x2="1249" y2="592"/>
	<line class="st0" x1="1249" y1="420" x2="949" y2="592"/>
	<line class="st0" x1="1249" y1="248" x2="949" y2="592"/>
	<line class="st0" x1="1249" y1="76" x2="949" y2="592"/>
	<line class="st0" x1="949" y1="248" x2="1249" y2="76"/>
	<line class="st0" x1="1249" y1="248" x2="949" y2="248"/>
	<line class="st0" x1="1249" y1="420" x2="949" y2="248"/>
	<line class="st0" x1="1249" y1="592" x2="949" y2="248"/>
	<line class="st0" x1="949" y1="420" x2="1249" y2="592"/>
	<line class="st0" x1="1249" y1="420" x2="949" y2="420"/>
	<line class="st0" x1="1249" y1="248" x2="949" y2="420"/>
	<line class="st0" x1="1249" y1="76" x2="949" y2="420"/>
</g>
<g class="st1">
	<line class="st2" x1="1249" y1="76" x2="1549" y2="76"/>
	<line class="st2" x1="1549" y1="248" x2="1249" y2="76"/>
	<line class="st2" x1="1549" y1="420" x2="1249" y2="76"/>
	<line class="st2" x1="1549" y1="592" x2="1249" y2="76"/>
	<line class="st2" x1="1249" y1="592" x2="1549" y2="592"/>
	<line class="st2" x1="1549" y1="420" x2="1249" y2="592"/>
	<line class="st2" x1="1549" y1="248" x2="1249" y2="592"/>
	<line class="st2" x1="1549" y1="76" x2="1249" y2="592"/>
	<line class="st2" x1="1249" y1="248" x2="1549" y2="76"/>
	<line class="st2" x1="1549" y1="248" x2="1249" y2="248"/>
	<line class="st2" x1="1549" y1="420" x2="1249" y2="248"/>
	<line class="st2" x1="1549" y1="592" x2="1249" y2="248"/>
	<line class="st2" x1="1249" y1="420" x2="1549" y2="592"/>
	<line class="st2" x1="1549" y1="420" x2="1249" y2="420"/>
	<line class="st2" x1="1549" y1="248" x2="1249" y2="420"/>
	<line class="st2" x1="1549" y1="76" x2="1249" y2="420"/>
</g>
<g class="st1">
	<line class="st2" x1="1549" y1="76" x2="1849" y2="76"/>
	<line class="st2" x1="1849" y1="248" x2="1549" y2="76"/>
	<line class="st2" x1="1849" y1="420" x2="1549" y2="76"/>
	<line class="st2" x1="1849" y1="592" x2="1549" y2="76"/>
	<line class="st2" x1="1549" y1="592" x2="1849" y2="592"/>
	<line class="st2" x1="1849" y1="420" x2="1549" y2="592"/>
	<line class="st2" x1="1849" y1="248" x2="1549" y2="592"/>
	<line class="st2" x1="1849" y1="76" x2="1549" y2="592"/>
	<line class="st2" x1="1549" y1="248" x2="1849" y2="76"/>
	<line class="st2" x1="1849" y1="248" x2="1549" y2="248"/>
	<line class="st2" x1="1849" y1="420" x2="1549" y2="248"/>
	<line class="st2" x1="1849" y1="592" x2="1549" y2="248"/>
	<line class="st2" x1="1549" y1="420" x2="1849" y2="592"/>
	<line class="st2" x1="1849" y1="420" x2="1549" y2="420"/>
	<line class="st2" x1="1849" y1="248" x2="1549" y2="420"/>
	<line class="st2" x1="1849" y1="76" x2="1549" y2="420"/>
</g>
<g>
	<line class="st0" x1="1249" y1="75" x2="1547" y2="246"/>
	<line class="st0" x1="1547" y1="418" x2="1249" y2="75"/>
	<line class="st0" x1="1249" y1="247" x2="1547" y2="246"/>
	<line class="st0" x1="1249" y1="419" x2="1547" y2="418"/>
	<line class="st0" x1="1249" y1="591" x2="1547" y2="418"/>
	<line class="st0" x1="1547" y1="246" x2="1249" y2="419"/>
	<line class="st0" x1="1249" y1="592" x2="1547" y2="246"/>
	<line class="st0" x1="1547" y1="418" x2="1249" y2="246"/>
</g>
<g>
	<g>
		<ellipse class="st3" cx="75.1" cy="161.1" rx="67.6" ry="67.6"/>
		<path class="st4" d="M75.1,101c33.1,0,60.1,27,60.1,60.1s-27,60.1-60.1,60.1S15,194.2,15,161.1S42,101,75.1,101 M75.1,86
			C33.6,86,0,119.6,0,161.1s33.6,75.1,75.1,75.1s75.1-33.6,75.1-75.1S116.5,86,75.1,86L75.1,86z"/>
	</g>
	<g>
		<ellipse class="st3" cx="75" cy="332.9" rx="67.6" ry="67.6"/>
		<path class="st4" d="M75.1,272.8c33.1,0,60.1,27,60.1,60.1s-27,60.1-60.1,60.1S15,366,15,332.9S42,272.8,75.1,272.8 M75.1,257.8
			C33.6,257.8,0,291.5,0,332.9S33.6,408,75.1,408s75.1-33.6,75.1-75.1S116.5,257.8,75.1,257.8L75.1,257.8z"/>
	</g>
	<g>
		
			<ellipse transform="matrix(0.7071 -0.7071 0.7071 0.7071 -335.0905 201.0209)" class="st3" cx="75.1" cy="505" rx="67.6" ry="67.6"/>
		<path class="st4" d="M75.1,444.9c33.1,0,60.1,27,60.1,60.1s-27,60.1-60.1,60.1S15,538.1,15,505S42,444.9,75.1,444.9 M75.1,429.9
			C33.6,429.9,0,463.5,0,505s33.6,75.1,75.1,75.1s75.1-33.6,75.1-75.1S116.5,429.9,75.1,429.9L75.1,429.9z"/>
	</g>
</g>
<g>
	<g>
		<ellipse class="st5" cx="349" cy="75" rx="67.6" ry="67.6"/>
		<path class="st6" d="M349,14.9c33.1,0,60.1,27,60.1,60.1s-27,60.1-60.1,60.1s-60.1-27-60.1-60.1S315.8,14.9,349,14.9 M349-0.1
			c-41.5,0-75.1,33.6-75.1,75.1s33.6,75.1,75.1,75.1s75.1-33.6,75.1-75.1S390.4-0.1,349-0.1L349-0.1z"/>
	</g>
	<g>
		<ellipse class="st5" cx="349" cy="246.9" rx="67.6" ry="67.6"/>
		<path class="st6" d="M349,186.8c33.1,0,60.1,27,60.1,60.1S382.1,307,349,307s-60.1-27-60.1-60.1S315.8,186.8,349,186.8 M349,171.8
			c-41.5,0-75.1,33.6-75.1,75.1S307.5,322,349,322s75.1-33.6,75.1-75.1C424,205.5,390.4,171.8,349,171.8L349,171.8z"/>
	</g>
	<g>
		<ellipse class="st5" cx="349" cy="418.8" rx="67.6" ry="67.6"/>
		<path class="st6" d="M349,358.8c33.1,0,60.1,27,60.1,60.1S382.1,479,349,479s-60.1-27-60.1-60.1S315.8,358.8,349,358.8 M349,343.8
			c-41.5,0-75.1,33.6-75.1,75.1S307.5,494,349,494s75.1-33.6,75.1-75.1C424,377.4,390.4,343.8,349,343.8L349,343.8z"/>
	</g>
	<g>
		
			<ellipse transform="matrix(0.7071 -0.7071 0.7071 0.7071 -315.6143 419.8275)" class="st5" cx="349" cy="590.9" rx="67.6" ry="67.6"/>
		<path class="st6" d="M349,530.8c33.1,0,60.1,27,60.1,60.1S382.1,651,349,651s-60.1-27-60.1-60.1S315.8,530.8,349,530.8 M349,515.8
			c-41.5,0-75.1,33.6-75.1,75.1S307.5,666,349,666s75.1-33.6,75.1-75.1S390.4,515.8,349,515.8L349,515.8z"/>
	</g>
</g>
<g>
	<g>
		
			<ellipse transform="matrix(0.7071 -0.7071 0.7071 0.7071 136.8503 480.9584)" class="st5" cx="649" cy="75.3" rx="67.6" ry="67.6"/>
		<path class="st6" d="M649,15.2c33.1,0,60.1,27,60.1,60.1s-27,60.1-60.1,60.1s-60.1-27-60.1-60.1S615.9,15.2,649,15.2 M649,0.2
			c-41.5,0-75.1,33.6-75.1,75.1s33.6,75.1,75.1,75.1s75.1-33.6,75.1-75.1S690.4,0.2,649,0.2L649,0.2z"/>
	</g>
	<g>
		<ellipse class="st5" cx="649" cy="247.2" rx="67.6" ry="67.6"/>
		<path class="st6" d="M649,187.1c33.1,0,60.1,27,60.1,60.1s-27,60.1-60.1,60.1s-60.1-27-60.1-60.1S615.9,187.1,649,187.1
			 M649,172.1c-41.5,0-75.1,33.6-75.1,75.1s33.6,75.1,75.1,75.1s75.1-33.6,75.1-75.1C724.1,205.8,690.4,172.1,649,172.1L649,172.1z"
			/>
	</g>
	<g>
		
			<ellipse transform="matrix(0.7071 -0.7071 0.7071 0.7071 -106.2538 581.6644)" class="st5" cx="649" cy="419.1" rx="67.6" ry="67.6"/>
		<path class="st6" d="M649,359.1c33.1,0,60.1,27,60.1,60.1s-27,60.1-60.1,60.1s-60.1-27-60.1-60.1S615.9,359.1,649,359.1
			 M649,344.1c-41.5,0-75.1,33.6-75.1,75.1s33.6,75.1,75.1,75.1s75.1-33.6,75.1-75.1S690.4,344.1,649,344.1L649,344.1z"/>
	</g>
	<g>
		<ellipse class="st5" cx="649" cy="591.2" rx="67.6" ry="67.6"/>
		<path class="st6" d="M649,531.1c33.1,0,60.1,27,60.1,60.1s-27,60.1-60.1,60.1s-60.1-27-60.1-60.1S615.9,531.1,649,531.1
			 M649,516.1c-41.5,0-75.1,33.6-75.1,75.1s33.6,75.1,75.1,75.1s75.1-33.6,75.1-75.1C724.1,549.8,690.4,516.1,649,516.1L649,516.1z"
			/>
	</g>
</g>
<g>
	<g>
		<path class="st5" d="M948.9,142.3c-37.3,0-67.6-30.3-67.6-67.6s30.3-67.6,67.6-67.6s67.6,30.3,67.6,67.6S986.1,142.3,948.9,142.3z
			"/>
		<path class="st6" d="M948.9,14.6c33.1,0,60.1,27,60.1,60.1s-27,60.1-60.1,60.1s-60.1-27-60.1-60.1S915.8,14.6,948.9,14.6
			 M948.9-0.4c-41.5,0-75.1,33.6-75.1,75.1s33.6,75.1,75.1,75.1s75.1-33.6,75.1-75.1S990.3-0.4,948.9-0.4L948.9-0.4z"/>
	</g>
	<g>
		<path class="st5" d="M948.9,314.2c-37.3,0-67.6-30.3-67.6-67.6s30.3-67.6,67.6-67.6s67.6,30.3,67.6,67.6S986.1,314.2,948.9,314.2z
			"/>
		<path class="st6" d="M948.9,186.6c33.1,0,60.1,27,60.1,60.1s-27,60.1-60.1,60.1s-60.1-27-60.1-60.1S915.8,186.6,948.9,186.6
			 M948.9,171.6c-41.5,0-75.1,33.6-75.1,75.1s33.6,75.1,75.1,75.1s75.1-33.6,75.1-75.1S990.3,171.6,948.9,171.6L948.9,171.6z"/>
	</g>
	<g>
		<path class="st5" d="M948.9,486.1c-37.3,0-67.6-30.3-67.6-67.6s30.3-67.6,67.6-67.6s67.6,30.3,67.6,67.6S986.1,486.1,948.9,486.1z
			"/>
		<path class="st6" d="M948.9,358.5c33.1,0,60.1,27,60.1,60.1s-27,60.1-60.1,60.1s-60.1-27-60.1-60.1S915.8,358.5,948.9,358.5
			 M948.9,343.5c-41.5,0-75.1,33.6-75.1,75.1s33.6,75.1,75.1,75.1s75.1-33.6,75.1-75.1S990.3,343.5,948.9,343.5L948.9,343.5z"/>
	</g>
	<g>
		<path class="st5" d="M948.9,658.2c-37.3,0-67.6-30.3-67.6-67.6s30.3-67.6,67.6-67.6s67.6,30.3,67.6,67.6S986.1,658.2,948.9,658.2z
			"/>
		<path class="st6" d="M948.9,530.6c33.1,0,60.1,27,60.1,60.1s-27,60.1-60.1,60.1s-60.1-27-60.1-60.1S915.8,530.6,948.9,530.6
			 M948.9,515.6c-41.5,0-75.1,33.6-75.1,75.1s33.6,75.1,75.1,75.1s75.1-33.6,75.1-75.1C1024,549.2,990.3,515.6,948.9,515.6
			L948.9,515.6z"/>
	</g>
</g>
<g>
	<g>
		<path class="st5" d="M1248.9,142.7c-37.3,0-67.6-30.3-67.6-67.6s30.3-67.6,67.6-67.6c37.3,0,67.6,30.3,67.6,67.6
			C1316.5,112.3,1286.2,142.7,1248.9,142.7z"/>
		<path class="st6" d="M1248.9,15c33.1,0,60.1,27,60.1,60.1s-27,60.1-60.1,60.1s-60.1-27-60.1-60.1S1215.8,15,1248.9,15 M1248.9,0
			c-41.5,0-75.1,33.6-75.1,75.1s33.6,75.1,75.1,75.1s75.1-33.6,75.1-75.1S1290.4,0,1248.9,0L1248.9,0z"/>
	</g>
	<g>
		<path class="st5" d="M1248.9,314.6c-37.3,0-67.6-30.3-67.6-67.6s30.3-67.6,67.6-67.6c37.3,0,67.6,30.3,67.6,67.6
			S1286.2,314.6,1248.9,314.6z"/>
		<path class="st6" d="M1248.9,186.9c33.1,0,60.1,27,60.1,60.1s-27,60.1-60.1,60.1s-60.1-27-60.1-60.1S1215.8,186.9,1248.9,186.9
			 M1248.9,171.9c-41.5,0-75.1,33.6-75.1,75.1s33.6,75.1,75.1,75.1s75.1-33.6,75.1-75.1S1290.4,171.9,1248.9,171.9L1248.9,171.9z"/>
	</g>
	<g>
		<path class="st5" d="M1248.9,486.5c-37.3,0-67.6-30.3-67.6-67.6s30.3-67.6,67.6-67.6c37.3,0,67.6,30.3,67.6,67.6
			S1286.2,486.5,1248.9,486.5z"/>
		<path class="st6" d="M1248.9,358.8c33.1,0,60.1,27,60.1,60.1s-27,60.1-60.1,60.1s-60.1-27-60.1-60.1S1215.8,358.8,1248.9,358.8
			 M1248.9,343.8c-41.5,0-75.1,33.6-75.1,75.1s33.6,75.1,75.1,75.1s75.1-33.6,75.1-75.1C1324,377.5,1290.4,343.8,1248.9,343.8
			L1248.9,343.8z"/>
	</g>
	<g>
		<path class="st5" d="M1248.9,658.6c-37.3,0-67.6-30.3-67.6-67.6s30.3-67.6,67.6-67.6c37.3,0,67.6,30.3,67.6,67.6
			S1286.2,658.6,1248.9,658.6z"/>
		<path class="st6" d="M1248.9,530.9c33.1,0,60.1,27,60.1,60.1s-27,60.1-60.1,60.1s-60.1-27-60.1-60.1S1215.8,530.9,1248.9,530.9
			 M1248.9,515.9c-41.5,0-75.1,33.6-75.1,75.1s33.6,75.1,75.1,75.1s75.1-33.6,75.1-75.1S1290.4,515.9,1248.9,515.9L1248.9,515.9z"/>
	</g>
</g>
<g class="st1">
	<g class="st7">
		<circle class="st5" cx="1549.5" cy="75.5" r="67.6"/>
		<path class="st6" d="M1549.5,15.4c33.1,0,60.1,27,60.1,60.1s-27,60.1-60.1,60.1s-60.1-27-60.1-60.1S1516.3,15.4,1549.5,15.4
			 M1549.5,0.4c-41.5,0-75.1,33.6-75.1,75.1s33.6,75.1,75.1,75.1s75.1-33.6,75.1-75.1S1590.9,0.4,1549.5,0.4L1549.5,0.4z"/>
	</g>
	<g class="st7">
		<circle class="st5" cx="1549.5" cy="247.4" r="67.6"/>
		<path class="st6" d="M1549.5,187.3c33.1,0,60.1,27,60.1,60.1s-27,60.1-60.1,60.1s-60.1-27-60.1-60.1S1516.3,187.3,1549.5,187.3
			 M1549.5,172.3c-41.5,0-75.1,33.6-75.1,75.1s33.6,75.1,75.1,75.1s75.1-33.6,75.1-75.1C1624.5,205.9,1590.9,172.3,1549.5,172.3
			L1549.5,172.3z"/>
	</g>
	<g class="st7">
		<circle class="st5" cx="1549.5" cy="419.3" r="67.6"/>
		<path class="st6" d="M1549.5,359.2c33.1,0,60.1,27,60.1,60.1s-27,60.1-60.1,60.1s-60.1-27-60.1-60.1S1516.3,359.2,1549.5,359.2
			 M1549.5,344.2c-41.5,0-75.1,33.6-75.1,75.1s33.6,75.1,75.1,75.1s75.1-33.6,75.1-75.1S1590.9,344.2,1549.5,344.2L1549.5,344.2z"/>
	</g>
	<g class="st7">
		<circle class="st5" cx="1549.5" cy="591.4" r="67.6"/>
		<path class="st6" d="M1549.5,531.3c33.1,0,60.1,27,60.1,60.1s-27,60.1-60.1,60.1s-60.1-27-60.1-60.1S1516.3,531.3,1549.5,531.3
			 M1549.5,516.3c-41.5,0-75.1,33.6-75.1,75.1s33.6,75.1,75.1,75.1s75.1-33.6,75.1-75.1S1590.9,516.3,1549.5,516.3L1549.5,516.3z"/>
	</g>
</g>
<g class="st1">
	<g class="st7">
		<path class="st5" d="M1849.1,142.5c-37.3,0-67.6-30.3-67.6-67.6s30.3-67.6,67.6-67.6c37.3,0,67.6,30.3,67.6,67.6
			S1886.4,142.5,1849.1,142.5z"/>
		<path class="st6" d="M1849.1,14.8c33.1,0,60.1,27,60.1,60.1s-27,60.1-60.1,60.1s-60.1-27-60.1-60.1S1816,14.8,1849.1,14.8
			 M1849.1-0.2c-41.5,0-75.1,33.6-75.1,75.1s33.6,75.1,75.1,75.1s75.1-33.6,75.1-75.1S1890.6-0.2,1849.1-0.2L1849.1-0.2z"/>
	</g>
	<g class="st7">
		<path class="st5" d="M1849.1,314.4c-37.3,0-67.6-30.3-67.6-67.6s30.3-67.6,67.6-67.6c37.3,0,67.6,30.3,67.6,67.6
			S1886.4,314.4,1849.1,314.4z"/>
		<path class="st6" d="M1849.1,186.8c33.1,0,60.1,27,60.1,60.1s-27,60.1-60.1,60.1s-60.1-27-60.1-60.1S1816,186.8,1849.1,186.8
			 M1849.1,171.8c-41.5,0-75.1,33.6-75.1,75.1s33.6,75.1,75.1,75.1s75.1-33.6,75.1-75.1S1890.6,171.8,1849.1,171.8L1849.1,171.8z"/>
	</g>
	<g class="st7">
		<path class="st5" d="M1849.1,486.3c-37.3,0-67.6-30.3-67.6-67.6s30.3-67.6,67.6-67.6c37.3,0,67.6,30.3,67.6,67.6
			S1886.4,486.3,1849.1,486.3z"/>
		<path class="st6" d="M1849.1,358.7c33.1,0,60.1,27,60.1,60.1s-27,60.1-60.1,60.1s-60.1-27-60.1-60.1S1816,358.7,1849.1,358.7
			 M1849.1,343.7c-41.5,0-75.1,33.6-75.1,75.1s33.6,75.1,75.1,75.1s75.1-33.6,75.1-75.1S1890.6,343.7,1849.1,343.7L1849.1,343.7z"/>
	</g>
	<g class="st7">
		<path class="st5" d="M1849.1,658.4c-37.3,0-67.6-30.3-67.6-67.6s30.3-67.6,67.6-67.6c37.3,0,67.6,30.3,67.6,67.6
			S1886.4,658.4,1849.1,658.4z"/>
		<path class="st6" d="M1849.1,530.8c33.1,0,60.1,27,60.1,60.1s-27,60.1-60.1,60.1s-60.1-27-60.1-60.1S1816,530.8,1849.1,530.8
			 M1849.1,515.8c-41.5,0-75.1,33.6-75.1,75.1s33.6,75.1,75.1,75.1s75.1-33.6,75.1-75.1S1890.6,515.8,1849.1,515.8L1849.1,515.8z"/>
	</g>
</g>
<g>
	<g>
		<circle class="st5" cx="1547" cy="246.5" r="67.6"/>
		<path class="st8" d="M1547,186.4c33.1,0,60.1,27,60.1,60.1s-27,60.1-60.1,60.1s-60.1-27-60.1-60.1S1513.9,186.4,1547,186.4
			 M1547,171.4c-41.5,0-75.1,33.6-75.1,75.1s33.6,75.1,75.1,75.1s75.1-33.6,75.1-75.1S1588.5,171.4,1547,171.4L1547,171.4z"/>
	</g>
	<g>
		<circle class="st5" cx="1547" cy="418.4" r="67.6"/>
		<path class="st8" d="M1547,358.3c33.1,0,60.1,27,60.1,60.1s-27,60.1-60.1,60.1s-60.1-27-60.1-60.1S1513.9,358.3,1547,358.3
			 M1547,343.3c-41.5,0-75.1,33.6-75.1,75.1s33.6,75.1,75.1,75.1s75.1-33.6,75.1-75.1S1588.5,343.3,1547,343.3L1547,343.3z"/>
	</g>
</g>
</svg>
