<?xml version="1.0" encoding="utf-8"?>
<!-- Generator: Adobe Illustrator 25.4.1, SVG Export Plug-In . SVG Version: 6.00 Build 0)  -->
<svg version="1.1" id="Слой_1" xmlns="http://www.w3.org/2000/svg" xmlns:xlink="http://www.w3.org/1999/xlink" x="0px" y="0px"
	 viewBox="0 0 500 500" style="enable-background:new 0 0 500 500;" xml:space="preserve">
<style type="text/css">
	.st0{fill:url(#SVGID_1_);stroke:url(#SVGID_00000176008854106058348500000001030472216083101329_);}
	.st1{display:none;}
	.st2{display:inline;}
	.st3{fill:#FFFFFF;}
</style>
<linearGradient id="SVGID_1_" gradientUnits="userSpaceOnUse" x1="250" y1="500" x2="250" y2="0" gradientTransform="matrix(1 0 0 -1 0 500)">
	<stop  offset="0" style="stop-color:#000000"/>
	<stop  offset="0" style="stop-color:#2D0000"/>
	<stop  offset="0" style="stop-color:#9D0000"/>
	<stop  offset="0" style="stop-color:#FFA300"/>
	<stop  offset="0.2907" style="stop-color:#F69B00"/>
	<stop  offset="0.7557" style="stop-color:#DF8400"/>
	<stop  offset="1" style="stop-color:#D07600"/>
</linearGradient>
<linearGradient id="SVGID_00000051369753594275228920000015168105220007094182_" gradientUnits="userSpaceOnUse" x1="72.8698" y1="427.1302" x2="427.1302" y2="72.8698" gradientTransform="matrix(1 0 0 -1 0 500)">
	<stop  offset="0" style="stop-color:#000000"/>
	<stop  offset="0" style="stop-color:#002D05"/>
	<stop  offset="0" style="stop-color:#009D13"/>
	<stop  offset="0" style="stop-color:#00E91C"/>
	<stop  offset="0.2488" style="stop-color:#05D150"/>
	<stop  offset="0.8155" style="stop-color:#1193D3"/>
	<stop  offset="1" style="stop-color:#157FFF"/>
	<stop  offset="1" style="stop-color:#5E5E5E"/>
</linearGradient>
<circle style="fill:url(#SVGID_1_);stroke:url(#SVGID_00000051369753594275228920000015168105220007094182_);" cx="250" cy="250" r="250"/>
<g id="pxYc0G.tif" class="st1">
	<g class="st2">
		<path class="st3" d="M140.2,286.1c18.7,0,37.4,0,56.1,0c3.4,0,6.7,0,10.2,0c0,3.2,0,6.3,0,9.6c-0.6,0-1.2,0-1.8,0
			c-8.9,0-17.7,0-26.6,0c-1.4,0-1.9,0.4-1.8,1.8c0.1,7.6,0,15.1,0,22.7c0,1.1,0.3,1.7,1.3,2.1c19.6,7.8,39.2,15.7,58.8,23.5
			c0.3,0.1,0.7,0.2,1.2,0.4c0-63.1,0-126,0-189.2c-0.7,0-1.3,0-1.9,0c-6.5,0-12.9,0-19.4,0c-0.9,0-1.9-0.3-2.7-0.9
			c-7.8-5.9-15.6-11.8-23.5-17.7c-0.4-0.3-0.8-0.6-1.4-1c-13.5,16.2-26.9,32.4-40.5,48.8c-1.4-1.2-2.8-2.3-4.3-3.6
			c26.7-32.2,53.3-64.2,80-96.4c1.4,1.2,2.8,2.3,4.3,3.6c-12.4,14.9-24.7,29.7-37.1,44.7c1.2,0.9,2.3,1.8,3.3,2.6
			c6.8,5.1,13.5,10.3,20.4,15.3c0.7,0.5,1.8,0.9,2.7,0.9c6.1,0.1,12.1,0,18.2,0.1c1.5,0,2.3-0.3,2-2c-0.1-0.7,0-1.3,0-2.3
			c3.4,0.5,6.7-0.3,10,0.5c2.4,0.6,5.1,0.2,7.7,0.1c0.2,0,0.5-0.5,0.5-0.8c0.1-0.4,0-0.8,0-1.2c0-18.7,0-37.4,0-56.2
			c0-0.6,0-1.2,0-1.8c-0.7-0.2-1.2-0.3-1.7-0.4c-2.6-0.8-4.1-3-3.9-5.8c0.1-2.5,2-4.6,4.4-5c2.7-0.5,5.2,0.8,6.3,3.2
			c1.1,2.4,0.4,5.3-1.8,6.8c-1.3,0.8-1.5,1.7-1.5,3c0,19.3,0,38.7,0,58c0,0.7,0,1.3,0,2.1c-3.1,0-5.9,0.1-8.8,0
			c-1.4,0-1.7,0.4-1.7,1.8c0,14,0,28,0,42c0,1.4,0.4,1.7,1.7,1.7c17.6,0,35.2,0,52.8,0c1.4,0,1.7-0.4,1.7-1.8c0-12.1,0-24.2,0-36.3
			c0-0.7,0-1.3,0-2.1c3.3,0,6.4,0,9.5,0c0,16.5,0,33,0,49.7c-0.7,0-1.4,0-2.2,0c-20.5,0-41,0-61.5,0c-2.1,0-2.1,0-2.1,2.1
			c0,35.5,0,71,0,106.6c0,2,0,2,2,2c20.7,0,41.3,0,62,0c2,0,2,0,2-2c0-1.6-0.1-3.1,0-4.7c0.2-1.6-0.4-2.2-1.9-2.7
			c-12.4-3.7-24.7-7.4-37.1-11.1c-0.9-0.3-1.4-0.5-1.4-1.6c0-16.2,0-32.5,0-48.7c0-0.4,0.1-0.7,0.1-1.2c28.9,0,57.7,0,86.7,0
			c0,0.5,0.1,1.1,0.1,1.6c0,16,0,31.9,0,47.9c0,1.2-0.3,1.7-1.5,2.1c-11.2,3.6-22.3,7.4-33.4,11c-1.5,0.5-1.9,1.2-1.9,2.7
			c0.1,5.4,0,10.8,0,16.3c-0.8,0-1.5,0.1-2.2,0.1c-23.8,0-47.5,0-71.3,0c-2.3,0-2.3,0-2.3,2.3c0,41.3,0,82.7,0,124
			c0,2.3,0,2.3,2.2,2.3c32.8,0,65.6,0,98.3,0c0.7,0,1.3,0,2.1,0c0,2.8,0,5.5,0,8.3c-67.6,0-135.1,0-202.9,0c0-1.4,0-2.7,0-4
			s0-2.7,0-4.3c0.8,0,1.4,0,2.1,0c28.8,0,57.6,0,86.4,0c2.1,0,2.1,0,2.1-2.1c0-31.6,0-63.2,0-94.8c0-1.4-0.4-2.1-1.7-2.6
			c-22.7-9-45.3-18.1-68-27.2c-1.2-0.5-1.5-1.1-1.5-2.3c0-9.6,0-19.3,0-28.9c0-2.1,0-2.1-2.2-2.1c-8.1,0-16.2,0-24.2,0
			C140.2,292.5,140.2,289.3,140.2,286.1z M282.9,286.6c22.6,0,44.9,0,67.3,0c0-10.5,0-20.9,0-31.4c-22.5,0-44.9,0-67.3,0
			C282.9,265.7,282.9,276.1,282.9,286.6z"/>
		<path class="st3" d="M140.2,209.5c0.7,0,1.3,0.1,2,0.1c20.8,0,41.6,0,62.4,0c0.6,0,1.2,0,1.9,0c0,3.3,0,6.4,0,9.8
			c-0.6,0-1.3,0-1.9,0c-20.8,0-41.6,0-62.4,0c-0.7,0-1.3,0-2,0.1C140.2,216.2,140.2,212.8,140.2,209.5z"/>
		<path class="st3" d="M140.2,247.8c18.7,0,37.4,0,56.1,0c3.4,0,6.7,0,10.2,0c0,3.2,0,6.4,0,9.8c-0.7,0-1.3,0-2,0
			c-20.8,0-41.5,0-62.3,0c-0.7,0-1.3,0.1-2,0.1C140.2,254.4,140.2,251.1,140.2,247.8z"/>
		<path class="st3" d="M140.2,266.8c0.7,0,1.3,0.1,2,0.1c20.8,0,41.5,0,62.3,0c0.7,0,1.3,0,2.1,0c0,3.3,0,6.5,0,9.8
			c-0.7,0-1.4,0-2,0c-20.8,0-41.5,0-62.3,0c-0.7,0-1.3,0-2,0C140.2,273.4,140.2,270.1,140.2,266.8z"/>
		<path class="st3" d="M140.2,228.8c21.7,0,43.5,0,65.2,0c0.3,0,0.7,0.1,1.1,0.1c0,3.2,0,6.3,0,9.5c-0.7,0-1.4,0-2,0
			c-20.8,0-41.5,0-62.3,0c-0.7,0-1.3,0-2,0C140.2,235.2,140.2,232,140.2,228.8z"/>
		<path class="st3" d="M257.1,10.7c0.7,0.3,1.3,0.7,2,1c36.8,14.9,60.5,41.5,71.1,79.8c0.1,0.2,0.1,0.4,0.1,0.6
			c-0.2,0.1-0.4,0.3-0.6,0.3c-0.9,0.2-1.9,0.5-2.8,0.7c-10.7-38.3-34.4-64.5-71.5-78.9c0.4-1.1,0.8-2.3,1.3-3.4
			C256.9,10.7,257,10.7,257.1,10.7z"/>
		<path class="st3" d="M336.5,168.8c-7,0-12.6-5.6-12.5-12.6s5.8-12.6,12.6-12.5c7,0.1,12.5,5.6,12.4,12.6
			C349.1,163.4,343.6,168.8,336.5,168.8z"/>
		<path class="st3" d="M282.7,168.8c-7,0-12.5-5.5-12.5-12.6c0-6.9,5.7-12.5,12.6-12.5c7,0.1,12.5,5.7,12.5,12.6
			C295.2,163.4,289.7,168.8,282.7,168.8z"/>
		<path class="st3" d="M308.4,92.6c-1.1,0.3-2.1,0.6-3.3,0.9c-8.2-27.5-25.5-46.7-52.2-57.6c0.4-1.1,0.8-2.2,1.2-3.4
			C268,38,280,46.1,289.7,57.3C298.2,67,307.5,84.5,308.4,92.6z"/>
		<path class="st3" d="M210.3,87.3c0.6,0.5,0.9,0.8,1.3,1.2c-23.2,27.5-46.4,55-69.6,82.5c-0.4-0.4-0.9-0.7-1.4-1.1
			C163.8,142.4,187,114.9,210.3,87.3z"/>
		<path class="st3" d="M286.6,92.9c-1.2,0.4-2.2,0.7-3.4,1.1c-2.8-8.1-6.6-15.6-12.4-21.9c-5.7-6.4-12.7-10.9-20.5-14.5
			c0.1-0.3,0.1-0.5,0.2-0.7c0.4-0.8,0.8-1.7,1.2-2.7C269.2,61.9,280.8,74.7,286.6,92.9z"/>
	</g>
</g>
<g>
	<path class="st3" d="M268.1,347.5c0-53.4,0-106.3,0-159.5c-1.2-0.1-2.3-0.3-3.3-0.3c-15.1,0-30.2,0.1-45.3-0.1
		c-3.5,0-4.5,1.1-4.4,4.5c0.2,7.5-0.1,15.1,0.2,22.6c0.1,2,1.3,4,2.4,5.8c0.8,1.3,2.2,2.1,3.2,3.3c4.9,6.3,10.8,9.6,19.3,8.8
		c6.6-0.6,11,4.6,11,11.5c0,6,0.1,12,0,18c-0.1,6.6-5,11.5-11.7,11.6c-19.4,0.1-38.9,0.1-58.3,0c-7.7,0-12.2-4.7-12.2-12.3
		c0-6,0-12,0-18c0.1-5.8,4.2-10.3,10-10.8c0.4,0,0.9-0.2,1.3-0.1c12,2.7,17-7.2,23.9-13.6c0.7-0.6,0.8-2,0.8-3.1
		c0.1-8.2-0.1-16.5,0.1-24.7c0.1-2.9-1.2-3.5-3.8-3.4c-4.9,0.1-9.8,0.4-14.7-0.1c-2.2-0.2-5.1-1.4-6.1-3.1c-0.8-1.4,0.3-4.6,1.6-6.2
		c12.1-14.8,24.5-29.4,36.6-44.1c2.2-2.6,4.7-3,7.8-3c42.8,0,85.6,0,128.3,0.1c4.1,0,5.7-0.8,5.6-5.2c-0.2-4.2,2.8-7.3,7-7.3
		c14.7-0.2,29.3-0.3,44-0.1c5,0.1,7.6,3.2,7.6,8.2c0.1,21.4,0.1,42.7,0,64.1c0,4.9-3.2,8.2-8.1,8.2c-14.1,0.1-28.2,0.1-42.4,0
		c-5,0-8.1-2.9-8.3-8c-0.1-2.7-1.1-3.6-3.8-3.6c-9.8,0.1-19.6,0.1-29.4,0c-2.7,0-3.6,0.8-3.6,3.6c0.1,51.1,0.1,102.2,0.1,153.4
		c0,0.8,0.1,1.6,0.2,2.7c1.6,0.1,2.9,0.2,4.3,0.2c9.6,0,19.3,0,28.9,0c4.3,0,6.4,1.9,6.5,5.9c0.1,7.4,0.1,14.8,0,22.2
		c0,3.2-1.7,5.2-5,5.7c-1.2,0.2-2.5,0.3-3.7,0.3c-38.9,0-77.7,0-116.6,0c-8.5,0-9.6-1.1-9.6-9.7c0-6-0.1-12,0-18
		c0.1-4.5,1.9-6.3,6.4-6.4C245.8,347.4,256.7,347.5,268.1,347.5z M279,188.3c0,53.1,0,105.7,0,158.7c11.4,0,22.6,0,33.9,0
		c0-53,0-105.7,0-158.7C301.6,188.3,290.5,188.3,279,188.3z M408.3,188.2c0-20,0-39.6,0-59.2c-12.8,0-25.1,0-37.7,0
		c0,19.9,0,39.4,0,59.2C383.3,188.2,395.7,188.2,408.3,188.2z M239.5,370.6c37.9,0,75.4,0,112.8,0c0-4.4,0-8.5,0-12.6
		c-37.8,0-75.3,0-112.8,0C239.5,362.4,239.5,366.4,239.5,370.6z M240.1,243c-20.3,0-40.2,0-60.2,0c0,6.7,0,13.2,0,19.6
		c20.2,0,40.1,0,60.2,0C240.1,256,240.1,249.7,240.1,243z M297.3,145.8c-10.4,10.1-21.4,20.8-32.2,31.3c21,0,42.4,0,63.5,0
		C317.8,166.2,307,155.5,297.3,145.8z M249.7,177.2c-9.1-11.3-17.4-21.7-26.2-32.6c-9.2,11.1-17.9,21.5-27.2,32.6
		C214.7,177.2,231.5,177.2,249.7,177.2z M234.6,141.6c7.6,9.5,14.7,18.3,21.2,26.4c9.1-8.9,17.9-17.6,26.8-26.4
		C267.1,141.6,251.4,141.6,234.6,141.6z M350.8,141.7c-13.9,0-26.9,0-39.6,0c8.4,8.3,16.8,16.6,25.3,25.1
		C341,159,345.7,150.6,350.8,141.7z M359.4,149.8c-0.3-0.2-0.6-0.3-0.9-0.5c-5.2,9.1-10.4,18.1-15.9,27.8c6.2,0,11.4,0,16.8,0
		C359.4,167.8,359.4,158.8,359.4,149.8z"/>
	<path class="st3" d="M129.3,291.2c9.6,0,18.3,0,27.6,0c0-5.7,0-11.2,0-17c3.6,0,6.7,0,10.1,0c0,34.4,0,68.8,0,103.4
		c-28.6,0-57.2,0-86,0c0-55,0-109.8,0-164.8c3.3,0,6.4,0,10,0c0,4.7,0,9.3,0,13.9c0,9.1,0.1,18.1-0.1,27.2c0,2.7,0.6,3.7,3.5,3.6
		c7.9-0.2,15.9-0.1,24.1-0.1c0-4.3,0-8.3,0-12.6c3.6,0,6.9,0,10.6,0C129.3,260,129.3,275.4,129.3,291.2z M91.1,339.3
		c0,9-0.1,17.6,0.1,26.2c0,0.7,2.1,1.9,3.2,1.9c6.4,0.2,12.9-0.3,19.3,0.2c4.5,0.3,5.6-1.3,5.1-5.4c-0.3-2.6-0.1-5.3-0.1-7.9
		c0-5,0-9.9,0-15C109.4,339.3,100.6,339.3,91.1,339.3z M156.7,339.6c-9.3,0-18.1,0-26.9,0c0,9.4,0,18.4,0,27.6c9.1,0,17.9,0,26.9,0
		C156.7,357.8,156.7,348.8,156.7,339.6z M91,301.7c0,8.7-0.1,16.8,0.1,24.8c0,0.8,1.9,2.2,2.9,2.3c7.4,0.2,14.8,0.2,22.2,0
		c1,0,2.6-1.6,2.7-2.4c0.2-7.4,0.2-14.8,0-22.1c0-0.9-1.4-2.4-2.2-2.4C108.3,301.6,100,301.7,91,301.7z M129.6,328.7
		c8.6,0,16.9,0.1,25.1-0.1c0.8,0,2.3-1.6,2.3-2.4c0.2-7.9,0.1-15.8,0.1-24.1c-9.3,0-18.3,0-27.4,0
		C129.6,310.9,129.6,319.5,129.6,328.7z M91.5,291c9.2,0,18.1,0,26.9,0c0-7.8,0-15.4,0-22.9c-9.1,0-17.8,0-26.9,0
		C91.5,275.8,91.5,283.2,91.5,291z"/>
</g>
</svg>
