<?xml version="1.0" encoding="utf-8"?>
<!-- Generator: Adobe Illustrator 25.4.1, SVG Export Plug-In . SVG Version: 6.00 Build 0)  -->
<svg version="1.1" id="Слой_1" xmlns="http://www.w3.org/2000/svg" xmlns:xlink="http://www.w3.org/1999/xlink" x="0px" y="0px"
	 viewBox="0 0 500 500" style="enable-background:new 0 0 500 500;" xml:space="preserve">
<style type="text/css">
	.st0{fill:url(#SVGID_1_);stroke:url(#SVGID_00000088848423844839120660000009860492956322283438_);}
	.st1{display:none;}
	.st2{display:inline;}
	.st3{fill:#FFFFFF;}
</style>
<image style="display:none;overflow:visible;enable-background:new    ;" width="436" height="500" xlink:href="../PycharmProjects/hackathon/templates/static/img/data.png"  transform="matrix(1 0 0 1 32 0)">
</image>
<linearGradient id="SVGID_1_" gradientUnits="userSpaceOnUse" x1="250" y1="500" x2="250" y2="0" gradientTransform="matrix(1 0 0 -1 0 500)">
	<stop  offset="0" style="stop-color:#000000"/>
	<stop  offset="0" style="stop-color:#2D0000"/>
	<stop  offset="0" style="stop-color:#9D0000"/>
	<stop  offset="0" style="stop-color:#1700E9"/>
	<stop  offset="8.142436e-02" style="stop-color:#141DEC"/>
	<stop  offset="0.2676" style="stop-color:#0E59F2"/>
	<stop  offset="0.4467" style="stop-color:#098CF6"/>
	<stop  offset="0.6141" style="stop-color:#05B3FA"/>
	<stop  offset="0.7671" style="stop-color:#02CFFD"/>
	<stop  offset="0.9006" style="stop-color:#01E0FE"/>
	<stop  offset="1" style="stop-color:#00E6FF"/>
</linearGradient>
<linearGradient id="SVGID_00000124124961409764990860000010866466164275633331_" gradientUnits="userSpaceOnUse" x1="72.8698" y1="427.1302" x2="427.1302" y2="72.8698" gradientTransform="matrix(1 0 0 -1 0 500)">
	<stop  offset="0" style="stop-color:#000000"/>
	<stop  offset="0" style="stop-color:#002D05"/>
	<stop  offset="0" style="stop-color:#009D13"/>
	<stop  offset="0" style="stop-color:#00E91C"/>
	<stop  offset="0.2488" style="stop-color:#05D150"/>
	<stop  offset="0.8155" style="stop-color:#1193D3"/>
	<stop  offset="1" style="stop-color:#157FFF"/>
	<stop  offset="1" style="stop-color:#5E5E5E"/>
</linearGradient>
<circle style="fill:url(#SVGID_1_);stroke:url(#SVGID_00000124124961409764990860000010866466164275633331_);" cx="250" cy="250" r="250"/>
<g id="pxYc0G.tif" class="st1">
	<g class="st2">
		<path class="st3" d="M140.2,286.1c18.7,0,37.4,0,56.1,0c3.4,0,6.7,0,10.2,0c0,3.2,0,6.3,0,9.6c-0.6,0-1.2,0-1.8,0
			c-8.9,0-17.7,0-26.6,0c-1.4,0-1.9,0.4-1.8,1.8c0.1,7.6,0,15.1,0,22.7c0,1.1,0.3,1.7,1.3,2.1c19.6,7.8,39.2,15.7,58.8,23.5
			c0.3,0.1,0.7,0.2,1.2,0.4c0-63.1,0-126,0-189.2c-0.7,0-1.3,0-1.9,0c-6.5,0-12.9,0-19.4,0c-0.9,0-1.9-0.3-2.7-0.9
			c-7.8-5.9-15.6-11.8-23.5-17.7c-0.4-0.3-0.8-0.6-1.4-1c-13.5,16.2-26.9,32.4-40.5,48.8c-1.4-1.2-2.8-2.3-4.3-3.6
			c26.7-32.2,53.3-64.2,80-96.4c1.4,1.2,2.8,2.3,4.3,3.6c-12.4,14.9-24.7,29.7-37.1,44.7c1.2,0.9,2.3,1.8,3.3,2.6
			c6.8,5.1,13.5,10.3,20.4,15.3c0.7,0.5,1.8,0.9,2.7,0.9c6.1,0.1,12.1,0,18.2,0.1c1.5,0,2.3-0.3,2-2c-0.1-0.7,0-1.3,0-2.3
			c3.4,0.5,6.7-0.3,10,0.5c2.4,0.6,5.1,0.2,7.7,0.1c0.2,0,0.5-0.5,0.5-0.8c0.1-0.4,0-0.8,0-1.2c0-18.7,0-37.4,0-56.2
			c0-0.6,0-1.2,0-1.8c-0.7-0.2-1.2-0.3-1.7-0.4c-2.6-0.8-4.1-3-3.9-5.8c0.1-2.5,2-4.6,4.4-5c2.7-0.5,5.2,0.8,6.3,3.2
			c1.1,2.4,0.4,5.3-1.8,6.8c-1.3,0.8-1.5,1.7-1.5,3c0,19.3,0,38.7,0,58c0,0.7,0,1.3,0,2.1c-3.1,0-5.9,0.1-8.8,0
			c-1.4,0-1.7,0.4-1.7,1.8c0,14,0,28,0,42c0,1.4,0.4,1.7,1.7,1.7c17.6,0,35.2,0,52.8,0c1.4,0,1.7-0.4,1.7-1.8c0-12.1,0-24.2,0-36.3
			c0-0.7,0-1.3,0-2.1c3.3,0,6.4,0,9.5,0c0,16.5,0,33,0,49.7c-0.7,0-1.4,0-2.2,0c-20.5,0-41,0-61.5,0c-2.1,0-2.1,0-2.1,2.1
			c0,35.5,0,71,0,106.6c0,2,0,2,2,2c20.7,0,41.3,0,62,0c2,0,2,0,2-2c0-1.6-0.1-3.1,0-4.7c0.2-1.6-0.4-2.2-1.9-2.7
			c-12.4-3.7-24.7-7.4-37.1-11.1c-0.9-0.3-1.4-0.5-1.4-1.6c0-16.2,0-32.5,0-48.7c0-0.4,0.1-0.7,0.1-1.2c28.9,0,57.7,0,86.7,0
			c0,0.5,0.1,1.1,0.1,1.6c0,16,0,31.9,0,47.9c0,1.2-0.3,1.7-1.5,2.1c-11.2,3.6-22.3,7.4-33.4,11c-1.5,0.5-1.9,1.2-1.9,2.7
			c0.1,5.4,0,10.8,0,16.3c-0.8,0-1.5,0.1-2.2,0.1c-23.8,0-47.5,0-71.3,0c-2.3,0-2.3,0-2.3,2.3c0,41.3,0,82.7,0,124
			c0,2.3,0,2.3,2.2,2.3c32.8,0,65.6,0,98.3,0c0.7,0,1.3,0,2.1,0c0,2.8,0,5.5,0,8.3c-67.6,0-135.1,0-202.9,0c0-1.4,0-2.7,0-4
			s0-2.7,0-4.3c0.8,0,1.4,0,2.1,0c28.8,0,57.6,0,86.4,0c2.1,0,2.1,0,2.1-2.1c0-31.6,0-63.2,0-94.8c0-1.4-0.4-2.1-1.7-2.6
			c-22.7-9-45.3-18.1-68-27.2c-1.2-0.5-1.5-1.1-1.5-2.3c0-9.6,0-19.3,0-28.9c0-2.1,0-2.1-2.2-2.1c-8.1,0-16.2,0-24.2,0
			C140.2,292.5,140.2,289.3,140.2,286.1z M282.9,286.6c22.6,0,44.9,0,67.3,0c0-10.5,0-20.9,0-31.4c-22.5,0-44.9,0-67.3,0
			C282.9,265.7,282.9,276.1,282.9,286.6z"/>
		<path class="st3" d="M140.2,209.5c0.7,0,1.3,0.1,2,0.1c20.8,0,41.6,0,62.4,0c0.6,0,1.2,0,1.9,0c0,3.3,0,6.4,0,9.8
			c-0.6,0-1.3,0-1.9,0c-20.8,0-41.6,0-62.4,0c-0.7,0-1.3,0-2,0.1C140.2,216.2,140.2,212.8,140.2,209.5z"/>
		<path class="st3" d="M140.2,247.8c18.7,0,37.4,0,56.1,0c3.4,0,6.7,0,10.2,0c0,3.2,0,6.4,0,9.8c-0.7,0-1.3,0-2,0
			c-20.8,0-41.5,0-62.3,0c-0.7,0-1.3,0.1-2,0.1C140.2,254.4,140.2,251.1,140.2,247.8z"/>
		<path class="st3" d="M140.2,266.8c0.7,0,1.3,0.1,2,0.1c20.8,0,41.5,0,62.3,0c0.7,0,1.3,0,2.1,0c0,3.3,0,6.5,0,9.8
			c-0.7,0-1.4,0-2,0c-20.8,0-41.5,0-62.3,0c-0.7,0-1.3,0-2,0C140.2,273.4,140.2,270.1,140.2,266.8z"/>
		<path class="st3" d="M140.2,228.8c21.7,0,43.5,0,65.2,0c0.3,0,0.7,0.1,1.1,0.1c0,3.2,0,6.3,0,9.5c-0.7,0-1.4,0-2,0
			c-20.8,0-41.5,0-62.3,0c-0.7,0-1.3,0-2,0C140.2,235.2,140.2,232,140.2,228.8z"/>
		<path class="st3" d="M257.1,10.7c0.7,0.3,1.3,0.7,2,1c36.8,14.9,60.5,41.5,71.1,79.8c0.1,0.2,0.1,0.4,0.1,0.6
			c-0.2,0.1-0.4,0.3-0.6,0.3c-0.9,0.2-1.9,0.5-2.8,0.7c-10.7-38.3-34.4-64.5-71.5-78.9c0.4-1.1,0.8-2.3,1.3-3.4
			C256.9,10.7,257,10.7,257.1,10.7z"/>
		<path class="st3" d="M336.5,168.8c-7,0-12.6-5.6-12.5-12.6s5.8-12.6,12.6-12.5c7,0.1,12.5,5.6,12.4,12.6
			C349.1,163.4,343.6,168.8,336.5,168.8z"/>
		<path class="st3" d="M282.7,168.8c-7,0-12.5-5.5-12.5-12.6c0-6.9,5.7-12.5,12.6-12.5c7,0.1,12.5,5.7,12.5,12.6
			C295.2,163.4,289.7,168.8,282.7,168.8z"/>
		<path class="st3" d="M308.4,92.6c-1.1,0.3-2.1,0.6-3.3,0.9c-8.2-27.5-25.5-46.7-52.2-57.6c0.4-1.1,0.8-2.2,1.2-3.4
			C268,38,280,46.1,289.7,57.3C298.2,67,307.5,84.5,308.4,92.6z"/>
		<path class="st3" d="M210.3,87.3c0.6,0.5,0.9,0.8,1.3,1.2c-23.2,27.5-46.4,55-69.6,82.5c-0.4-0.4-0.9-0.7-1.4-1.1
			C163.8,142.4,187,114.9,210.3,87.3z"/>
		<path class="st3" d="M286.6,92.9c-1.2,0.4-2.2,0.7-3.4,1.1c-2.8-8.1-6.6-15.6-12.4-21.9c-5.7-6.4-12.7-10.9-20.5-14.5
			c0.1-0.3,0.1-0.5,0.2-0.7c0.4-0.8,0.8-1.7,1.2-2.7C269.2,61.9,280.8,74.7,286.6,92.9z"/>
	</g>
</g>
<g>
	<path class="st3" d="M397.1,376.9c7.9,0,13.7,0,20.6,0c0,10.7,0,20.9,0,31.9c-111.6,0-222.9,0-335.3,0c0-10.1,0-20.3,0-31.3
		c6.6-0.4,13.1-0.9,20.8-1.4c0-52.2,0-103.9,0-156c5.4-0.7,9.6-1.2,14.8-1.8c0.5-4.5,1.1-9.3,1.8-14.9c18.2,0,35.9,0,54.2,0
		c0.4,4.9,0.8,9.4,1.3,14.8c7.9,0,15.5,0,24.1,0c0.6-4.8,1.2-9.6,1.8-14.9c17.9,0,35.3,0,52.6,0c2.9,17.4,7.2,19.2,33.1,14.2
		c0.4-4.3,0.7-8.9,1.1-13.9c5.2-0.6,10.1-1.2,18.2-2.1c0-52.4,0-104.7,0-157.4c3.4-0.7,6.3-1.3,9.9-2.1c0.7-3.5,1.4-7.2,2.2-11.6
		c8.5,0,16.9,0,26.1,0c0.7,3.8,1.4,7.4,2.2,11.7c10.4,0,10.7,5,8.6,14.2c-1.8,7.7,1.1,16.3,1.2,24.6c0.6,35.8,1.1,71.7,1.5,107.5
		c0.1,4.2,0,8.4,0,13.3c5.8,0.7,10.6,1.3,16,1.9c0.5,4.8,1,9.3,1.6,14.7c7,0.6,13.8,1.2,21.7,1.8
		C397.1,272.3,397.1,323.9,397.1,376.9z M304,335.7c0,6.5,0,11.8,0,17.8c18.3,0,36,0,54.2,0c0-6.2,0-11.8,0-17.8
		C339.9,335.7,322.5,335.7,304,335.7z M306.4,290.8c17.3,0,33.3,0,50.6,0c-2.9-7,5.1-16.8-7-17.7c-14.3-1.1-28.8-0.3-43.6-0.3
		C306.4,279.6,306.4,284.9,306.4,290.8z M357.1,305.2c-17.8,0-34.9,0-52.2,0c0,6.2,0,11.5,0,17.1c17.9,0,35.1,0,52.2,0
		C357.1,316,357.1,310.7,357.1,305.2z M307.5,259.5c16.6,0,31.9,0,47.1,0c0-6.2,0-11.5,0-17.2c-16,0-31.2,0-47.1,0
		C307.5,248.4,307.5,253.6,307.5,259.5z M173.5,243.7c-18.4,0-35.3,0-53,0c0.2,4.7,0.4,8.3,0.6,12.4c17.9,0,34.8,0,52.4,0
		C173.5,251.7,173.5,248.1,173.5,243.7z M201.3,256.2c17.7,0,34.7,0,52.1,0c0-4.6,0-8.6,0-12.6c-17.9,0-34.9,0-52.1,0
		C201.3,248.2,201.3,251.9,201.3,256.2z M201.8,272.2c0,7.2,0,13.2,0,19.6c6.7,0,12.6,0,18.7,0c0-6.9,0-12.9,0-19.6
		C214.1,272.2,208.5,272.2,201.8,272.2z M253.4,272.5c-6.6,0-12.5,0-18.7,0c0,6.9,0,12.9,0,19.3c6.6,0,12.6,0,18.7,0
		C253.4,284.9,253.4,278.9,253.4,272.5z M154.5,336.5c0,7.5,0,13.4,0,19.8c6.5,0,12.1,0,18.2,0c0-6.9,0-13.1,0-19.8
		C166.3,336.5,160.7,336.5,154.5,336.5z M140,272.4c-6.6,0-12.5,0-18.6,0c0,6.9,0,12.9,0,19.4c6.5,0,12.4,0,18.6,0
		C140,284.9,140,278.9,140,272.4z M154.4,272.1c0,7.4,0,13.4,0,20c6.4,0,12,0,18.4,0c0-6.7,0-13.1,0-20
		C166.5,272.1,160.8,272.1,154.4,272.1z M172.8,304.8c-6.6,0-12.5,0-18.5,0c0,6.9,0,12.9,0,19.2c6.5,0,12.4,0,18.5,0
		C172.8,317.1,172.8,311.1,172.8,304.8z M201.9,304.5c0,6.5,0,12.8,0,19.5c6.5,0,12.4,0,18.6,0c0-6.9,0-12.9,0-19.5
		C214.5,304.5,209.2,304.5,201.9,304.5z M234.7,304.6c0,7.1,0,13,0,19.5c6.6,0,12.5,0,18.7,0c0-6.9,0-12.9,0-19.5
		C247,304.6,241.4,304.6,234.7,304.6z M140.2,336.6c-7,0-12.6,0-18.8,0c0,6.8,0,12.8,0,19.3c6.5,0,12.4,0,18.8,0
		C140.2,349.2,140.2,343.5,140.2,336.6z M201.8,336.5c0,7.2,0,13.1,0,19.5c6.7,0,12.5,0,18.7,0c0-6.9,0-12.9,0-19.5
		C214.1,336.5,208.5,336.5,201.8,336.5z M253.2,356.4c0-7.4,0-13.3,0-19.5c-6.7,0-12.6,0-18.5,0c0,7,0,12.9,0,19.5
		C241.1,356.4,246.8,356.4,253.2,356.4z M139.9,324.4c0-6.8,0-13.1,0-19.5c-6.7,0-12.6,0-18.4,0c0,7,0,13,0,19.5
		C127.9,324.4,133.6,324.4,139.9,324.4z"/>
</g>
</svg>
