<?xml version="1.0" encoding="utf-8"?>
<!-- Generator: Adobe Illustrator 25.4.1, SVG Export Plug-In . SVG Version: 6.00 Build 0)  -->
<svg version="1.1" id="Слой_1" xmlns="http://www.w3.org/2000/svg" xmlns:xlink="http://www.w3.org/1999/xlink" x="0px" y="0px"
	 viewBox="0 0 90.3 110.7" style="enable-background:new 0 0 90.3 110.7;" xml:space="preserve">
<style type="text/css">
	.st0{fill:#FFFFFF;}
	.st1{fill:#00AC00;}
</style>
<g>
	<path class="st0" d="M9.4,110.7c-2.4-0.6-4.5-1.7-6.2-3.5c-3.5-3.5-4.1-7.8-1.7-12.1c3-5.4,6-10.8,8.9-16.2
		c0.1-0.2,0.3-0.5,0.5-0.8c1,1.3,1.9,2.6,2.8,3.9c0.1,0.2,0.1,0.6,0,0.9c-1.9,3.5-3.8,7-5.7,10.6c-1.1,2-1.7,4-1.2,6.2
		c0.9,3.7,3.6,5.7,7.1,6.7c0.7,0.2,1.4,0.2,2.1,0.2c3.9,0,7.8,0,11.7,0c0.5,0,1,0.2,1.4,0.5c3.1,2.2,7.1,2.2,10.2,0
		c0.4-0.3,1-0.5,1.5-0.5c11.3,0,22.6,0,33.9,0c2,0,3.8-0.5,5.4-1.4c3.6-2,5-5.5,3.6-9.4c-0.7-1.9-1.8-3.7-2.7-5.6
		C75.4,80,69.8,69.8,64.3,59.5C64,59,64,58.7,64.3,58.2c0.8-1.1,1.5-2.3,2.4-3.5c0.6,1,1.1,1.9,1.6,2.8
		c6.8,12.4,13.7,24.7,20.5,37.1c3.7,6.7,0.7,13.7-6.7,15.8c-0.3,0.1-0.6,0.2-0.9,0.3C57.2,110.7,33.3,110.7,9.4,110.7z"/>
	<path class="st1" d="M31.8,63.9c1.8-2.3,3.5-4.5,5.3-6.7c8.1-10,16.3-19.8,25.5-28.9c3.3-3.3,6.8-6.5,10.8-9c1.7-1.1,3.4-2,5.4-2.3
		c2.8-0.5,5.3,1,5.8,3.5c0.3,1.4-0.1,2.8-1,3.9c-1,1.4-2.1,2.7-3.3,4c-9,9.2-17,19.2-23.8,30.2C48.6,71.3,42.3,84.9,37.2,99
		c-0.1,0.2-0.1,0.4-0.2,0.7c-0.5,1.3-1.3,2.1-2.7,2.2c-1.4,0.1-2.2-0.7-2.9-1.9c-1.9-3.6-3.8-7.2-5.7-10.7
		c-5.1-9.2-11-17.7-18.5-25.1c-2.4-2.4-0.9-7.1,2.6-8.2c1.7-0.5,3.4-0.3,5,0.1c4,1,7.7,2.8,11.3,4.7C28,61.7,29.8,62.8,31.8,63.9z"
		/>
	<path class="st0" d="M42.3,103.6C47.6,88.8,54,74.5,62.5,61.1c1.2,2.2,2.3,4.3,3.3,6.4c4.3,8.2,8.6,16.4,12.9,24.6
		c0.5,1.1,1,2.2,1.2,3.4c0.5,2.4-0.3,4.5-2.2,6.1c-1.7,1.4-3.6,2.2-5.8,2.2c-9.7,0-19.4,0-29.1,0C42.7,103.7,42.5,103.6,42.3,103.6z
		"/>
	<path class="st0" d="M56.3,25.1c0-5.8,0-11.7,0-17.2C57,7.4,57.9,7.1,58,6.6c0.2-1,0.1-2-0.1-3c-0.1-0.3-1-0.6-1.5-0.6
		c-5.7,0-11.5,0-17.2,0c-1.7,0-3.5,0-5.2,0c-1.1,0-1.7,0.6-1.7,1.7c0,0.3,0,0.6,0,0.9c0,1.4,0.4,1.9,1.9,2c0,0.2,0.1,0.4,0.1,0.6
		c0,12,0,23.9,0,35.9c0,0.3-0.1,0.7-0.2,1c-1.6,3.1-3.3,6.1-4.9,9.2c0,0.1-0.1,0.1-0.2,0.2c-1.3-0.6-2.6-1.3-3.9-2
		c0.1-0.3,0.3-0.6,0.4-0.8c1.7-3,3.3-6.1,4.9-9.1c0.2-0.4,0.3-0.8,0.3-1.2c0-10.6,0-21.3,0-31.9c0-0.3-0.2-0.7-0.5-1
		c-0.7-0.6-1.2-1.4-1.3-2.4c-0.1-1.5-0.2-3,0.6-4.3C30.2,0.7,31.2,0,32.7,0C41,0,49.2,0,57.5,0c2.2,0,3.6,1.1,4,3.2
		c0.2,1.1,0.2,2.2,0,3.3c-0.1,0.7-0.7,1.4-1.3,2c-0.4,0.4-0.5,0.7-0.5,1.2c0,3.8,0,7.7,0,11.5c0,0.4-0.2,0.9-0.5,1.2
		c-0.9,1-1.8,1.9-2.7,2.9C56.4,25.2,56.4,25.1,56.3,25.1z"/>
	<path class="st0" d="M26.2,103.8c-2.9-0.1-5.6,0.1-8.2-0.4c-3-0.5-5.2-2.4-6.2-5.5c-0.5-1.6-0.3-3.3,0.4-4.8
		c1.2-2.4,2.5-4.8,3.9-7.3C19.8,91.6,22.9,97.5,26.2,103.8z"/>
	<path class="st0" d="M49.3,32.7c0-0.5,0-0.7,0-0.9c0-7.3,0-14.6,0-21.9c0-0.2,0-0.4,0-0.6c0.1-0.8,0.8-1.4,1.6-1.4
		c0.8,0,1.5,0.6,1.6,1.4c0,0.2,0,0.4,0,0.6c0,6.2,0,12.4,0,18.6c0,0.5-0.2,1-0.5,1.4C51.1,30.8,50.3,31.6,49.3,32.7z"/>
</g>
</svg>
