<?xml version="1.0" encoding="utf-8"?>
<!-- Generator: Adobe Illustrator 25.4.1, SVG Export Plug-In . SVG Version: 6.00 Build 0)  -->
<svg version="1.1" id="Слой_1" xmlns="http://www.w3.org/2000/svg" xmlns:xlink="http://www.w3.org/1999/xlink" x="0px" y="0px"
	 viewBox="0 0 90.3 110.7" style="enable-background:new 0 0 90.3 110.7;" xml:space="preserve">
<style type="text/css">
	.st0{display:none;}
	.st1{display:inline;fill:#FFFFFF;}
	.st2{display:inline;fill:#00AC00;}
	.st3{fill:#FFFFFF;}
</style>
<g class="st0">
	<path class="st1" d="M9.4,110.7c-2.4-0.6-4.5-1.7-6.2-3.5c-3.5-3.5-4.1-7.8-1.7-12.1c3-5.4,6-10.8,8.9-16.2
		c0.1-0.2,0.3-0.5,0.5-0.8c1,1.3,1.9,2.6,2.8,3.9c0.1,0.2,0.1,0.6,0,0.9c-1.9,3.5-3.8,7-5.7,10.6c-1.1,2-1.7,4-1.2,6.2
		c0.9,3.7,3.6,5.7,7.1,6.7c0.7,0.2,1.4,0.2,2.1,0.2c3.9,0,7.8,0,11.7,0c0.5,0,1,0.2,1.4,0.5c3.1,2.2,7.1,2.2,10.2,0
		c0.4-0.3,1-0.5,1.5-0.5c11.3,0,22.6,0,33.9,0c2,0,3.8-0.5,5.4-1.4c3.6-2,5-5.5,3.6-9.4c-0.7-1.9-1.8-3.7-2.7-5.6
		C75.4,80,69.8,69.8,64.3,59.5c-0.3-0.5-0.3-0.8,0-1.3c0.8-1.1,1.5-2.3,2.4-3.5c0.6,1,1.1,1.9,1.6,2.8C75.1,69.9,82,82.2,88.8,94.6
		c3.7,6.7,0.7,13.7-6.7,15.8c-0.3,0.1-0.6,0.2-0.9,0.3C57.2,110.7,33.3,110.7,9.4,110.7z"/>
	<path class="st2" d="M31.8,63.9c1.8-2.3,3.5-4.5,5.3-6.7c8.1-10,16.3-19.8,25.5-28.9c3.3-3.3,6.8-6.5,10.8-9c1.7-1.1,3.4-2,5.4-2.3
		c2.8-0.5,5.3,1,5.8,3.5c0.3,1.4-0.1,2.8-1,3.9c-1,1.4-2.1,2.7-3.3,4c-9,9.2-17,19.2-23.8,30.2C48.6,71.3,42.3,84.9,37.2,99
		c-0.1,0.2-0.1,0.4-0.2,0.7c-0.5,1.3-1.3,2.1-2.7,2.2s-2.2-0.7-2.9-1.9c-1.9-3.6-3.8-7.2-5.7-10.7c-5.1-9.2-11-17.7-18.5-25.1
		c-2.4-2.4-0.9-7.1,2.6-8.2c1.7-0.5,3.4-0.3,5,0.1c4,1,7.7,2.8,11.3,4.7C28,61.7,29.8,62.8,31.8,63.9z"/>
	<path class="st1" d="M42.3,103.6C47.6,88.8,54,74.5,62.5,61.1c1.2,2.2,2.3,4.3,3.3,6.4c4.3,8.2,8.6,16.4,12.9,24.6
		c0.5,1.1,1,2.2,1.2,3.4c0.5,2.4-0.3,4.5-2.2,6.1c-1.7,1.4-3.6,2.2-5.8,2.2c-9.7,0-19.4,0-29.1,0C42.7,103.7,42.5,103.6,42.3,103.6z
		"/>
	<path class="st1" d="M56.3,25.1c0-5.8,0-11.7,0-17.2C57,7.4,57.9,7.1,58,6.6c0.2-1,0.1-2-0.1-3c-0.1-0.3-1-0.6-1.5-0.6
		c-5.7,0-11.5,0-17.2,0c-1.7,0-3.5,0-5.2,0c-1.1,0-1.7,0.6-1.7,1.7c0,0.3,0,0.6,0,0.9c0,1.4,0.4,1.9,1.9,2c0,0.2,0.1,0.4,0.1,0.6
		c0,12,0,23.9,0,35.9c0,0.3-0.1,0.7-0.2,1c-1.6,3.1-3.3,6.1-4.9,9.2c0,0.1-0.1,0.1-0.2,0.2c-1.3-0.6-2.6-1.3-3.9-2
		c0.1-0.3,0.3-0.6,0.4-0.8c1.7-3,3.3-6.1,4.9-9.1c0.2-0.4,0.3-0.8,0.3-1.2c0-10.6,0-21.3,0-31.9c0-0.3-0.2-0.7-0.5-1
		c-0.7-0.6-1.2-1.4-1.3-2.4c-0.1-1.5-0.2-3,0.6-4.3C30.2,0.7,31.2,0,32.7,0C41,0,49.2,0,57.5,0c2.2,0,3.6,1.1,4,3.2
		c0.2,1.1,0.2,2.2,0,3.3c-0.1,0.7-0.7,1.4-1.3,2c-0.4,0.4-0.5,0.7-0.5,1.2c0,3.8,0,7.7,0,11.5c0,0.4-0.2,0.9-0.5,1.2
		c-0.9,1-1.8,1.9-2.7,2.9C56.4,25.2,56.4,25.1,56.3,25.1z"/>
	<path class="st1" d="M26.2,103.8c-2.9-0.1-5.6,0.1-8.2-0.4c-3-0.5-5.2-2.4-6.2-5.5c-0.5-1.6-0.3-3.3,0.4-4.8
		c1.2-2.4,2.5-4.8,3.9-7.3C19.8,91.6,22.9,97.5,26.2,103.8z"/>
	<path class="st1" d="M49.3,32.7c0-0.5,0-0.7,0-0.9c0-7.3,0-14.6,0-21.9c0-0.2,0-0.4,0-0.6c0.1-0.8,0.8-1.4,1.6-1.4s1.5,0.6,1.6,1.4
		c0,0.2,0,0.4,0,0.6c0,6.2,0,12.4,0,18.6c0,0.5-0.2,1-0.5,1.4C51.1,30.8,50.3,31.6,49.3,32.7z"/>
</g>
<g>
	<path class="st3" d="M87.7,97.6c-28.3,0-56.7,0-85,0c-1.2-0.6-2.2-1.5-2.6-2.9c0-19,0-38,0-56.9c0.7-1.4,1.8-2.2,3.2-2.8
		c9.4-4.7,18.8-9.4,28.2-14.1c4.3-2.1,8.5-4.3,12.8-6.5c0.6,0,1.2,0,1.8,0c0.1,0.1,0.1,0.1,0.2,0.2C60,21.4,73.7,28.2,87.4,35
		c1.3,0.6,2.4,1.4,2.9,2.7c0,19.1,0,38.1,0,57.2C89.5,95.8,88.6,96.7,87.7,97.6z M83.4,90.6c0-0.6,0-1.1,0-1.5c0-15.6,0-31.2,0-46.8
		c0-1.1-0.3-1.6-1.3-2.1c-11.9-5.9-23.9-11.9-35.8-17.9c-0.8-0.4-1.4-0.4-2.2,0c-12,6-23.9,12-35.9,17.9c-0.9,0.5-1.2,1-1.2,2
		c0,15.6,0,31.3,0,46.9c0,0.5,0,0.9,0,1.4C32.6,90.6,57.9,90.6,83.4,90.6z"/>
	<path class="st3" d="M59.1,73.3c-9.3,0-18.3,0-27.4,0c0.1-0.2,0.2-0.4,0.3-0.6c2.1-2.5,3-5.3,2.9-8.5c0-1.9-0.1-3.7,0.1-5.6
		c0.3-4,2.3-6.9,5.9-8.6c0.6-0.3,0.9-0.6,1-1.3c0.2-2,1.5-3.1,3.5-3.1c1.9,0,3.1,1.2,3.4,3.2c0.1,0.4,0.4,0.9,0.8,1.1
		c4.1,1.9,6,5.2,6.1,9.6c0,1.2,0.1,2.3,0,3.5C55.4,66.8,56.2,70.2,59.1,73.3z"/>
	<path class="st3" d="M68.9,48.7c1-0.6,2-1.1,2.9-1.7c5.9,8.6,6.5,21.7,0,31.7c-0.9-0.5-1.9-1.1-2.9-1.6C71.7,72.8,73,68,73,62.9
		C73,57.9,71.7,53.2,68.9,48.7z"/>
	<path class="st3" d="M21.6,77.1c-1,0.6-1.9,1.1-2.9,1.7c-6.1-8.5-6.4-22.4,0-31.7c0.8,0.5,1.6,1,2.6,1.6c-2.5,4.5-3.8,9.2-3.8,14.3
		C17.5,68,18.8,72.7,21.6,77.1z"/>
	<path class="st3" d="M66,50.5c4.7,7.9,4.7,17,0,24.8c-1-0.5-1.9-1.1-3-1.7c2.1-3.3,3.1-6.9,3.1-10.7c0-3.8-1.3-7.3-3.1-10.7
		C64,51.6,64.9,51.1,66,50.5z"/>
	<path class="st3" d="M27.5,73.7c-1,0.6-2,1.1-2.9,1.6c-4.7-5.4-4.7-18.3-0.1-24.7c1,0.5,1.9,1.1,2.9,1.6
		C23.4,59.3,23.4,66.4,27.5,73.7z"/>
	<path class="st3" d="M48.7,76.9c-0.2,2.2-1.4,3.3-3.4,3.3c-2.1,0-3.2-1.1-3.4-3.3C44.1,76.9,46.3,76.9,48.7,76.9z"/>
</g>
</svg>
