<?xml version="1.0" encoding="utf-8"?>
<!-- Generator: Adobe Illustrator 25.4.1, SVG Export Plug-In . SVG Version: 6.00 Build 0)  -->
<svg version="1.1" id="Слой_1" xmlns="http://www.w3.org/2000/svg" xmlns:xlink="http://www.w3.org/1999/xlink" x="0px" y="0px"
	 viewBox="0 0 73.4 126.2" style="enable-background:new 0 0 73.4 126.2;" xml:space="preserve">
<style type="text/css">
	.st0{fill:#FFFFFF;}
</style>
<g>
	<path class="st0" d="M42,0c4.1,16.3,8.2,32.6,12.3,49c6.3,25.1,12.5,50.3,18.7,75.4c0.1,0.5,0.2,0.9,0.3,1.8c-5,0-9.9,0.1-14.7-0.1
		c-1.1-0.1-2.4-1.1-3.3-2.1c-6.1-6.1-12.2-12.2-18.7-18.8c-6.2,6.3-12.2,12.4-18.1,18.6c-1.7,1.8-3.4,2.5-5.9,2.4
		c-4.1-0.2-8.2-0.1-12.7-0.1C4.3,109,8.5,92.2,12.7,75.4c6.1-24.6,12.1-49.1,18.2-73.7c0.1-0.6,0.4-1.2,0.6-1.8C35,0,38.5,0,42,0z
		 M29.4,54.2c-1.8,7-3.5,13.9-5.2,20.8c-0.2,0.7,0,1.8,0.5,2.3c3.9,4.1,7.9,8.1,12.1,12.3c4-4.1,7.8-7.7,11.3-11.5
		c0.7-0.8,1.4-2.2,1.2-3.2c-1.6-6.9-3.4-13.7-5.1-20.7C39.3,54.2,34.6,54.2,29.4,54.2z M27.8,97.6c-2.2-2.4-4.6-5.1-7.2-8
		c-1.8,7.1-3.4,13.7-5.1,20.6C19.9,105.7,24,101.5,27.8,97.6z M57.3,109.8c0.2,0,0.5,0,0.7,0c-1.7-6.6-3.3-13.3-4.9-19.7
		c-2.8,2.6-5.5,5-8.1,7.4C49.2,101.8,53.3,105.8,57.3,109.8z"/>
</g>
</svg>
