<?xml version="1.0" encoding="utf-8"?>
<!-- Generator: Adobe Illustrator 25.4.1, SVG Export Plug-In . SVG Version: 6.00 Build 0)  -->
<svg version="1.1" id="Слой_1" xmlns="http://www.w3.org/2000/svg" xmlns:xlink="http://www.w3.org/1999/xlink" x="0px" y="0px"
	 viewBox="0 0 73.4 126.2" style="enable-background:new 0 0 73.4 126.2;" xml:space="preserve">
<style type="text/css">
	.st0{display:none;}
	.st1{display:inline;fill:#FFFFFF;}
	.st2{fill:#FFFFFF;}
</style>
<g class="st0">
	<path class="st1" d="M42,0c4.1,16.3,8.2,32.6,12.3,49c6.3,25.1,12.5,50.3,18.7,75.4c0.1,0.5,0.2,0.9,0.3,1.8c-5,0-9.9,0.1-14.7-0.1
		c-1.1-0.1-2.4-1.1-3.3-2.1c-6.1-6.1-12.2-12.2-18.7-18.8c-6.2,6.3-12.2,12.4-18.1,18.6c-1.7,1.8-3.4,2.5-5.9,2.4
		c-4.1-0.2-8.2-0.1-12.7-0.1C4.3,109,8.5,92.2,12.7,75.4c6.1-24.6,12.1-49.1,18.2-73.7c0.1-0.6,0.4-1.2,0.6-1.8C35,0,38.5,0,42,0z
		 M29.4,54.2c-1.8,7-3.5,13.9-5.2,20.8c-0.2,0.7,0,1.8,0.5,2.3c3.9,4.1,7.9,8.1,12.1,12.3c4-4.1,7.8-7.7,11.3-11.5
		c0.7-0.8,1.4-2.2,1.2-3.2c-1.6-6.9-3.4-13.7-5.1-20.7C39.3,54.2,34.6,54.2,29.4,54.2z M27.8,97.6c-2.2-2.4-4.6-5.1-7.2-8
		c-1.8,7.1-3.4,13.7-5.1,20.6C19.9,105.7,24,101.5,27.8,97.6z M57.3,109.8c0.2,0,0.5,0,0.7,0c-1.7-6.6-3.3-13.3-4.9-19.7
		c-2.8,2.6-5.5,5-8.1,7.4C49.2,101.8,53.3,105.8,57.3,109.8z"/>
</g>
<g>
	<path class="st2" d="M73.2,65.5c-0.1,0.7-0.1,1.4-0.2,2c-0.2,2.8-0.7,5.6-1.3,8.4c-0.7,3.2-1.8,6.4-3.1,9.4
		c-1.4,3.4-3.2,6.6-5.2,9.6c-0.5,0.8-1.1,1.6-1.7,2.3c-1,1.2-2.7,1.3-4,0.3c-1.2-0.9-1.4-2.7-0.5-3.9c1.1-1.6,2.2-3.1,3.1-4.7
		c1-1.8,1.9-3.6,2.8-5.4c1.4-3.1,2.5-6.4,3.1-9.8c0.4-2.2,0.8-4.5,0.9-6.8c0.2-2.2,0.1-4.5,0.1-6.7c-0.1-2.9-0.6-5.9-1.2-8.7
		c-0.9-3.7-2.1-7.2-3.8-10.7c-1.3-2.7-2.9-5.3-4.7-7.7c-0.6-0.8-1-1.7-0.7-2.7c0.3-1.2,1.1-2,2.3-2.2c1.2-0.2,2.2,0.2,3,1.2
		c1.7,2.3,3.2,4.6,4.5,7.1c2.2,4.1,3.8,8.4,5,12.9c0.7,2.8,1.2,5.6,1.4,8.5c0.1,0.8,0.1,1.7,0.2,2.5c0,0.1,0,0.2,0.1,0.3
		C73.2,62.3,73.2,63.9,73.2,65.5z"/>
	<path class="st2" d="M0.2,32.4c1.1,0,2.2-0.1,3.3,0.1c2.2,0.3,3.8,1.6,4.8,3.7c0.5,0.9,0.7,1.9,0.7,2.9c0,4.1,0,8.3,0,12.4
		c0,0.1,0,0.1,0,0.2c-2.9-0.6-5.8-0.2-8.7-0.3C0.2,45.1,0.2,38.7,0.2,32.4z"/>
	<path class="st2" d="M0.2,74.8c2.1,0,4.2,0,6.4,0c0.8,0,1.6-0.2,2.4-0.3c0,0.2,0,0.5,0,0.8c0,3.9,0,7.8,0,11.7
		c0,2.2-0.8,4.1-2.6,5.5c-1,0.8-2.2,1.3-3.5,1.3c-0.9,0-1.8,0-2.6,0C0.2,87.4,0.2,81.1,0.2,74.8z"/>
	<path class="st2" d="M63,63.1c0,5.8-1.1,11.4-3.2,16.8c-1.6,4.2-3.9,8.1-6.6,11.6c-1.3,1.7-3.5,1.7-4.8,0.1c-0.8-1-0.8-2.4,0-3.5
		c0.9-1.2,1.8-2.5,2.6-3.7c3.2-5.1,5.1-10.6,5.8-16.6c0.6-5.5,0.2-10.8-1.4-16.1c-1.1-3.8-2.7-7.3-4.9-10.6c-0.7-1-1.4-2-2.2-3
		c-0.8-1.1-0.8-2.5,0-3.5c0.8-1.1,2.2-1.5,3.5-0.9c0.5,0.2,0.9,0.6,1.2,1c2.5,3.2,4.6,6.7,6.2,10.5c1.9,4.4,3,9,3.4,13.7
		C62.9,60.3,63,61.7,63,63.1z"/>
	<path class="st2" d="M52.8,63.1c-0.1,4.7-0.9,9.2-2.7,13.5c-1.4,3.5-3.4,6.7-5.9,9.5c-1,1.2-2.8,1.4-4,0.4c-1.2-1-1.5-2.7-0.5-4
		c1-1.4,2.2-2.8,3.1-4.3c2.5-4.1,3.8-8.5,4.1-13.3c0.2-3.8-0.2-7.5-1.4-11.1c-1.2-3.7-3.1-7-5.6-9.9c-0.8-1-1-2.1-0.4-3.2
		c0.9-1.9,3.4-2.3,4.8-0.7c1.1,1.3,2.2,2.7,3.1,4.2c1,1.6,1.9,3.3,2.6,5c1.5,3.5,2.4,7.1,2.7,10.9C52.7,61.1,52.7,62.1,52.8,63.1z"
		/>
	<path class="st2" d="M42.5,63.1c0.1,2.9-0.4,5.7-1.4,8.4c-0.9,2.5-2.2,4.9-3.9,6.9c-0.6,0.8-1.3,1.5-2,2.2c-1,1-2.7,1.1-3.8,0.2
		c-1.2-0.9-1.5-2.6-0.7-3.8c0.4-0.6,1-1.1,1.5-1.7c2-2.3,3.4-5,4.1-8c0.9-3.9,0.6-7.7-0.9-11.4c-0.9-2.3-2.3-4.3-4-6
		c-0.5-0.5-1-1.1-1.1-1.9c-0.2-1.2,0.4-2.5,1.5-3.1c1.1-0.6,2.5-0.4,3.4,0.5c1.6,1.6,3,3.3,4.2,5.3c1.9,3.3,3,6.9,3.2,10.7
		C42.5,62,42.5,62.6,42.5,63.1z"/>
	<path class="st2" d="M3.1,71.8c0-5.9,0-11.7,0-17.4c0,0,0-0.1,0.1-0.1c2,0,4-0.2,6,0.6c3.8,1.5,6.1,5.5,5.5,9.5
		c-0.7,4.2-4.2,7.3-8.5,7.4C5.2,71.9,4.2,71.8,3.1,71.8z"/>
	<path class="st2" d="M32.3,63.6c-0.2,4.6-2.4,8.5-6.7,11.3c-0.9,0.5-1.8,0.9-2.8,0.5c-1.1-0.4-1.8-1.2-2-2.4
		c-0.2-1.3,0.3-2.3,1.4-2.9c1.2-0.7,2.2-1.6,3-2.8c2.4-3.7,1.2-8.8-2.6-11c-1.1-0.6-1.8-1.5-1.8-2.9c0-2,2.3-3.4,4.1-2.5
		c2.4,1.2,4.3,3,5.6,5.4C31.7,58.4,32.3,60.7,32.3,63.6z"/>
</g>
</svg>
