<?xml version="1.0" encoding="utf-8"?>
<!-- Generator: Adobe Illustrator 25.4.1, SVG Export Plug-In . SVG Version: 6.00 Build 0)  -->
<svg version="1.1" id="Слой_1" xmlns="http://www.w3.org/2000/svg" xmlns:xlink="http://www.w3.org/1999/xlink" x="0px" y="0px"
	 viewBox="0 0 153.2 205" style="enable-background:new 0 0 153.2 205;" xml:space="preserve">
<style type="text/css">
	.st0{fill:#FFFFFF;}
</style>
<g transform="translate(0.000000,217.000000) scale(0.100000,-0.100000)">
	<path class="st0" d="M655.2,2165c-185-26-389-145-500-292c-59-77-119-203-140-289c-22-95-20-277,5-375c44-177,155-334,313-445
		c72-50,195-104,266-115l41-7v59v59l-73,22c-166,51-303,168-380,324c-72,147-90,267-63,411c38,194,145,348,315,448
		c187,109,413,118,607,24c204-100,338-289,367-515c38-302-160-605-453-694l-60-18v-60v-59l38,7c70,13,190,66,259,114
		c218,153,334,374,335,637c1,179-47,324-156,471c-86,118-271,239-421,277C879.2,2168,733.2,2176,655.2,2165z"/>
	<path class="st0" d="M760.2,1923c-2-298-8-442-18-446c-7-2-12-19-12-37c0-19-4-37-10-40c-5-3-10-22-10-41s5-34,10-34
		c6,0,10-16,10-35s5-35,10-35c6,0,10-16,10-35s-4-35-10-35c-5,0-10-9-10-20s5-20,10-20c6,0,10-16,10-35s-4-35-10-35
		c-5,0-10-18-10-40s5-40,10-40c6,0,10-27,10-60c0-53-2-60-20-60c-22,0-29-35-7-43c9-3,12-47,13-169l2-166l-72-184l-71-183l-385-5
		c-216-3,33-5,565-5c539,0,781,2,560,5l-390,5l-71,184l-72,183l2,166c1,122,4,166,14,169c17,6,15,43-3,43c-12,0-15,13-15,60
		c0,33,4,60,9,60c4,0,4,23,0,51c-11,68-4,258,10,272s15,69,1,83c-5,5-12,46-16,92c-4,45-11,82-16,82c-4,0-8,60-7,133
		c2,228-1,287-11,287C764.2,1995,760.2,1964,760.2,1923z M730.2,350c0-8-4-15-10-15c-5,0-10,7-10,15s5,15,10,15
		C726.2,365,730.2,358,730.2,350z M780.2,350c0-8-4-15-10-15c-5,0-10,7-10,15s5,15,10,15C776.2,365,780.2,358,780.2,350z M830.2,350
		c0-8-4-15-10-15c-5,0-10,7-10,15s5,15,10,15C826.2,365,830.2,358,830.2,350z M720.2,175c11-21,20-42,20-45s-20-5-45-5s-45,2-45,6
		c0,6,44,84,47,84C699.2,215,709.2,197,720.2,175z M890.2,129c0-2-20-4-45-4s-45,2-45,5s9,24,21,47l21,41l24-43
		C879.2,152,890.2,131,890.2,129z"/>
	<path class="st0" d="M578.2,1880c-156-57-289-224-318-397c-37-217,79-444,274-537c92-45,106-47,106-19c0,19-13,29-68,53
		c-95,43-182,127-230,223c-37,75-37,77-37,197c0,121,0,121,39,201c48,96,124,174,210,215c34,16,67,29,74,29c6,0,12,11,12,25
		C640.2,1898,631.2,1899,578.2,1880z"/>
	<path class="st0" d="M890.2,1871c0-14,6-26,13-26c35,0,143-65,192-115c186-190,183-483-8-661c-34-33-91-73-125-89
		c-49-23-62-34-62-52c0-21,1-22,38-9c185,66,315,233,338,437c16,142-49,313-160,417c-62,57-140,104-198,118
		C893.2,1896,890.2,1894,890.2,1871z"/>
	<path class="st0" d="M574.2,1600c-46-45-64-72-75-110c-32-111-2-225,79-295c42-38,62-48,62-34c0,4-22,28-49,55
		c-61,60-86,126-78,209c6,71,27,114,84,167c25,23,43,48,41,55C635.2,1655,610.2,1637,574.2,1600z"/>
	<path class="st0" d="M890.2,1636c0-5,16-21,35-35c19-15,47-48,62-74c24-41,28-57,28-127c0-92-14-124-76-185c-54-52-46-71,9-24
		c93,79,124,220,73,326C990.2,1582,890.2,1672,890.2,1636z"/>
</g>
</svg>
