<?xml version="1.0" encoding="utf-8"?>
<!-- Generator: Adobe Illustrator 25.4.1, SVG Export Plug-In . SVG Version: 6.00 Build 0)  -->
<svg version="1.1" id="Слой_1" xmlns="http://www.w3.org/2000/svg" xmlns:xlink="http://www.w3.org/1999/xlink" x="0px" y="0px"
	 viewBox="0 0 68.9 110.6" style="enable-background:new 0 0 68.9 110.6;" xml:space="preserve">
<style type="text/css">
	.st0{fill:#FFFFFF;}
</style>
<g>
	<path class="st0" d="M68.1,110.6c-1.6-0.8-3.2-1.6-4.8-2.5c-8.7-4.8-17.5-9.5-26.2-14.5c-1.9-1.1-3.2-1.1-5.1,0
		c-9,5.1-18.1,10.1-27.2,15c-1.3,0.7-2.6,1.3-4.8,1.4c0.4-1.7,0.7-3.4,1.3-5c9.4-26.1,18.9-52.2,28.4-78.3c0.8-2.1,1.1-3.6-0.6-5.6
		c-2.2-2.6-1.4-6.8,1.1-8.8c2.4-2,6.3-1.8,8.6,0.2c2.5,2.3,3,6.1,0.7,8.8c-1.6,1.8-1.3,3.1-0.6,4.9c9.7,26.7,19.4,53.4,29,80.1
		c0.4,1.1,0.6,2.3,0.9,3.4C68.7,110.1,68.4,110.4,68.1,110.6z M16.5,79.5c5.2,2.8,10.9,6,16.7,9.1c0.6,0.3,1.7,0.5,2.3,0.2
		c5.9-3.1,11.7-6.4,16.1-8.9C46,73.5,40.2,67,34,60C28,66.7,22.4,73,16.5,79.5z M13,80.5c-3.1,8.6-6.1,16.8-9.3,25.9
		c9.9-5.5,18.7-10.4,28.1-15.6C25.3,87.3,19.4,84,13,80.5z M65.3,106.4C62,97.2,59,89,55.9,80.5c-6.4,3.5-12.3,6.8-18.8,10.3
		C46.7,96.1,55.5,101,65.3,106.4z M15.2,74.5c0.2,0.1,0.5,0.3,0.7,0.4c5.3-5.7,10.5-11.3,15.9-17.1c-2.2-2.1-4.9-4.7-7.9-7.4
		C20.9,58.7,18,66.6,15.2,74.5z M37.5,57.5c5.3,6,10.3,11.8,15.4,17.5c0.3-0.2,0.6-0.4,0.8-0.6c-2.9-7.9-5.7-15.8-8.7-24
		C42,53.2,39.3,55.7,37.5,57.5z M34.5,57.1c2.7-2.9,5.1-5.5,7.6-8.2c-2.5-2.3-5-4.6-7.6-7c-2.6,2.5-5.2,4.9-7.3,6.9
		C29.5,51.5,31.8,54.1,34.5,57.1z M35.2,38.6c1.1-2.1,3-4.1,3.1-6.1c0.1-2.3-1.4-4.7-2.5-7c-0.2-0.5-2.3-0.8-2.5-0.5
		C29.5,29.6,30,34.6,35.2,38.6z M33.7,22.1c0.5,0,1.1,0,1.6,0c1.1-1.5,2.8-3,3.1-4.6c0.3-2.3-1.4-4-3.9-3.9c-2.5,0-4.3,1.6-3.9,4
		C30.8,19.2,32.6,20.6,33.7,22.1z M28.9,36.7c-1.2,3.3-2.2,6-3.2,8.8c0.2,0.1,0.4,0.3,0.7,0.4c2-1.9,4-3.8,6.2-5.8
		C31.3,39,30.3,38.1,28.9,36.7z M42.6,46c0.2-0.1,0.5-0.3,0.7-0.4c-1-2.8-2-5.6-3.2-8.9c-1.5,1.4-2.6,2.3-3.8,3.4
		C38.6,42.3,40.6,44.1,42.6,46z"/>
	<path class="st0" d="M50,0.3c6.7,4.5,9,11,8.8,18.4c-0.2,7.3-4.4,14.7-9.2,15.8c3.3-5.3,6.6-10.5,6.6-17C56.2,11,53.1,5.7,50,0.3z"
		/>
	<path class="st0" d="M20.1,0c-4.1,5.8-7.6,11-7.5,17.5c0.1,6.5,3.3,11.6,7.1,16.9c-4.5-0.1-8.9-7.5-9.6-15
		C9.4,11.5,13.9,1.5,20.1,0z"/>
	<path class="st0" d="M25.3,28.6c-0.8-0.3-1.7-0.3-2.3-0.8c-5.2-4.5-5.2-16.3,0.1-20.7c0.5-0.4,1.4-0.3,2.2-0.4
		c-0.1,0.7,0.1,1.5-0.2,1.9c-5.4,6.5-4.2,12.8,0.8,19C25.7,28,25.5,28.3,25.3,28.6z"/>
	<path class="st0" d="M43.1,27.4c5.2-6.2,6-12.5,0.6-18.9c-0.3-0.4,0-1.2,0.1-1.9c0.6,0.1,1.4,0,1.9,0.4C51,11.3,51.2,23,46,27.6
		c-0.6,0.5-1.6,0.5-2.5,0.8C43.4,28.1,43.3,27.8,43.1,27.4z"/>
</g>
</svg>
