<?xml version="1.0" encoding="utf-8"?>
<!-- Generator: Adobe Illustrator 25.4.1, SVG Export Plug-In . SVG Version: 6.00 Build 0)  -->
<svg version="1.1" id="Слой_1" xmlns="http://www.w3.org/2000/svg" xmlns:xlink="http://www.w3.org/1999/xlink" x="0px" y="0px"
	 viewBox="0 0 68.9 110.6" style="enable-background:new 0 0 68.9 110.6;" xml:space="preserve">
<style type="text/css">
	.st0{display:none;}
	.st1{display:inline;fill:#FFFFFF;}
	.st2{fill:#FFFFFF;}
</style>
<g class="st0">
	<path class="st1" d="M68.1,110.6c-1.6-0.8-3.2-1.6-4.8-2.5c-8.7-4.8-17.5-9.5-26.2-14.5c-1.9-1.1-3.2-1.1-5.1,0
		c-9,5.1-18.1,10.1-27.2,15c-1.3,0.7-2.6,1.3-4.8,1.4c0.4-1.7,0.7-3.4,1.3-5c9.4-26.1,18.9-52.2,28.4-78.3c0.8-2.1,1.1-3.6-0.6-5.6
		c-2.2-2.6-1.4-6.8,1.1-8.8c2.4-2,6.3-1.8,8.6,0.2c2.5,2.3,3,6.1,0.7,8.8c-1.6,1.8-1.3,3.1-0.6,4.9c9.7,26.7,19.4,53.4,29,80.1
		c0.4,1.1,0.6,2.3,0.9,3.4C68.7,110.1,68.4,110.4,68.1,110.6z M16.5,79.5c5.2,2.8,10.9,6,16.7,9.1c0.6,0.3,1.7,0.5,2.3,0.2
		c5.9-3.1,11.7-6.4,16.1-8.9C46,73.5,40.2,67,34,60C28,66.7,22.4,73,16.5,79.5z M13,80.5c-3.1,8.6-6.1,16.8-9.3,25.9
		c9.9-5.5,18.7-10.4,28.1-15.6C25.3,87.3,19.4,84,13,80.5z M65.3,106.4C62,97.2,59,89,55.9,80.5c-6.4,3.5-12.3,6.8-18.8,10.3
		C46.7,96.1,55.5,101,65.3,106.4z M15.2,74.5c0.2,0.1,0.5,0.3,0.7,0.4c5.3-5.7,10.5-11.3,15.9-17.1c-2.2-2.1-4.9-4.7-7.9-7.4
		C20.9,58.7,18,66.6,15.2,74.5z M37.5,57.5c5.3,6,10.3,11.8,15.4,17.5c0.3-0.2,0.6-0.4,0.8-0.6c-2.9-7.9-5.7-15.8-8.7-24
		C42,53.2,39.3,55.7,37.5,57.5z M34.5,57.1c2.7-2.9,5.1-5.5,7.6-8.2c-2.5-2.3-5-4.6-7.6-7c-2.6,2.5-5.2,4.9-7.3,6.9
		C29.5,51.5,31.8,54.1,34.5,57.1z M35.2,38.6c1.1-2.1,3-4.1,3.1-6.1c0.1-2.3-1.4-4.7-2.5-7c-0.2-0.5-2.3-0.8-2.5-0.5
		C29.5,29.6,30,34.6,35.2,38.6z M33.7,22.1c0.5,0,1.1,0,1.6,0c1.1-1.5,2.8-3,3.1-4.6c0.3-2.3-1.4-4-3.9-3.9c-2.5,0-4.3,1.6-3.9,4
		C30.8,19.2,32.6,20.6,33.7,22.1z M28.9,36.7c-1.2,3.3-2.2,6-3.2,8.8c0.2,0.1,0.4,0.3,0.7,0.4c2-1.9,4-3.8,6.2-5.8
		C31.3,39,30.3,38.1,28.9,36.7z M42.6,46c0.2-0.1,0.5-0.3,0.7-0.4c-1-2.8-2-5.6-3.2-8.9c-1.5,1.4-2.6,2.3-3.8,3.4
		C38.6,42.3,40.6,44.1,42.6,46z"/>
	<path class="st1" d="M50,0.3c6.7,4.5,9,11,8.8,18.4c-0.2,7.3-4.4,14.7-9.2,15.8c3.3-5.3,6.6-10.5,6.6-17C56.2,11,53.1,5.7,50,0.3z"
		/>
	<path class="st1" d="M20.1,0c-4.1,5.8-7.6,11-7.5,17.5s3.3,11.6,7.1,16.9c-4.5-0.1-8.9-7.5-9.6-15C9.4,11.5,13.9,1.5,20.1,0z"/>
	<path class="st1" d="M25.3,28.6c-0.8-0.3-1.7-0.3-2.3-0.8c-5.2-4.5-5.2-16.3,0.1-20.7c0.5-0.4,1.4-0.3,2.2-0.4
		c-0.1,0.7,0.1,1.5-0.2,1.9c-5.4,6.5-4.2,12.8,0.8,19C25.7,28,25.5,28.3,25.3,28.6z"/>
	<path class="st1" d="M43.1,27.4c5.2-6.2,6-12.5,0.6-18.9c-0.3-0.4,0-1.2,0.1-1.9c0.6,0.1,1.4,0,1.9,0.4c5.3,4.3,5.5,16,0.3,20.6
		c-0.6,0.5-1.6,0.5-2.5,0.8C43.4,28.1,43.3,27.8,43.1,27.4z"/>
</g>
<path class="st2" d="M63.4,55.4c-1.9-3.8-5.1-6.2-8.5-8.4c-3-1.9-6.1-3.4-9.5-4.5c-4.5-1.4-9-1.9-13.7-1.7
	c-3.9,0.2-7.7,0.9-11.4,2.2c-5.9,2.1-10.8,5.6-14.6,10.6c-0.4,0.6-0.9,1.2-1.3,1.8c0,0,0,0-0.1,0.1c-0.9-2-1.9-4-2.8-6
	c-1-2.4-1.7-4.8-2-7.4c-0.1-0.8,0.2-1.4,0.9-1.9c4.1-2.8,8.6-4.6,13.3-6.1c4.4-1.4,8.9-2.2,13.5-2.6c5.4-0.5,10.8-0.4,16.1,0.4
	c6.3,1,12.4,2.7,18.2,5.2c2.1,0.9,4.1,2.1,6,3.5c0.7,0.6,0.9,1.2,0.8,2.1c-0.6,3.7-1.9,7.2-3.7,10.5C64.2,54,63.8,54.7,63.4,55.4z"
	/>
<path class="st2" d="M34.2,86.8c-9.3-0.3-16.6-4.2-21.7-12.1c-1.2-1.9-2.1-4-2.8-6.1c-0.3-1,0.1-1.8,0.5-2.6
	c0.8-1.9,2.1-3.3,3.8-4.5c1-0.6,1.6-1.5,2.1-2.6c1.5-3.1,3.5-5.9,6.3-8.1c3.3-2.5,7-3.9,11.1-3.8c5.4,0.1,10.2,1.7,14.3,5.3
	c2,1.8,3.5,3.9,4.5,6.3c0.5,1.2,1.3,2.2,2.4,2.9c1.2,0.7,2.2,1.7,3.1,2.9c1.2,1.7,1.4,3.4,0.6,5.3c-1.8,4.8-4.7,8.8-8.8,11.8
	c-3.7,2.7-7.8,4.4-12.3,4.9c-0.7,0.1-1.4,0.1-2,0.2C34.9,86.8,34.6,86.8,34.2,86.8z M50,68.7c0-8.9-7-16-15.9-16
	c-8.7,0-15.8,7.1-15.8,16c0,8.6,7.2,15.8,15.8,15.7C42.9,84.4,50,77.3,50,68.7z M22.6,54c3.1-3.3,6.9-4.5,11.3-4.6
	c4.3,0,8.3,1.1,11.5,4.3c-1.5-1.8-3.3-3.1-5.5-3.9c-3.9-1.3-7.8-1.3-11.7,0C25.9,50.6,24.1,52,22.6,54z"/>
<path class="st2" d="M8.5,67.4c-0.3-0.7-0.6-1.5-0.9-2.2c-1-2.6-1.6-5.3-2.1-8C5.4,56,5.6,55,6.4,54.1c1.8-2,3.8-3.8,6-5.4
	c4.4-3.2,9.3-5.1,14.7-6c5.6-0.9,11.2-0.7,16.7,0.9c5.5,1.7,10.6,4.2,15.1,7.9c1.2,1,2.3,2.2,3.4,3.4c0.7,0.8,0.8,1.9,0.6,3
	c-0.3,1.6-0.6,3.3-0.9,4.9c-0.4,1.6-1,3.1-1.9,4.5c-0.2-0.4-0.3-0.8-0.4-1.2c-0.8-2.1-2.3-3.7-4.2-4.9c-1.1-0.7-1.8-1.6-2.4-2.7
	c-1.7-3.7-4.1-6.8-7.5-9c-2.5-1.7-5.4-2.6-8.4-3c-3.4-0.4-6.7-0.2-9.9,1c-4.5,1.6-7.9,4.6-10.4,8.6c-0.5,0.9-1,1.8-1.4,2.8
	c-0.4,0.9-1,1.6-1.8,2.2c-2,1.2-3.4,3-4.3,5.2c-0.2,0.4-0.4,0.8-0.6,1.2C8.7,67.3,8.6,67.3,8.5,67.4z"/>
<path class="st2" d="M68.6,40.1c-1.7-0.9-3.3-1.8-4.9-2.7c-4.1-2.1-8.4-3.7-12.9-4.8c-3.8-0.9-7.6-1.5-11.5-1.8c-4-0.3-8-0.4-12.1,0
	c-10,0.8-19.3,3.6-27.9,8.8c-0.1,0-0.1,0.1-0.2,0.1c-0.4-2-0.2-3.8,0.9-5.5c0.9-1.3,2.2-2.2,3.5-3c2.7-1.7,5.7-2.8,8.7-3.7
	c3.8-1.1,7.6-1.9,11.5-2.4c4.4-0.6,8.8-0.8,13.3-0.6c7.1,0.3,14,1.5,20.8,3.8c2.7,0.9,5.3,2,7.7,3.7c2.7,1.9,3.7,4.5,3.3,7.7
	C68.7,39.9,68.7,40,68.6,40.1z"/>
<path class="st2" d="M34.2,83.4c-8.3,0-14.8-6.6-14.9-14.9c0-8.1,6.7-14.7,14.8-14.7c8.1,0,14.8,6.6,14.8,14.7
	C49,76.7,42.4,83.4,34.2,83.4z M34.2,75.6c3.8,0,7-3.1,7-6.9c0-3.8-3.1-7-6.9-7c-3.9,0-7,3.1-7,6.9C27.2,72.4,30.3,75.5,34.2,75.6z
	 M28.2,64.1c1.4-1.5,3.1-2.6,5.2-2.8c2.1-0.2,4,0.4,5.6,1.8c2.6,2.3,3.2,6.1,1.5,9.2c-1.7,2.9-5.4,4.4-8.7,3.3
	c-2.3-0.8-3.8-2.3-4.6-4.5c-0.8-2.2-0.4-4.4,0.6-6.5c-2.4,2.9-1.5,7.8,1.9,10.3c3.3,2.5,8.3,1.6,10.7-1.9c2.5-3.7,1.5-8.5-2.4-10.9
	C34.4,59.8,29.8,61.4,28.2,64.1z M24,63.7c0,0.9,0.8,1.7,1.7,1.7c0.9,0,1.7-0.8,1.7-1.7c0-0.9-0.8-1.7-1.7-1.7
	C24.8,62,24,62.8,24,63.7z M25.8,71.8c-1,0-1.7,0.7-1.7,1.7c0,0.9,0.8,1.7,1.7,1.7c0.9,0,1.8-0.8,1.7-1.8
	C27.5,72.6,26.7,71.8,25.8,71.8z M35.9,78.4c0-0.9-0.8-1.7-1.7-1.7c-1,0-1.7,0.8-1.7,1.7c0,0.9,0.8,1.7,1.7,1.7
	C35.1,80.1,35.9,79.3,35.9,78.4z M42.9,61.4c1,0,1.7-0.8,1.7-1.7c0-0.9-0.8-1.7-1.7-1.7c-0.9,0-1.7,0.8-1.7,1.7
	C41.2,60.6,41.9,61.4,42.9,61.4z M46.2,67c0.9,0,1.7-0.8,1.7-1.7c0-0.9-0.8-1.7-1.7-1.7c-0.9,0-1.7,0.8-1.7,1.7
	C44.5,66.2,45.2,67,46.2,67z M20.5,71.9c0,1,0.7,1.7,1.7,1.8c1,0,1.7-0.8,1.7-1.8c0-0.9-0.8-1.7-1.7-1.7
	C21.3,70.2,20.5,71,20.5,71.9z M37.6,82.3c0.9,0,1.7-0.8,1.7-1.7c0-0.9-0.8-1.7-1.7-1.7c-0.9,0-1.8,0.8-1.8,1.7
	C35.8,81.5,36.6,82.3,37.6,82.3z M35.9,58.8c0-0.9-0.8-1.7-1.7-1.7c-0.9,0-1.7,0.8-1.7,1.7c0,0.9,0.8,1.7,1.7,1.7
	C35.1,60.6,35.9,59.8,35.9,58.8z M31.1,79c-1,0-1.7,0.8-1.7,1.7c0,0.9,0.8,1.7,1.7,1.7c0.9,0,1.7-0.8,1.7-1.7
	C32.8,79.7,32,79,31.1,79z M23.6,59.9c0,0.9,0.7,1.7,1.7,1.7c0.9,0,1.8-0.8,1.8-1.7c0-0.9-0.8-1.7-1.7-1.7
	C24.3,58.2,23.6,58.9,23.6,59.9z M31,60.2c0-1-0.7-1.7-1.7-1.7c-1,0-1.7,0.7-1.7,1.7c0,1,0.8,1.7,1.7,1.7C30.3,61.9,31,61.1,31,60.2
	z M40.7,60.1c0-0.9-0.7-1.7-1.7-1.7c-0.9,0-1.7,0.8-1.7,1.7c0,0.9,0.8,1.7,1.7,1.7C40,61.9,40.7,61.1,40.7,60.1z M23.8,65.5
	c0-1-0.7-1.7-1.7-1.7c-0.9,0-1.7,0.8-1.7,1.7c0,0.9,0.8,1.7,1.7,1.7C23.1,67.2,23.8,66.5,23.8,65.5z M30.9,58.3
	c0.9,0,1.7-0.8,1.7-1.7c0-1-0.8-1.8-1.8-1.7c-0.9,0-1.7,0.8-1.6,1.7C29.1,57.6,29.9,58.3,30.9,58.3z M40.9,63.8
	c0,0.9,0.7,1.7,1.7,1.7c1,0,1.7-0.7,1.7-1.7c0-0.9-0.8-1.7-1.7-1.7C41.7,62,40.9,62.8,40.9,63.8z M24.4,70.3c1,0,1.7-0.7,1.7-1.7
	c0-0.9-0.8-1.7-1.7-1.7c-1,0-1.7,0.8-1.7,1.7C22.7,69.6,23.5,70.3,24.4,70.3z M31,77.1c0-0.9-0.7-1.7-1.7-1.8
	c-0.9,0-1.7,0.8-1.7,1.7c0,0.9,0.7,1.7,1.7,1.7C30.2,78.8,31,78,31,77.1z M42.7,71.8c-1,0-1.7,0.7-1.8,1.6c0,1,0.7,1.8,1.6,1.8
	c0.9,0,1.7-0.7,1.8-1.7C44.3,72.6,43.6,71.8,42.7,71.8z M43,79c1,0,1.7-0.7,1.8-1.6c0-0.9-0.7-1.7-1.7-1.7c-1,0-1.7,0.7-1.7,1.7
	C41.4,78.3,42.1,79,43,79z M39,56.5c0-0.9-0.8-1.7-1.7-1.7c-0.9,0-1.7,0.8-1.7,1.7c0,0.9,0.8,1.7,1.7,1.7C38.2,58.3,39,57.5,39,56.5
	z M40.7,77c0-0.9-0.8-1.7-1.7-1.7c-0.9,0-1.7,0.8-1.7,1.7c0,0.9,0.8,1.7,1.7,1.7C40,78.7,40.7,78,40.7,77z M45.6,68.6
	c0-1-0.7-1.7-1.7-1.7c-0.9,0-1.7,0.8-1.7,1.7c0,0.9,0.8,1.7,1.7,1.7C44.9,70.3,45.6,69.6,45.6,68.6z M46.2,73.4c1,0,1.7-0.7,1.7-1.7
	c0-1-0.7-1.7-1.7-1.7c-0.9,0-1.7,0.8-1.7,1.7C44.5,72.6,45.3,73.4,46.2,73.4z M27.2,77.5c0-0.9-0.8-1.7-1.7-1.7
	c-0.9,0-1.7,0.7-1.7,1.7c0,1,0.7,1.7,1.7,1.7C26.4,79.2,27.2,78.5,27.2,77.5z"/>
<path class="st2" d="M34.1,75.2c-3.6,0-6.6-3-6.6-6.6c0-3.7,3-6.7,6.6-6.7c3.7,0,6.7,3,6.7,6.7C40.8,72.3,37.8,75.2,34.1,75.2z
	 M38,68.6c0-2.1-1.7-3.8-3.8-3.8c-2.1,0-3.8,1.7-3.8,3.8c0,2.1,1.7,3.8,3.8,3.8C36.3,72.4,38,70.7,38,68.6z"/>
<path class="st2" d="M30.9,68.6c0-1.9,1.5-3.4,3.3-3.3c1.8,0,3.2,1.5,3.2,3.3c0,1.8-1.5,3.3-3.3,3.2C32.3,71.9,30.9,70.4,30.9,68.6z
	 M35.7,68.6c0-0.9-0.7-1.6-1.6-1.6c-0.9,0-1.6,0.7-1.6,1.6c0,0.9,0.7,1.6,1.6,1.6C35,70.2,35.7,69.5,35.7,68.6z"/>
</svg>
