<?xml version="1.0" encoding="utf-8"?>
<!-- Generator: Adobe Illustrator 25.4.1, SVG Export Plug-In . SVG Version: 6.00 Build 0)  -->
<svg version="1.1" id="Слой_1" xmlns="http://www.w3.org/2000/svg" xmlns:xlink="http://www.w3.org/1999/xlink" x="0px" y="0px"
	 viewBox="0 0 90.4 125.2" style="enable-background:new 0 0 90.4 125.2;" xml:space="preserve">
<style type="text/css">
	.st0{fill:#FFFFFF;}
</style>
<g>
	<path class="st0" d="M49.4,0c7,1.3,13.9,3,19.9,7C84.6,17.2,92,31.5,90.1,49.7c-1.9,18.6-12.4,31-29.7,37.9c-1,0.4-2.2,0.6-3.2,0.6
		c-0.4,0-1.2-1.4-1.1-1.6c0.5-0.8,1.3-1.8,2.2-2.1c6.6-2.4,12.4-5.8,17.1-11c10.8-11.9,14.2-25.7,9.1-40.9
		C79.4,16.8,68.3,7.2,52,4.5C30.7,1,10.4,14.2,5.2,34.5c-5.4,21,5.6,41.9,26,49.5c0.6,0.2,1.4,0.3,1.7,0.7c0.6,0.7,1,1.7,1.5,2.5
		c-0.9,0.3-2.1,1.1-2.8,0.8c-5.1-2.5-10.6-4.7-15-8.1C2.9,69.3-3.3,50,1.7,33.5C7.2,15,19.6,4,38.7,0.7c0.9-0.2,1.7-0.4,2.5-0.7
		C43.9,0,46.7,0,49.4,0z"/>
	<path class="st0" d="M26.2,125.2c-2.6-3.5-1.9-7.4-0.4-11c1.2-3,4.4-3.5,7.4-3.2c2.7,0.2,4.1-1.5,6.1-2.8c5.3-3.2,4.2-7.8,4.2-12.3
		c0-13.2,0-26.5,0-39.7c0-2-0.1-3.3-2.3-4.4c-3.4-1.7-4.6-5.5-3.6-9c1-3.4,4.2-5.7,7.9-5.7c3.5,0,6.6,2.4,7.6,5.6
		c1,3.5-0.2,7.2-3.6,9c-1.8,1-2.3,2.1-2.3,4.1c0.1,15.5,0,31,0.1,46.4c0,1.2,1.3,2.5,2.1,3.7c2.8,4.1,6.6,5.4,11.5,5.5
		c1.6,0,4,2.7,4.6,4.5c0.8,2.9,1.6,6.4-1,9.2C51.7,125.2,38.9,125.2,26.2,125.2z M61.8,121.3c0.7-6,0.3-6.5-5.2-6.5
		c-7.6,0-15.2,0-22.9,0c-5.1,0-5.9,1.1-4.7,6.5C39.9,121.3,50.7,121.3,61.8,121.3z M41.1,46.3c1,0.7,2.4,2.6,4.1,3
		c2.4,0.5,4.1-1.3,4.3-4c0.1-2.8-1.5-4.3-4-4.4C43,40.8,41.3,42.2,41.1,46.3z"/>
	<path class="st0" d="M45.5,12.5c15.3,0.2,28.2,10.4,31.7,24.9c3.4,14.4-3.1,29.3-16,36.3c-0.9,0.5-1.7,1.1-2.7,1.2
		c-0.7,0.1-1.5-0.4-2.3-0.6c0.3-0.9,0.3-1.9,0.8-2.5c0.6-0.7,1.7-1,2.6-1.5c11.6-6.6,17.1-19.8,13.8-32.7
		c-3.2-12.3-14.8-21.3-27.9-21.5C32.8,15.9,20.7,25,17.3,37.3c-3.5,12.8,1.9,26,13.3,32.9c1.5,0.9,4.8,1,3.5,4.1
		c-0.2,0.4-3.8-0.1-5.4-1c-12.9-7.4-19.1-22.9-15-37C17.8,22,30.9,12.3,45.5,12.5z"/>
	<path class="st0" d="M45.4,28.5c-6.9,0.3-12,3.4-15.1,9.5c-3,6.2-2.1,12.1,2,17.6c1,1.4,3.9,2.7,1.4,4.7c-0.4,0.4-3.3-1.4-4.4-2.7
		c-6.8-8.3-5.6-20.3,2.5-27.6c7.7-7,20-6.8,27.6,0.5c7.9,7.6,8.7,19.5,1.6,27.7c-1,1.1-2.9,1.5-4.4,2.2c0.5-1.5,0.6-3.2,1.5-4.4
		c4.2-5.6,5.3-11.6,2.2-17.9C57.3,31.9,52.2,28.8,45.4,28.5z"/>
</g>
</svg>
