<?xml version="1.0" encoding="utf-8"?>
<!-- Generator: Adobe Illustrator 25.4.1, SVG Export Plug-In . SVG Version: 6.00 Build 0)  -->
<svg version="1.1" id="Слой_1" xmlns="http://www.w3.org/2000/svg" xmlns:xlink="http://www.w3.org/1999/xlink" x="0px" y="0px"
	 viewBox="0 0 90.4 125.2" style="enable-background:new 0 0 90.4 125.2;" xml:space="preserve">
<style type="text/css">
	.st0{display:none;}
	.st1{display:inline;fill:#FFFFFF;}
	.st2{fill:#FFFFFF;}
</style>
<g class="st0">
	<path class="st1" d="M49.4,0c7,1.3,13.9,3,19.9,7C84.6,17.2,92,31.5,90.1,49.7c-1.9,18.6-12.4,31-29.7,37.9c-1,0.4-2.2,0.6-3.2,0.6
		c-0.4,0-1.2-1.4-1.1-1.6c0.5-0.8,1.3-1.8,2.2-2.1c6.6-2.4,12.4-5.8,17.1-11c10.8-11.9,14.2-25.7,9.1-40.9
		C79.4,16.8,68.3,7.2,52,4.5C30.7,1,10.4,14.2,5.2,34.5c-5.4,21,5.6,41.9,26,49.5c0.6,0.2,1.4,0.3,1.7,0.7c0.6,0.7,1,1.7,1.5,2.5
		c-0.9,0.3-2.1,1.1-2.8,0.8c-5.1-2.5-10.6-4.7-15-8.1C2.9,69.3-3.3,50,1.7,33.5C7.2,15,19.6,4,38.7,0.7c0.9-0.2,1.7-0.4,2.5-0.7
		C43.9,0,46.7,0,49.4,0z"/>
	<path class="st1" d="M26.2,125.2c-2.6-3.5-1.9-7.4-0.4-11c1.2-3,4.4-3.5,7.4-3.2c2.7,0.2,4.1-1.5,6.1-2.8c5.3-3.2,4.2-7.8,4.2-12.3
		c0-13.2,0-26.5,0-39.7c0-2-0.1-3.3-2.3-4.4c-3.4-1.7-4.6-5.5-3.6-9c1-3.4,4.2-5.7,7.9-5.7c3.5,0,6.6,2.4,7.6,5.6
		c1,3.5-0.2,7.2-3.6,9c-1.8,1-2.3,2.1-2.3,4.1c0.1,15.5,0,31,0.1,46.4c0,1.2,1.3,2.5,2.1,3.7c2.8,4.1,6.6,5.4,11.5,5.5
		c1.6,0,4,2.7,4.6,4.5c0.8,2.9,1.6,6.4-1,9.2C51.7,125.2,38.9,125.2,26.2,125.2z M61.8,121.3c0.7-6,0.3-6.5-5.2-6.5
		c-7.6,0-15.2,0-22.9,0c-5.1,0-5.9,1.1-4.7,6.5C39.9,121.3,50.7,121.3,61.8,121.3z M41.1,46.3c1,0.7,2.4,2.6,4.1,3
		c2.4,0.5,4.1-1.3,4.3-4c0.1-2.8-1.5-4.3-4-4.4C43,40.8,41.3,42.2,41.1,46.3z"/>
	<path class="st1" d="M45.5,12.5c15.3,0.2,28.2,10.4,31.7,24.9c3.4,14.4-3.1,29.3-16,36.3c-0.9,0.5-1.7,1.1-2.7,1.2
		c-0.7,0.1-1.5-0.4-2.3-0.6c0.3-0.9,0.3-1.9,0.8-2.5c0.6-0.7,1.7-1,2.6-1.5c11.6-6.6,17.1-19.8,13.8-32.7
		c-3.2-12.3-14.8-21.3-27.9-21.5C32.8,15.9,20.7,25,17.3,37.3c-3.5,12.8,1.9,26,13.3,32.9c1.5,0.9,4.8,1,3.5,4.1
		c-0.2,0.4-3.8-0.1-5.4-1c-12.9-7.4-19.1-22.9-15-37C17.8,22,30.9,12.3,45.5,12.5z"/>
	<path class="st1" d="M45.4,28.5c-6.9,0.3-12,3.4-15.1,9.5c-3,6.2-2.1,12.1,2,17.6c1,1.4,3.9,2.7,1.4,4.7c-0.4,0.4-3.3-1.4-4.4-2.7
		c-6.8-8.3-5.6-20.3,2.5-27.6c7.7-7,20-6.8,27.6,0.5c7.9,7.6,8.7,19.5,1.6,27.7c-1,1.1-2.9,1.5-4.4,2.2c0.5-1.5,0.6-3.2,1.5-4.4
		c4.2-5.6,5.3-11.6,2.2-17.9C57.3,31.9,52.2,28.8,45.4,28.5z"/>
</g>
<g>
	<path class="st2" d="M33,76.1c4,1.6,7.8,1.6,11.8,0c0.1,0.7-0.1,1.3-0.4,1.9c-0.5,1.1-1.3,2.1-2.4,2.7c-0.2,0.1-0.3,0.3-0.3,0.6
		c0.2,3.3,0.5,6.7,0.7,10v0.1c0.1-0.1,0.1-0.1,0.2-0.1c3.4-4.9,6.8-9.8,9.6-15c0.7-1.3,1.3-2.7,1.9-4c0.2-0.5,0.3-1.2,0.5-1.8
		c4.5,0.4,8.6,2,12.5,4.7c-0.8,0.7-1.5,1.4-2.2,2.1c-4.7,4.7-9.4,9.3-14,14c-1,1-2,1.9-2.9,2.9c-2.6,2.7-2.6,6.7,0.1,9.3
		c2.5,2.4,6.5,2.3,9.1-0.2c2.8-2.8,5.5-5.5,8.3-8.3c3.2-3.2,6.4-6.4,9.7-9.7c0.1-0.1,0.2-0.2,0.4-0.4c0.5,1.2,0.9,2.4,1.3,3.5
		c1,3.3,1.4,6.7,1,10.1c-0.3,2.9-1.2,5.6-3.5,7.6c-1.4,1.3-3.1,2.1-4.9,2.7c-2.7,0.9-5.5,1.1-8.4,1.3c-1.7,0.1-3.5,0.1-5.3,0.1
		c-11.6,0-23.2,0-34.8,0c-3.6,0-7.2-0.2-10.8-0.9c-2.2-0.5-4.3-1.2-6.1-2.7c-2.3-1.8-3.5-4.2-3.9-7.1c-0.9-5.9,0.2-11.4,3.2-16.4
		c4.1-7,10.3-11.2,18.3-12.5c0.3,0,0.5-0.1,0.8-0.1c0.2,0,0.5,0,0.7-0.1c0,0,0.1,0,0.1,0.1c0.4,2.1,1.4,4,2.5,5.9
		c2.7,4.9,5.9,9.6,9.1,14.2c0.2,0.3,0.4,0.6,0.7,1c0.1-0.7,0.1-1.3,0.2-1.9c0.2-2.7,0.4-5.5,0.6-8.2c0-0.4-0.1-0.6-0.4-0.8
		c-1.5-0.9-2.4-2.2-2.7-4C33.1,76.5,33.1,76.4,33,76.1z"/>
	<path class="st2" d="M19.6,40.2c0.3-7.8,3.9-13.5,10.6-17.3c0.2,1.1,0.4,2.1,0.6,3.1c0.3,2,0.7,3.9,1,5.9c0.2,0.9,0.8,1.5,1.6,1.4
		c0.9-0.1,1.5-0.9,1.3-1.7c-0.5-3-1-6-1.6-8.9c0-0.2,0-0.3-0.1-0.5c-0.4-0.9,0.1-1.5,0.8-2s1.4-0.8,2.3-0.8c1.8,0,3.6,0,5.5,0
		c1.1,0,2.1,0.4,2.9,1.2c0.3,0.3,0.4,0.7,0.3,1.2c-0.6,3.2-1.1,6.4-1.7,9.6c-0.1,0.7,0,1.2,0.6,1.7c0.9,0.6,2.1,0.1,2.3-1
		c0.2-1.3,0.5-2.6,0.7-4c0.3-1.5,0.5-3,0.8-4.5c0-0.1,0.1-0.3,0.1-0.5c6.7,3.8,10.3,9.5,10.6,17.3c0.2,0,0.5,0,0.7,0
		c1.6,0,2.8,1.2,2.8,2.8c0,1.5-1.2,2.8-2.8,2.8c-6.9,0-13.8,0-20.7,0c-6.5,0-12.9,0-19.4,0c-1.6,0-2.7-0.9-2.9-2.4
		c-0.3-1.7,0.9-3.2,2.6-3.3C19,40.2,19.3,40.2,19.6,40.2z"/>
	<path class="st2" d="M88.5,69.9c0.6,0.7,1.2,1.3,1.8,1.9c0.1,0.1,0.1,0.3,0.1,0.5c-0.4,6.1-5.8,10.5-11.9,9.8
		c-0.7-0.1-1.4-0.3-2.2-0.5c-0.3-0.1-0.5-0.1-0.7,0.2c-2.8,2.8-5.6,5.6-8.4,8.4c-3.3,3.3-6.7,6.7-10,10c-0.6,0.6-1.2,1.2-1.8,1.8
		c-1.8,1.7-4.6,1.6-6.2-0.1c-1.7-1.7-1.7-4.5,0.1-6.2c5.1-5.1,10.3-10.3,15.4-15.4c1.5-1.5,3-3.1,4.6-4.6c0.3-0.3,0.4-0.6,0.2-1
		c-1.5-5.1,1-10.7,5.8-12.9c1.2-0.5,2.4-0.9,3.7-0.9c0.2,0,0.5,0.1,0.6,0.2c0.6,0.5,1.2,1.1,1.8,1.7c-1.1,1.1-2.2,2.2-3.2,3.2
		c-0.3,0.3-0.6,0.7-1,1c-0.7,0.5-0.9,1.3-0.9,2.1c0.1,0.8,0,1.6,0,2.5c0,0.2,0.1,0.5,0.3,0.7c0.8,0.8,1.6,1.6,2.4,2.4
		c0.2,0.2,0.5,0.3,0.7,0.3c1.1,0,2.2,0,3.3,0c0.2,0,0.5-0.1,0.6-0.3c1.5-1.5,2.9-2.9,4.4-4.4C88.3,70.1,88.4,70,88.5,69.9z
		 M52.5,96.7c-1.2,0-2.1,0.9-2.2,2.1c0,1.2,0.9,2.2,2.1,2.2c1.2,0,2.1-0.9,2.2-2.1C54.6,97.7,53.7,96.7,52.5,96.7z"/>
	<path class="st2" d="M58.1,48.8C58,49.9,57.9,51,57.7,52c-0.6,3.5-1.7,7-3.4,10.1c-1.9,3.5-4.3,6.6-7.7,8.7
		c-5.1,3.2-11.4,2.9-16.2-0.7c-3.5-2.7-5.9-6.2-7.7-10.1c-1.5-3.5-2.4-7.1-2.8-10.8c0-0.1,0-0.2,0-0.3v-0.1c0.7,0,1.5,0,2.2,0
		c0.1,1,0.3,1.9,0.4,2.8c0.7,4,2.1,7.8,4.4,11.3c1.9,2.8,4.3,5.1,7.5,6.4c4.5,1.8,8.7,1,12.5-1.9c2.9-2.2,4.9-5.2,6.4-8.5
		c1.4-3.1,2.2-6.3,2.5-9.6c0-0.3,0.1-0.5,0.5-0.4c0.6,0,1.1,0,1.7,0C58,48.7,58,48.8,58.1,48.8z"/>
</g>
</svg>
