<?xml version="1.0" encoding="utf-8"?>
<!-- Generator: Adobe Illustrator 25.4.1, SVG Export Plug-In . SVG Version: 6.00 Build 0)  -->
<svg version="1.1" id="Слой_1" xmlns="http://www.w3.org/2000/svg" xmlns:xlink="http://www.w3.org/1999/xlink" x="0px" y="0px"
	 viewBox="0 0 500 500" style="enable-background:new 0 0 500 500;" xml:space="preserve">
<style type="text/css">
	.st0{fill:url(#SVGID_1_);}
	.st1{fill:url(#SVGID_00000059303723961822393320000017101780094078198958_);}
	.st2{fill:url(#SVGID_00000014631300523740229350000007502690524005871776_);}
	.st3{fill:url(#SVGID_00000060022108856751152490000003048883983241996422_);}
	.st4{fill:url(#SVGID_00000136370129221068152600000014305522871730009223_);}
	.st5{fill:url(#SVGID_00000160888205188396962930000009226125397519139233_);}
	.st6{fill:url(#SVGID_00000073682251885866887800000006088492494882970513_);}
	.st7{fill:url(#SVGID_00000109008363219517881770000000917100710258458248_);}
	.st8{fill:url(#SVGID_00000165198473504898337180000002005331084010235064_);}
	.st9{fill:url(#SVGID_00000044136071989471328560000002409871659935964819_);}
	.st10{fill:url(#SVGID_00000134226656984396469550000002544921431253593482_);}
	.st11{fill:url(#SVGID_00000003819060370316799550000008433001037343302316_);}
	.st12{fill:url(#SVGID_00000114763898100816868840000009291249511958845067_);}
	.st13{fill:url(#SVGID_00000032638887813734548020000015569831618506200964_);}
	.st14{fill:url(#SVGID_00000135681401081822328210000017003110846341656982_);}
	.st15{fill:url(#SVGID_00000118379791466812932140000008180978244956961684_);}
	.st16{fill:url(#SVGID_00000176757781370747126050000005147159768908309406_);}
	.st17{fill:url(#SVGID_00000034804812967724299370000006399576915511880579_);}
	.st18{fill:url(#SVGID_00000023984636077976390050000017823843118751834543_);}
	.st19{fill:url(#SVGID_00000067208230654390792530000012937329050906393002_);}
	.st20{fill:url(#SVGID_00000164492324093775488560000017403812515513832125_);}
	.st21{fill:url(#SVGID_00000083810949476606518980000006334569828584759948_);}
	.st22{fill:url(#SVGID_00000031911056985305953980000002276995662262241465_);}
	.st23{fill:url(#SVGID_00000108991807335773154420000009739718585907347384_);}
	.st24{fill:url(#SVGID_00000042736102512918991630000007422723381359174550_);}
	.st25{fill:url(#SVGID_00000125572357254513949070000010899925349465156762_);}
	.st26{fill:url(#SVGID_00000175284281330446975960000014437002787276064954_);}
	.st27{fill:none;stroke:url(#SVGID_00000031189393525789654990000003578237942919226500_);stroke-width:10;stroke-miterlimit:10;}
</style>
<g>
	<linearGradient id="SVGID_1_" gradientUnits="userSpaceOnUse" x1="221.1425" y1="103.1863" x2="330.7104" y2="233.7642">
		<stop  offset="0" style="stop-color:#FF7BAC"/>
		<stop  offset="1" style="stop-color:#FF7BAC;stop-opacity:0"/>
	</linearGradient>
	<path class="st0" d="M82.7,220.7c4.2-1.6,8.4-3.2,12.5-4.9c4.4-1.8,8.8-3.9,13.2-5.6c14.9-5.7,29.8-11.5,44.9-16.7
		c34-11.8,68.6-21.7,103.3-31c56.4-15,113.2-28.2,170.4-39.7c0.6-0.1,1.1-0.3,1.7-0.3c3.8-0.4,4.5,0.1,5.2,3.8
		c0.9,4.1,1.7,8.2,3.3,12.4c1.8-3.9,3.7-7.8,5.3-11.8c0.9-2.3,2.1-3,4.5-2.6c4.3,0.7,8.6,1,13.1,0.9c-3.1-2.9-6.1-6-9.5-8.7
		c-2.1-1.7-2.2-3.1-1-5.3c1.9-3.8,3.5-7.7,5.3-11.6c-0.2-0.2-0.3-0.5-0.5-0.7c-1.8,1.1-3.6,2.2-5.5,3.2c-2.9,1.5-5.9,4.4-8.6,4.1
		c-2.6-0.2-4.8-3.8-7.2-5.8c-1.6-1.4-3.1-2.8-5.2-3.9c1,4.8,1.9,9.7,2.9,14.8c-5.3,1.2-10.3,2.4-15.4,3.5
		c-49.3,11.2-98.2,23.6-146.9,37.3c-37.6,10.6-74.9,22-111.6,35.4c-13.7,5-27.2,10.4-40.7,15.8c-7,2.8-13.9,6-20.8,9.2
		c-3.1,1.5-6,3.4-9.1,5c-0.7,0.4-1.5,0.5-2.2,0.9c-0.8,0.5-1.5,1.1-2.2,1.7C82.3,220.1,82.5,220.4,82.7,220.7z"/>
	
		<linearGradient id="SVGID_00000159461229522811345150000013350697820138864302_" gradientUnits="userSpaceOnUse" x1="164.3905" y1="119.5049" x2="224.9896" y2="191.7241">
		<stop  offset="0" style="stop-color:#FF7BAC"/>
		<stop  offset="1" style="stop-color:#FF7BAC;stop-opacity:0"/>
	</linearGradient>
	<path style="fill:url(#SVGID_00000159461229522811345150000013350697820138864302_);" d="M330.2,101.3c0.9-2.8,1.9-5.6,2.6-8.4
		c0.5-1.9,1.3-2.7,3.4-2.6c3,0.2,5.9-0.1,9.8-0.2c-2.8-2-4.8-3.8-7.1-5.1c-2.7-1.5-3-3.2-1.9-5.9c1-2.4,1.5-4.9,1.8-7.7
		c-2.2,1.6-4.4,3.1-6.5,4.9c-1.9,1.6-3.4,1.9-5.5,0.1c-2.1-1.8-4.5-3.2-7.2-4.3c1.1,3.3,2.1,6.5,3.3,10.1c-3.5,1.3-7,2.5-10.3,3.8
		c-11.5,4.3-23,8.5-34.3,13c-24,9.5-48.1,18.7-71.9,28.8c-40.7,17.2-80.9,35.5-118.5,59c-13.5,8.4-26.7,17.4-36.9,30
		c-3.7,4.5-6.7,9.4-6.7,15.5c3.4-14.6,14.5-22.9,25.6-31c20.5-15.1,43-26.9,66.2-37.3c25.9-11.7,52.1-22.8,78.3-33.8
		c12.6-5.3,25.5-10,38.3-14.7c22.6-8.2,45.3-16.2,68-24.2c4.7-1.7,4.8-1.5,6.4,3c0.8,2.3,1.7,4.7,2.5,7
		C329.8,101.3,330,101.3,330.2,101.3z"/>
	
		<linearGradient id="SVGID_00000147180978697313969610000011185626754502595743_" gradientUnits="userSpaceOnUse" x1="139.3525" y1="125.8715" x2="170.9459" y2="163.5231">
		<stop  offset="0" style="stop-color:#FF7BAC"/>
		<stop  offset="1" style="stop-color:#FF7BAC;stop-opacity:0"/>
	</linearGradient>
	<path style="fill:url(#SVGID_00000147180978697313969610000011185626754502595743_);" d="M270.2,80.2c0.4-2.5,0.9-4.9,1.2-7.4
		c0.2-1.8,0.9-2.7,2.8-2.9c2.6-0.2,5.1-0.8,7.9-1.8c-3-1.6-5.9-3.1-9-4.7c0.5-3.4,1-6.7,1.6-10.9c-2.2,2.2-4,3.6-5.4,5.4
		c-1.7,2.3-3.4,2.2-5.6,0.8c-1.8-1.1-3.9-2-6.3-2.6c1.3,2.7,2.7,5.4,4.1,8.4c-1.1,0.6-2,1.2-3,1.8c-37.5,19.8-74.5,40.8-110.5,63.3
		c-21.8,13.6-43.2,27.7-63.6,43.2c-14.4,11-28.5,22.4-40.1,36.5c-4.3,5.1-8.2,10.5-9.8,17.2c-0.6,2.6-0.5,5.4-0.3,8.2
		c-0.8-8.4,3.4-15,8.2-21.2c8.4-10.9,18.7-19.7,29.5-28.1c34.4-26.8,71.6-49,109.6-70.2c23.2-12.9,46.7-25.2,70.1-37.8
		c3.4-1.8,6.8-3.6,10.3-5.3c2.1-1,3.8-1,4.7,1.7c0.8,2.2,2.1,4.2,3.2,6.4C269.7,80.3,270,80.3,270.2,80.2z"/>
	
		<linearGradient id="SVGID_00000104669887658300033440000008542270104182415269_" gradientUnits="userSpaceOnUse" x1="173.6911" y1="158.3115" x2="258.2672" y2="259.1053">
		<stop  offset="0" style="stop-color:#FF7BAC"/>
		<stop  offset="1" style="stop-color:#FF7BAC;stop-opacity:0"/>
	</linearGradient>
	<path style="fill:url(#SVGID_00000104669887658300033440000008542270104182415269_);" d="M84.4,234.1c0.6-0.1,1.3-0.1,1.9-0.3
		c32.5-12.3,66.2-19.6,100.1-26.4c43.9-8.8,88.1-15.4,132.5-20.9c4.1-0.5,4.4-0.2,4.9,3.8c0.3,2,0.5,4,0.8,6c0,0.3,0.1,0.6,0.3,1.6
		c2-3.5,3.7-6.5,5.5-9.7c3.4,0.6,6.8,1.3,10.1,1.9c0.1-0.2,0.2-0.4,0.4-0.5c-1.8-1.9-3.5-3.9-5.4-5.7c-1.4-1.3-1.7-2.5-0.6-4.2
		c1.4-2.1,2.5-4.5,3.4-7.3c-2.6,1.1-5.1,2.4-7.7,3.4c-0.9,0.3-2.4,0.1-3.1-0.6c-2.1-1.8-3.9-3.9-6.3-5.8c0.3,3.1,0.7,6.1,1,9.5
		c-5.6,0.8-11.1,1.7-16.6,2.5c-51.1,7.7-102,16.7-152.1,29.5c-18.6,4.7-36.8,10.7-55.2,16.3c-4.1,1.2-8.1,3-12.1,4.6
		c-0.9,0.3-1.5,1.2-2.3,1.8C84.2,233.7,84.3,233.9,84.4,234.1z"/>
	
		<linearGradient id="SVGID_00000157290821521637042950000012231288921075164576_" gradientUnits="userSpaceOnUse" x1="139.7786" y1="201.222" x2="233.5967" y2="313.0301">
		<stop  offset="0" style="stop-color:#FF7BAC"/>
		<stop  offset="1" style="stop-color:#FF7BAC;stop-opacity:0"/>
	</linearGradient>
	<path style="fill:url(#SVGID_00000157290821521637042950000012231288921075164576_);" d="M284.9,262.8c1.9-2.1,3.3-3.5,4.5-5.1
		c1-1.3,1.9-1.3,3.2-0.7c1.7,0.8,3.5,1.5,5.7,1.7c-0.9-1.5-1.7-3.1-2.7-4.6c-1.1-1.5-0.9-2.7,0.4-4c1.3-1.3,2.3-2.7,3.7-4.4
		c-0.9,0.1-1.3,0.1-1.6,0.1c-2.2,0.4-4.7,1.7-6.4,1c-1.7-0.7-2.5-3.5-3.7-5.3c-0.1-0.2-0.4-0.4-1-1c-0.2,1.5-0.3,2.7-0.4,3.9
		c-0.1,1.1-0.3,2.3-0.4,3.5c-10.1-0.6-20-1.2-29.9-1.7c-41.6-2-83.3-3.1-124.9-0.1c-16.2,1.2-32.3,3-47.9,7.6
		c-5.6,1.7-11,4-15.5,7.8c7.7-5.2,16.4-7.5,25.3-9.2c18.1-3.4,36.4-4.3,54.7-4.7c33.2-0.7,66.3,0.7,99.4,2.9
		c11.4,0.7,22.9,1.7,34.3,2.7c4,0.3,4,0.4,3.7,4.3C285.2,259,285.1,260.5,284.9,262.8z"/>
	
		<linearGradient id="SVGID_00000060741418422721431560000016159606536795839638_" gradientUnits="userSpaceOnUse" x1="356.5849" y1="217.6758" x2="369.999" y2="233.662">
		<stop  offset="0" style="stop-color:#FF7BAC"/>
		<stop  offset="1" style="stop-color:#FF7BAC;stop-opacity:0"/>
	</linearGradient>
	<path style="fill:url(#SVGID_00000060741418422721431560000016159606536795839638_);" d="M357.1,217.2c2.5,5.4,1.7,9.4-4.9,10.8
		c0.2,0.2,0.3,0.5,0.5,0.7c1.5,0.2,3,0.6,4.5,0.7c2.1,0.1,3.1,0.8,3.3,3c0.1,1.6,0.6,3.1,1,4.8c0.4-0.3,0.6-0.3,0.6-0.4
		c1.1-2.1,1.7-5,3.5-6.1c1.6-1,4.4,0.1,7.5,0.3c-1.6-1.5-2.5-2.8-3.8-3.6c-1.8-1.3-1.9-2.6-0.9-4.4c0.7-1.1,1.1-2.4,2-4.5
		c-2.1,1-3.6,1.6-4.8,2.4c-1.6,1-2.7,0.9-4-0.5c-1.1-1.2-2.4-2.2-3.6-3.2C357.7,217.2,357.4,217.2,357.1,217.2z"/>
	
		<linearGradient id="SVGID_00000013912452205693247200000003540425866333470860_" gradientUnits="userSpaceOnUse" x1="58.3358" y1="161.285" x2="70.2239" y2="175.4527">
		<stop  offset="0" style="stop-color:#FF7BAC"/>
		<stop  offset="1" style="stop-color:#FF7BAC;stop-opacity:0"/>
	</linearGradient>
	<path style="fill:url(#SVGID_00000013912452205693247200000003540425866333470860_);" d="M63.3,178.7c1-2,1.9-4,2.9-6.1
		c2.3,0.2,4.4,0.5,6.6,0.7c-4.1-3.1-5.8-6.5-1.8-10.7c-0.5-0.3-0.7-0.5-0.8-0.5c-1.9,0.8-3.9,2.5-5.7,2.3c-1.7-0.2-3.2-2.4-5.3-3.7
		c2.2,5.2,0.8,8.5-4.6,9.9C54.9,170.8,63.2,178.6,63.3,178.7z"/>
	
		<linearGradient id="SVGID_00000042739066222770822770000009446571881285090986_" gradientUnits="userSpaceOnUse" x1="377.1081" y1="86.0019" x2="389.3896" y2="100.6385">
		<stop  offset="0" style="stop-color:#FF7BAC"/>
		<stop  offset="1" style="stop-color:#FF7BAC;stop-opacity:0"/>
	</linearGradient>
	<path style="fill:url(#SVGID_00000042739066222770822770000009446571881285090986_);" d="M392.7,97.9c-4.7-2.6-6.5-5.8-3.1-10.6
		c-1.9,0.8-3.9,2.5-5.7,2.3c-1.8-0.2-3.3-2.3-5.8-4.3c2.1,5.3,1.7,9.1-4.4,10.3c0.2,0.2,0.3,0.5,0.5,0.7c2.1,0.4,4.7,0.1,6,1.3
		c1.4,1.3,1.4,3.9,2.1,6.4c1.3-2.2,1.9-4.9,3.5-5.8c1.5-0.9,4.1,0.1,6.2,0.2C392.2,98.1,392.5,98,392.7,97.9z"/>
	
		<linearGradient id="SVGID_00000165952031472915027000000016347735536448451247_" gradientUnits="userSpaceOnUse" x1="476.2142" y1="158.6656" x2="485.9528" y2="170.2716">
		<stop  offset="0" style="stop-color:#FF7BAC"/>
		<stop  offset="1" style="stop-color:#FF7BAC;stop-opacity:0"/>
	</linearGradient>
	<path style="fill:url(#SVGID_00000165952031472915027000000016347735536448451247_);" d="M476.9,158.1c1.1,4,0.4,6.9-4.2,8.4
		c4.3,0.1,7.3,1.4,6.9,6.7c1.4-4.8,4.1-6.1,8.6-4.8c-3.4-2.7-5.4-5.4-1.4-9.3c-0.3,0-0.7,0-1,0c-1.6,0.7-3.3,2.1-4.8,2
		C479.5,160.9,478.2,159.1,476.9,158.1z"/>
	
		<linearGradient id="SVGID_00000143574874203913273560000010776233304608163217_" gradientUnits="userSpaceOnUse" x1="419.6842" y1="24.7236" x2="429.2477" y2="36.1209">
		<stop  offset="0" style="stop-color:#FF7BAC"/>
		<stop  offset="1" style="stop-color:#FF7BAC;stop-opacity:0"/>
	</linearGradient>
	<path style="fill:url(#SVGID_00000143574874203913273560000010776233304608163217_);" d="M420.3,24.2c2.2,4.8-0.6,6.4-4.1,8.1
		c4.5,0,7.6,1.2,6.8,6.9c1.4-4.7,3.9-6.4,8.5-5c-3.8-2.6-4.7-5.5-1.9-9.3C426.3,26.6,423.2,28.4,420.3,24.2z"/>
	
		<linearGradient id="SVGID_00000127722829563031759250000008007047119453527708_" gradientUnits="userSpaceOnUse" x1="4.76" y1="240.0616" x2="13.7925" y2="250.8262">
		<stop  offset="0" style="stop-color:#FF7BAC"/>
		<stop  offset="1" style="stop-color:#FF7BAC;stop-opacity:0"/>
	</linearGradient>
	<path style="fill:url(#SVGID_00000127722829563031759250000008007047119453527708_);" d="M5.4,239.5c1.3,3.8,0.9,6.6-3.5,8
		c4.1,0.1,6.3,1.7,6.2,6c1.6-3.1,3-6,7.5-4.3c-3.4-2.6-3.7-5.3-1.5-8.8C10.8,243.5,8.1,242.8,5.4,239.5z"/>
	
		<linearGradient id="SVGID_00000147942264828031176250000003236196488204137372_" gradientUnits="userSpaceOnUse" x1="190.5165" y1="146.0491" x2="199.5209" y2="156.7801">
		<stop  offset="0" style="stop-color:#FF7BAC"/>
		<stop  offset="1" style="stop-color:#FF7BAC;stop-opacity:0"/>
	</linearGradient>
	<path style="fill:url(#SVGID_00000147942264828031176250000003236196488204137372_);" d="M201.6,155c-3.5-2.3-4.2-5-1.7-8.6
		c-3.3,2.1-6.1,2.9-8.6-1.1c0.9,3.8,0.6,6.7-3.7,7.9c3.9,0.3,6.6,1.4,6.2,6.1C195.2,155.4,197.4,153.7,201.6,155z"/>
	
		<linearGradient id="SVGID_00000018919585107430516310000015284772218262514596_" gradientUnits="userSpaceOnUse" x1="27.8682" y1="257.2132" x2="51.1006" y2="284.9005">
		<stop  offset="0" style="stop-color:#FF7BAC"/>
		<stop  offset="1" style="stop-color:#FF7BAC;stop-opacity:0"/>
	</linearGradient>
	<path style="fill:url(#SVGID_00000018919585107430516310000015284772218262514596_);" d="M41.6,292.8
		c-14.8-11.2-21.6-25.3-2.1-44.3c-2.5-0.5-8.6,6.8-11.2,13.4C23.7,273.4,28.7,285.1,41.6,292.8z"/>
	
		<linearGradient id="SVGID_00000174573423225442555830000014515658746787418503_" gradientUnits="userSpaceOnUse" x1="71.7334" y1="266.9611" x2="79.5366" y2="276.2606">
		<stop  offset="0" style="stop-color:#FF7BAC"/>
		<stop  offset="1" style="stop-color:#FF7BAC;stop-opacity:0"/>
	</linearGradient>
	<path style="fill:url(#SVGID_00000174573423225442555830000014515658746787418503_);" d="M79.8,267.2c-2.9,2.2-5.1,2-7.4-0.8
		c1,3.3,0.4,5.6-3.2,6.7c3.2,0.3,5.9,1,5.5,5.4c1.2-3.5,3-5,6.7-3.8C78.6,272.6,77.6,270.4,79.8,267.2z"/>
	
		<linearGradient id="SVGID_00000019663028409716537740000015306249127842590895_" gradientUnits="userSpaceOnUse" x1="163.2899" y1="77.0527" x2="170.3441" y2="85.4596">
		<stop  offset="0" style="stop-color:#FF7BAC"/>
		<stop  offset="1" style="stop-color:#FF7BAC;stop-opacity:0"/>
	</linearGradient>
	<path style="fill:url(#SVGID_00000019663028409716537740000015306249127842590895_);" d="M161.5,82.8c3,0.2,4.6,1.4,4.5,4.5
		c1.2-2.8,2.9-4,5.9-3.1c-2-1.8-3.2-3.6-1.4-6.3c-2.4,1.4-4.4,1.4-6.5-1.3C164.4,79.5,164.8,81.9,161.5,82.8z"/>
	
		<linearGradient id="SVGID_00000008851743515981297250000014472830532135552670_" gradientUnits="userSpaceOnUse" x1="261.0957" y1="88.2596" x2="265.9447" y2="94.0385">
		<stop  offset="0" style="stop-color:#FF7BAC"/>
		<stop  offset="1" style="stop-color:#FF7BAC;stop-opacity:0"/>
	</linearGradient>
	<path style="fill:url(#SVGID_00000008851743515981297250000014472830532135552670_);" d="M261.7,87.8c-0.9,1.8-1.7,3.4-2.5,5
		c1.8,0.1,3.6,0.7,3.3,3c1.6-0.9,3.1-1.8,4.8-2.8c-0.7-1-2.6-2.4-0.5-4.7C264.5,89,262.6,89.8,261.7,87.8z"/>
	
		<linearGradient id="SVGID_00000002379159245861008540000002593747409512761756_" gradientUnits="userSpaceOnUse" x1="121.9944" y1="272.5811" x2="126.0384" y2="277.4005">
		<stop  offset="0" style="stop-color:#FF7BAC"/>
		<stop  offset="1" style="stop-color:#FF7BAC;stop-opacity:0"/>
	</linearGradient>
	<path style="fill:url(#SVGID_00000002379159245861008540000002593747409512761756_);" d="M122.2,272.4c-0.4,1-0.9,2.4-1.4,3.7
		c0.8,0.7,1.9,1.6,2.8,2.5c1-0.6,2.3-1.3,3.4-2c-0.2-1.2-0.4-2.7-0.6-3.9C125.1,272.7,123.7,272.5,122.2,272.4z"/>
	
		<linearGradient id="SVGID_00000094591296776221039630000006719490885519556257_" gradientUnits="userSpaceOnUse" x1="63.3707" y1="228.131" x2="65.5258" y2="230.6993">
		<stop  offset="0" style="stop-color:#FF7BAC"/>
		<stop  offset="1" style="stop-color:#FF7BAC;stop-opacity:0"/>
	</linearGradient>
	<path style="fill:url(#SVGID_00000094591296776221039630000006719490885519556257_);" d="M70,225.5c-3.8,2.3-7.6,4.5-11.7,6.9
		C63.2,232.8,67.9,229.9,70,225.5z"/>
	
		<linearGradient id="SVGID_00000078732556638755020710000008004433381286080907_" gradientUnits="userSpaceOnUse" x1="108.0903" y1="189.5739" x2="111.2337" y2="193.32">
		<stop  offset="0" style="stop-color:#FF7BAC"/>
		<stop  offset="1" style="stop-color:#FF7BAC;stop-opacity:0"/>
	</linearGradient>
	<path style="fill:url(#SVGID_00000078732556638755020710000008004433381286080907_);" d="M107.2,192.1c0.7,0.6,1.4,1.3,2.2,2
		c0.7-0.4,1.7-0.9,2.6-1.4c-0.2-1-0.5-2-0.7-3.1c-0.9-0.1-1.9-0.2-3-0.3C108,190.2,107.6,191.1,107.2,192.1z"/>
	
		<linearGradient id="SVGID_00000057829007928472664810000013268421549365756859_" gradientUnits="userSpaceOnUse" x1="258.2297" y1="169.3172" x2="261.2897" y2="172.964">
		<stop  offset="0" style="stop-color:#FF7BAC"/>
		<stop  offset="1" style="stop-color:#FF7BAC;stop-opacity:0"/>
	</linearGradient>
	<path style="fill:url(#SVGID_00000057829007928472664810000013268421549365756859_);" d="M259.4,173.9c0.8-0.5,1.7-1,2.6-1.5
		c-0.2-0.9-0.4-2-0.6-2.9c-1-0.1-2-0.1-3.1-0.2c-0.3,0.7-0.7,1.7-1.1,2.7C257.9,172.5,258.7,173.2,259.4,173.9z"/>
	
		<linearGradient id="SVGID_00000116194307137227437970000004679397472189848475_" gradientUnits="userSpaceOnUse" x1="380.935" y1="169.7116" x2="383.9956" y2="173.3591">
		<stop  offset="0" style="stop-color:#FF7BAC"/>
		<stop  offset="1" style="stop-color:#FF7BAC;stop-opacity:0"/>
	</linearGradient>
	<path style="fill:url(#SVGID_00000116194307137227437970000004679397472189848475_);" d="M384.1,169.8c-1-0.2-2-0.3-2.8-0.4
		c-0.5,1-1,1.9-1.4,2.8c0.8,0.6,1.5,1.3,2.4,2c0.6-0.4,1.5-0.9,2.5-1.5C384.6,171.9,384.4,170.8,384.1,169.8z"/>
	
		<linearGradient id="SVGID_00000049933304165331352160000002020554328837261952_" gradientUnits="userSpaceOnUse" x1="50.8077" y1="307.5784" x2="53.9175" y2="311.2846">
		<stop  offset="0" style="stop-color:#FF7BAC"/>
		<stop  offset="1" style="stop-color:#FF7BAC;stop-opacity:0"/>
	</linearGradient>
	<path style="fill:url(#SVGID_00000049933304165331352160000002020554328837261952_);" d="M54,307.7c-0.8-0.1-1.9-0.2-3-0.3
		c-0.3,0.8-0.7,1.8-1.1,2.8c0.6,0.6,1.4,1.3,2.2,2c0.8-0.4,1.7-1,2.6-1.5C54.5,309.8,54.3,308.7,54,307.7z"/>
	
		<linearGradient id="SVGID_00000158742451109394115300000009556418159611075502_" gradientUnits="userSpaceOnUse" x1="77.3852" y1="220.7766" x2="79.4979" y2="223.2945">
		<stop  offset="0" style="stop-color:#FF7BAC"/>
		<stop  offset="1" style="stop-color:#FF7BAC;stop-opacity:0"/>
	</linearGradient>
	<path style="fill:url(#SVGID_00000158742451109394115300000009556418159611075502_);" d="M75.2,223.3c1.7-0.2,3.5-0.3,5.2-0.8
		c0.5-0.2,0.8-1.3,1.2-2c-0.7-0.1-1.6-0.5-2.2-0.2c-1.5,0.6-2.8,1.6-4.2,2.4C75.1,222.9,75.2,223.1,75.2,223.3z"/>
	
		<linearGradient id="SVGID_00000003092517769181188460000011364276776968955542_" gradientUnits="userSpaceOnUse" x1="46.782" y1="256.2275" x2="49.4859" y2="259.4499">
		<stop  offset="0" style="stop-color:#FF7BAC"/>
		<stop  offset="1" style="stop-color:#FF7BAC;stop-opacity:0"/>
	</linearGradient>
	<path style="fill:url(#SVGID_00000003092517769181188460000011364276776968955542_);" d="M45.3,263c1.8-3.2,3.7-6.6,5.7-10.3
		C47.8,255.8,45.7,259.1,45.3,263z"/>
	
		<linearGradient id="SVGID_00000160876885990528918920000014106574799208628871_" gradientUnits="userSpaceOnUse" x1="50.2764" y1="237.6951" x2="51.5181" y2="239.1748">
		<stop  offset="0" style="stop-color:#FF7BAC"/>
		<stop  offset="1" style="stop-color:#FF7BAC;stop-opacity:0"/>
	</linearGradient>
	<path style="fill:url(#SVGID_00000160876885990528918920000014106574799208628871_);" d="M52.5,236.1c-1.1,1.5-3.5,1.9-4,3.9
		c0.4,0.3,0.7,0.6,1.1,0.9c1.2-1.4,2.4-2.9,3.6-4.3C52.9,236.4,52.7,236.2,52.5,236.1z"/>
	
		<linearGradient id="SVGID_00000138546386330070472940000011802069312205886603_" gradientUnits="userSpaceOnUse" x1="172.8802" y1="265.5896" x2="175.4557" y2="268.659">
		<stop  offset="0" style="stop-color:#FF7BAC"/>
		<stop  offset="1" style="stop-color:#FF7BAC;stop-opacity:0"/>
	</linearGradient>
	<path style="fill:url(#SVGID_00000138546386330070472940000011802069312205886603_);" d="M176.9,267.5c-1.1-1-2-1.7-2.9-2.5
		c-0.2,0.1-0.5,0.2-0.7,0.3c0.1,1.2,0.2,2.4,0.3,3.9C174.8,268.5,175.5,268.2,176.9,267.5z"/>
	
		<linearGradient id="SVGID_00000164483592814161060730000011992134519428637872_" gradientUnits="userSpaceOnUse" x1="102.4921" y1="314.6239" x2="104.2985" y2="316.7766">
		<stop  offset="0" style="stop-color:#FF7BAC"/>
		<stop  offset="1" style="stop-color:#FF7BAC;stop-opacity:0"/>
	</linearGradient>
	<path style="fill:url(#SVGID_00000164483592814161060730000011992134519428637872_);" d="M101.6,316.6c0.8,0.1,1.9,0.6,2.5,0.3
		c0.6-0.3,0.7-1.5,1-2.2c-0.2-0.2-0.4-0.4-0.6-0.6c-1,0.4-2,0.9-3.1,1.3C101.5,315.9,101.6,316.3,101.6,316.6z"/>
</g>
<g>
	
		<linearGradient id="SVGID_00000166651434672241560270000010815991953839615371_" gradientUnits="userSpaceOnUse" x1="131.9043" y1="264.7637" x2="382.4043" y2="264.7637">
		<stop  offset="0" style="stop-color:#FF7BAC"/>
		<stop  offset="1" style="stop-color:#FF7BAC;stop-opacity:0"/>
	</linearGradient>
	
		<path style="fill:none;stroke:url(#SVGID_00000166651434672241560270000010815991953839615371_);stroke-width:10;stroke-miterlimit:10;" d="
		M235.4,296c-14.7-5-28-10.1-40-15.2c-12-5.2-22.3-11.4-31-18.8c-8.7-7.3-15.4-16.1-20.2-26.2c-4.8-10.2-7.2-22.6-7.2-37.2
		c0-28.3,10.9-51,32.8-68c21.8-17,52.4-25.5,91.8-25.5c14.3,0,27.7,1,40,3c12.3,2,22.9,5.1,31.8,9.2c8.8,4.2,15.8,9.5,20.8,16
		s7.5,14.1,7.5,22.8c0,8.7-2,16.1-6,22.2c-4,6.2-8.8,11.4-14.5,15.8c-7.3-4.7-17.2-8.8-29.5-12.2c-12.3-3.5-25.8-5.2-40.5-5.2
		c-15,0-26,2.1-33,6.2c-7,4.2-10.5,9.4-10.5,15.8c0,5,2.2,9.1,6.5,12.2c4.3,3.2,10.8,6.1,19.5,8.8l26.5,8.5
		c31.3,10,55.4,22.8,72.2,38.2c16.8,15.5,25.2,36.6,25.2,63.2c0,28.3-11.2,51.2-33.5,68.8c-22.3,17.5-55.2,26.2-98.5,26.2
		c-15.3,0-29.6-1.2-42.8-3.8c-13.2-2.5-24.7-6.2-34.5-11c-9.8-4.8-17.5-10.8-23-18c-5.5-7.2-8.2-15.4-8.2-24.8
		c0-9.7,2.8-17.9,8.5-24.8c5.7-6.8,11.8-12.1,18.5-15.8c9.3,7.3,20.8,13.7,34.2,19c13.5,5.3,28.2,8,44.2,8c16.3,0,27.8-2.5,34.5-7.5
		c6.7-5,10-10.8,10-17.5c0-6.7-2.7-11.8-8-15.2c-5.3-3.5-12.8-6.9-22.5-10.2L235.4,296z"/>
</g>
</svg>
