<?xml version="1.0" encoding="utf-8"?>
<!-- Generator: Adobe Illustrator 25.4.1, SVG Export Plug-In . SVG Version: 6.00 Build 0)  -->
<svg version="1.1" id="Layer_1" xmlns="http://www.w3.org/2000/svg" xmlns:xlink="http://www.w3.org/1999/xlink" x="0px" y="0px"
	 viewBox="0 0 80.9 104.6" style="enable-background:new 0 0 80.9 104.6;" xml:space="preserve">
<style type="text/css">
	.st0{display:none;}
	.st1{display:inline;fill:url(#SVGID_1_);}
	.st2{display:inline;fill:url(#SVGID_00000042722630115162658460000017055705648163355023_);}
	.st3{display:inline;fill:url(#SVGID_00000011737556403778747130000014775457944247085990_);}
	.st4{display:inline;fill:url(#SVGID_00000153703424656559619150000016605386794734055059_);}
	.st5{display:inline;fill:url(#SVGID_00000005969804126524088840000011814148401612206506_);}
	.st6{display:inline;fill:url(#SVGID_00000105400880455618049560000006950621363672358290_);}
	.st7{display:inline;fill:url(#SVGID_00000039825962509155173090000015864821745161762230_);}
	.st8{display:inline;fill:url(#SVGID_00000128471819870297329750000004235281478996433334_);}
	.st9{display:inline;fill:url(#SVGID_00000134948728500427804390000004278823762582815377_);}
	.st10{display:inline;fill:url(#SVGID_00000000181119027127313350000017575604024954554275_);}
	.st11{fill:url(#SVGID_00000094617715390933638020000012163272378538998944_);}
	.st12{display:none;fill:url(#SVGID_00000162314030663488577390000016646979544170765715_);}
</style>
<g class="st0">
	
		<linearGradient id="SVGID_1_" gradientUnits="userSpaceOnUse" x1="-3.6863" y1="87.955" x2="45.3614" y2="15.2387" gradientTransform="matrix(1 0 0 -1 0 106)">
		<stop  offset="0" style="stop-color:#2360B1"/>
		<stop  offset="0.25" style="stop-color:#256FBF"/>
		<stop  offset="0.5594" style="stop-color:#2360B1"/>
		<stop  offset="0.8" style="stop-color:#A02D6E"/>
		<stop  offset="0.9" style="stop-color:#F3506F"/>
		<stop  offset="1" style="stop-color:#FCB450"/>
	</linearGradient>
	<path class="st1" d="M27.4,79.9l7.5,14c5.9-3.7,11.7-7.5,17.4-11.5l-23.5-4.3C27.3,77.8,26.7,78.6,27.4,79.9z"/>
	
		<linearGradient id="SVGID_00000044876268548192521120000005152221146898915466_" gradientUnits="userSpaceOnUse" x1="-26.2793" y1="72.7157" x2="22.7684" y2="-4.593316e-04" gradientTransform="matrix(1 0 0 -1 0 106)">
		<stop  offset="0" style="stop-color:#2360B1"/>
		<stop  offset="0.25" style="stop-color:#256FBF"/>
		<stop  offset="0.5594" style="stop-color:#2360B1"/>
		<stop  offset="0.8" style="stop-color:#A02D6E"/>
		<stop  offset="0.9" style="stop-color:#F3506F"/>
		<stop  offset="1" style="stop-color:#FCB450"/>
	</linearGradient>
	<path style="display:inline;fill:url(#SVGID_00000044876268548192521120000005152221146898915466_);" d="M19.1,76.3
		c-0.3-0.1-1.4,0.6-2.6,1.5L0.2,89.9c-1.7,12.3,8.6,19.3,22.4,11.2c2.6-1.5,5.2-3,7.8-4.5l-9.5-17.9C20.1,77.4,19.4,76.4,19.1,76.3z
		"/>
	
		<linearGradient id="SVGID_00000096035758727423454090000013670173396145763208_" gradientUnits="userSpaceOnUse" x1="31.1759" y1="111.4698" x2="80.2236" y2="38.7535" gradientTransform="matrix(1 0 0 -1 0 106)">
		<stop  offset="0" style="stop-color:#2360B1"/>
		<stop  offset="0.25" style="stop-color:#256FBF"/>
		<stop  offset="0.5594" style="stop-color:#2360B1"/>
		<stop  offset="0.8" style="stop-color:#A02D6E"/>
		<stop  offset="0.9" style="stop-color:#F3506F"/>
		<stop  offset="1" style="stop-color:#FCB450"/>
	</linearGradient>
	<path style="display:inline;fill:url(#SVGID_00000096035758727423454090000013670173396145763208_);" d="M65.6,41.2L56,48.3
		c-1.2,0.9-1.3,2.4-0.2,3.4L72,67.9c10.1-7.5,11.5-17.7,4.9-26.3l-6.5-1.4C68.9,39.9,66.8,40.4,65.6,41.2z"/>
	
		<linearGradient id="SVGID_00000170278029333932786250000005324021439391439490_" gradientUnits="userSpaceOnUse" x1="6.253" y1="94.6591" x2="55.3008" y2="21.9429" gradientTransform="matrix(1 0 0 -1 0 106)">
		<stop  offset="0" style="stop-color:#2360B1"/>
		<stop  offset="0.25" style="stop-color:#256FBF"/>
		<stop  offset="0.5594" style="stop-color:#2360B1"/>
		<stop  offset="0.8" style="stop-color:#A02D6E"/>
		<stop  offset="0.9" style="stop-color:#F3506F"/>
		<stop  offset="1" style="stop-color:#FCB450"/>
	</linearGradient>
	<path style="display:inline;fill:url(#SVGID_00000170278029333932786250000005324021439391439490_);" d="M51.6,54.9
		c-1-1-2.8-1.1-4-0.3L26.4,70.4c-1.2,0.9-0.9,1.8,0.5,2l31.3,5.8c3.2-2.3,6.4-4.7,9.6-7.2L51.6,54.9z"/>
	
		<linearGradient id="SVGID_00000073682965628447283510000014505150473633452190_" gradientUnits="userSpaceOnUse" x1="24.105" y1="106.7005" x2="73.1528" y2="33.9842" gradientTransform="matrix(1 0 0 -1 0 106)">
		<stop  offset="0" style="stop-color:#2360B1"/>
		<stop  offset="0.25" style="stop-color:#256FBF"/>
		<stop  offset="0.5594" style="stop-color:#2360B1"/>
		<stop  offset="0.8" style="stop-color:#A02D6E"/>
		<stop  offset="0.9" style="stop-color:#F3506F"/>
		<stop  offset="1" style="stop-color:#FCB450"/>
	</linearGradient>
	<path style="display:inline;fill:url(#SVGID_00000073682965628447283510000014505150473633452190_);" d="M58.4,37.6l-18.7-4.1
		c-1.4-0.3-1.7,0.3-0.7,1.3l9.4,9.4c1,1,2.8,1.1,4,0.3l6.5-4.8C60,38.9,59.8,37.9,58.4,37.6z"/>
	
		<linearGradient id="SVGID_00000124160673906358757590000013927418081103707539_" gradientUnits="userSpaceOnUse" x1="4.5744" y1="93.5269" x2="53.6221" y2="20.8106" gradientTransform="matrix(1 0 0 -1 0 106)">
		<stop  offset="0" style="stop-color:#2360B1"/>
		<stop  offset="0.25" style="stop-color:#256FBF"/>
		<stop  offset="0.5594" style="stop-color:#2360B1"/>
		<stop  offset="0.8" style="stop-color:#A02D6E"/>
		<stop  offset="0.9" style="stop-color:#F3506F"/>
		<stop  offset="1" style="stop-color:#FCB450"/>
	</linearGradient>
	<path style="display:inline;fill:url(#SVGID_00000124160673906358757590000013927418081103707539_);" d="M21.5,24.8L1.8,5.1
		c-2.4,4-2.6,10.1,0.6,17l18.4,4C22.2,26.4,22.5,25.9,21.5,24.8z"/>
	
		<linearGradient id="SVGID_00000029749377457801712690000004551399825065265798_" gradientUnits="userSpaceOnUse" x1="-16.5716" y1="79.2637" x2="32.4762" y2="6.5475" gradientTransform="matrix(1 0 0 -1 0 106)">
		<stop  offset="0" style="stop-color:#2360B1"/>
		<stop  offset="0.25" style="stop-color:#256FBF"/>
		<stop  offset="0.5594" style="stop-color:#2360B1"/>
		<stop  offset="0.8" style="stop-color:#A02D6E"/>
		<stop  offset="0.9" style="stop-color:#F3506F"/>
		<stop  offset="1" style="stop-color:#FCB450"/>
	</linearGradient>
	<path style="display:inline;fill:url(#SVGID_00000029749377457801712690000004551399825065265798_);" d="M15.2,68.2L6.6,52
		c0,5.5-0.4,11-1.2,16.4l8.4,1.6C15.3,70.3,15.9,69.5,15.2,68.2z"/>
	
		<linearGradient id="SVGID_00000079448284101255132130000003550456400315341245_" gradientUnits="userSpaceOnUse" x1="24.2329" y1="106.7867" x2="73.2806" y2="34.0705" gradientTransform="matrix(1 0 0 -1 0 106)">
		<stop  offset="0" style="stop-color:#2360B1"/>
		<stop  offset="0.25" style="stop-color:#256FBF"/>
		<stop  offset="0.5594" style="stop-color:#2360B1"/>
		<stop  offset="0.8" style="stop-color:#A02D6E"/>
		<stop  offset="0.9" style="stop-color:#F3506F"/>
		<stop  offset="1" style="stop-color:#FCB450"/>
	</linearGradient>
	<path style="display:inline;fill:url(#SVGID_00000079448284101255132130000003550456400315341245_);" d="M35.4,29.3L61.9,35
		c1.4,0.3,3.5-0.1,4.7-1l0.9-0.7c-14.5-11-28.9-21-45-29.8c-6.9-4.1-12.9-4.3-17-2L31,26.9C32,27.9,34,29,35.4,29.3z"/>
	
		<linearGradient id="SVGID_00000116229983624048450860000008695863328399465887_" gradientUnits="userSpaceOnUse" x1="-24.6693" y1="73.8018" x2="24.3784" y2="1.0855" gradientTransform="matrix(1 0 0 -1 0 106)">
		<stop  offset="0" style="stop-color:#2360B1"/>
		<stop  offset="0.25" style="stop-color:#256FBF"/>
		<stop  offset="0.5594" style="stop-color:#2360B1"/>
		<stop  offset="0.8" style="stop-color:#A02D6E"/>
		<stop  offset="0.9" style="stop-color:#F3506F"/>
		<stop  offset="1" style="stop-color:#FCB450"/>
	</linearGradient>
	<path style="display:inline;fill:url(#SVGID_00000116229983624048450860000008695863328399465887_);" d="M9,74.4l-4.4-0.8
		c-0.5,2.7-1.1,5.3-1.9,7.9l6.7-5C10.6,75.6,10.4,74.7,9,74.4z"/>
	
		<linearGradient id="SVGID_00000048483120902204474710000005719454435963353481_" gradientUnits="userSpaceOnUse" x1="3.0049" y1="92.4682" x2="52.0526" y2="19.752" gradientTransform="matrix(1 0 0 -1 0 106)">
		<stop  offset="0" style="stop-color:#2360B1"/>
		<stop  offset="0.25" style="stop-color:#256FBF"/>
		<stop  offset="0.5594" style="stop-color:#2360B1"/>
		<stop  offset="0.8" style="stop-color:#A02D6E"/>
		<stop  offset="0.9" style="stop-color:#F3506F"/>
		<stop  offset="1" style="stop-color:#FCB450"/>
	</linearGradient>
	<path style="display:inline;fill:url(#SVGID_00000048483120902204474710000005719454435963353481_);" d="M19.8,65.6
		c0.7,1.3,2.2,1.6,3.3,0.7l20.8-15.5c1.2-0.9,1.3-2.4,0.2-3.4L29.5,32.8c-1-1-3-2.1-4.4-2.4L3.4,25.7c1.1,4.5,1.9,9.1,2.5,13.8
		L19.8,65.6z"/>
</g>
<g>
	
		<linearGradient id="SVGID_00000174599166609065448390000010268438340123217574_" gradientUnits="userSpaceOnUse" x1="80.1991" y1="3.7218" x2="0.8584" y2="85.8814">
		<stop  offset="0" style="stop-color:#C8E3FA"/>
		<stop  offset="1" style="stop-color:#E62490"/>
	</linearGradient>
	<path style="fill:url(#SVGID_00000174599166609065448390000010268438340123217574_);" d="M80.8,5.5c0,26.2,0,52.3,0,78.5
		c0,0-0.1,0.1-0.1,0.1c-1,3-2.7,4.2-5.9,4.2c-5.4,0-10.9,0-16.3,0c-0.3,0-0.7,0-1,0c-4,0.7-7.9,1.7-11.6,3.4
		c-5.3,2.4-10,5.6-13.5,10.4c-0.2,0.2-0.3,0.4-0.6,0.8c0-5,0-9.8,0-14.7c-0.4,0-0.7,0-1,0c-8.2,0-16.3,0-24.5,0
		c-3.8,0-5.9-2.1-5.9-5.9c0-18.5,0-37,0-55.6c0-6.7,0-13.4,0-20.2c0-2.7,1.5-4.7,4.1-5.4c0.1,0,0.3-0.1,0.4-0.2
		c23.8,0,47.6,0,71.5,0c1.3,0.4,2.6,0.9,3.4,2.1C80.1,4,80.4,4.8,80.8,5.5z M75.4,6.6c-23.3,0-46.5,0-69.7,0c0,25.5,0,51,0,76.5
		c10.6,0,21.1,0,31.8,0c0,2.2,0,4.3,0,6.3c2-1.1,3.8-2.2,5.8-3.2c2-0.9,4.1-1.6,6.2-2.4c1.6-0.6,3.2-0.8,5-0.8
		c6.7,0.1,13.4,0,20.1,0c0.3,0,0.6,0,0.9,0C75.4,57.5,75.4,32.1,75.4,6.6z"/>
	
		<linearGradient id="SVGID_00000156579809231086424950000014743266481953987757_" gradientUnits="userSpaceOnUse" x1="0.1338" y1="52.3" x2="80.7662" y2="52.3">
		<stop  offset="0" style="stop-color:#000000"/>
		<stop  offset="1" style="stop-color:#FFFFFF"/>
	</linearGradient>
	<path style="display:none;fill:url(#SVGID_00000156579809231086424950000014743266481953987757_);" d="M4.8,1.2
		C4.7,1.3,4.5,1.3,4.4,1.4C1.8,2.1,0.3,4,0.3,6.7c0,6.7,0,13.4,0,20.2c0,18.5,0,37,0,55.6c0,3.8,2.2,5.9,5.9,5.9
		c8.2,0,16.3,0,24.5,0c0.3,0,0.7,0,1,0c0,4.9,0,9.7,0,14.7c0.3-0.4,0.4-0.6,0.6-0.8c3.4-4.8,8.1-8,13.5-10.4
		c3.7-1.7,7.6-2.7,11.6-3.4c0.3-0.1,0.7,0,1,0c5.4,0,10.9,0,16.3,0c3.2,0,4.9-1.2,5.9-4.2c0,0,0.1-0.1,0.1-0.1c0,6.4,0,12.9,0,19.3
		c-26.9,0-53.8,0-80.6,0c0-34.1,0-68.1,0-102.2C1.7,1.2,3.2,1.2,4.8,1.2z"/>
</g>
</svg>
