<?xml version="1.0" encoding="utf-8"?>
<!-- Generator: Adobe Illustrator 25.4.1, SVG Export Plug-In . SVG Version: 6.00 Build 0)  -->
<svg version="1.1" id="Layer_1" xmlns="http://www.w3.org/2000/svg" xmlns:xlink="http://www.w3.org/1999/xlink" x="0px" y="0px"
	 viewBox="0 0 327.9 104.6" style="enable-background:new 0 0 327.9 104.6;" xml:space="preserve">
<style type="text/css">
	.st0{display:none;fill:url(#SVGID_1_);}
	.st1{display:none;fill:url(#SVGID_00000081615171552722691330000012041050164975623090_);}
	.st2{display:none;fill:url(#SVGID_00000058559815106491021690000013292427691704996524_);}
	.st3{display:none;fill:url(#SVGID_00000145743531297578685630000012851065430722655621_);}
	.st4{display:none;fill:url(#SVGID_00000067924460428180654170000009726535747975408517_);}
	.st5{display:none;fill:url(#SVGID_00000085239799267063806650000003793895201717604247_);}
	.st6{display:none;fill:url(#SVGID_00000004513547099086145880000002708807395604488639_);}
	.st7{display:none;fill:url(#SVGID_00000089534344858803641210000005876616650349328822_);}
	.st8{display:none;fill:url(#SVGID_00000159429907146196315860000004365378451961005467_);}
	.st9{display:none;fill:url(#SVGID_00000033353879143862934480000001544301140947360921_);}
	.st10{display:none;}
	.st11{display:inline;fill:#0F0F0F;}
	.st12{fill:#FFFFFF;}
	.st13{font-family:'Impact';}
	.st14{font-size:61px;}
	.st15{font-size:38px;}
	.st16{fill:url(#SVGID_00000016772428200741296520000009663817667785647805_);}
	.st17{display:none;fill:url(#SVGID_00000004523312671872990210000014160672680989113514_);}
</style>
<g>
	
		<linearGradient id="SVGID_1_" gradientUnits="userSpaceOnUse" x1="-3.6949" y1="87.9676" x2="45.3528" y2="15.2514" gradientTransform="matrix(1 0 0 -1 0 106)">
		<stop  offset="0" style="stop-color:#2360B1"/>
		<stop  offset="0.25" style="stop-color:#256FBF"/>
		<stop  offset="0.5594" style="stop-color:#2360B1"/>
		<stop  offset="0.8" style="stop-color:#A02D6E"/>
		<stop  offset="0.9" style="stop-color:#F3506F"/>
		<stop  offset="1" style="stop-color:#FCB450"/>
	</linearGradient>
	<path class="st0" d="M27.4,79.9l7.5,14c5.9-3.7,11.7-7.5,17.4-11.5l-23.5-4.3C27.3,77.8,26.7,78.6,27.4,79.9z"/>
	
		<linearGradient id="SVGID_00000135665522121911127080000004793112806913441695_" gradientUnits="userSpaceOnUse" x1="-26.2821" y1="72.7324" x2="22.7657" y2="1.614808e-02" gradientTransform="matrix(1 0 0 -1 0 106)">
		<stop  offset="0" style="stop-color:#2360B1"/>
		<stop  offset="0.25" style="stop-color:#256FBF"/>
		<stop  offset="0.5594" style="stop-color:#2360B1"/>
		<stop  offset="0.8" style="stop-color:#A02D6E"/>
		<stop  offset="0.9" style="stop-color:#F3506F"/>
		<stop  offset="1" style="stop-color:#FCB450"/>
	</linearGradient>
	<path style="display:none;fill:url(#SVGID_00000135665522121911127080000004793112806913441695_);" d="M19.1,76.3
		c-0.3-0.1-1.4,0.6-2.6,1.5L0.2,89.9c-1.7,12.3,8.6,19.3,22.4,11.2c2.6-1.5,5.2-3,7.8-4.5l-9.5-17.9C20.1,77.4,19.4,76.3,19.1,76.3z
		"/>
	
		<linearGradient id="SVGID_00000009560635579315153490000017983557913130887578_" gradientUnits="userSpaceOnUse" x1="31.1673" y1="111.4825" x2="80.2151" y2="38.7662" gradientTransform="matrix(1 0 0 -1 0 106)">
		<stop  offset="0" style="stop-color:#2360B1"/>
		<stop  offset="0.25" style="stop-color:#256FBF"/>
		<stop  offset="0.5594" style="stop-color:#2360B1"/>
		<stop  offset="0.8" style="stop-color:#A02D6E"/>
		<stop  offset="0.9" style="stop-color:#F3506F"/>
		<stop  offset="1" style="stop-color:#FCB450"/>
	</linearGradient>
	<path style="display:none;fill:url(#SVGID_00000009560635579315153490000017983557913130887578_);" d="M65.6,41.2L56,48.3
		c-1.2,0.9-1.3,2.4-0.2,3.4L72,67.9c10.1-7.5,11.5-17.7,4.9-26.3l-6.5-1.4C68.9,39.9,66.8,40.3,65.6,41.2z"/>
	
		<linearGradient id="SVGID_00000083783777874127184860000011785952627949005753_" gradientUnits="userSpaceOnUse" x1="6.2445" y1="94.6719" x2="55.2922" y2="21.9557" gradientTransform="matrix(1 0 0 -1 0 106)">
		<stop  offset="0" style="stop-color:#2360B1"/>
		<stop  offset="0.25" style="stop-color:#256FBF"/>
		<stop  offset="0.5594" style="stop-color:#2360B1"/>
		<stop  offset="0.8" style="stop-color:#A02D6E"/>
		<stop  offset="0.9" style="stop-color:#F3506F"/>
		<stop  offset="1" style="stop-color:#FCB450"/>
	</linearGradient>
	<path style="display:none;fill:url(#SVGID_00000083783777874127184860000011785952627949005753_);" d="M51.6,54.9
		c-1-1-2.8-1.1-4-0.3L26.4,70.4c-1.2,0.9-0.9,1.8,0.5,2l31.3,5.8c3.2-2.3,6.4-4.7,9.6-7.2L51.6,54.9z"/>
	
		<linearGradient id="SVGID_00000039113280546327716810000002615039232177492904_" gradientUnits="userSpaceOnUse" x1="24.0964" y1="106.7132" x2="73.1441" y2="33.997" gradientTransform="matrix(1 0 0 -1 0 106)">
		<stop  offset="0" style="stop-color:#2360B1"/>
		<stop  offset="0.25" style="stop-color:#256FBF"/>
		<stop  offset="0.5594" style="stop-color:#2360B1"/>
		<stop  offset="0.8" style="stop-color:#A02D6E"/>
		<stop  offset="0.9" style="stop-color:#F3506F"/>
		<stop  offset="1" style="stop-color:#FCB450"/>
	</linearGradient>
	<path style="display:none;fill:url(#SVGID_00000039113280546327716810000002615039232177492904_);" d="M58.4,37.6l-18.7-4.1
		c-1.4-0.3-1.7,0.3-0.7,1.3l9.4,9.4c1,1,2.8,1.1,4,0.3l6.5-4.8C60,38.9,59.8,37.9,58.4,37.6z"/>
	
		<linearGradient id="SVGID_00000001638057113020801280000013051273732245938061_" gradientUnits="userSpaceOnUse" x1="4.5736" y1="93.5448" x2="53.6213" y2="20.8285" gradientTransform="matrix(1 0 0 -1 0 106)">
		<stop  offset="0" style="stop-color:#2360B1"/>
		<stop  offset="0.25" style="stop-color:#256FBF"/>
		<stop  offset="0.5594" style="stop-color:#2360B1"/>
		<stop  offset="0.8" style="stop-color:#A02D6E"/>
		<stop  offset="0.9" style="stop-color:#F3506F"/>
		<stop  offset="1" style="stop-color:#FCB450"/>
	</linearGradient>
	<path style="display:none;fill:url(#SVGID_00000001638057113020801280000013051273732245938061_);" d="M21.5,24.8L1.8,5.1
		c-2.4,4-2.6,10.1,0.6,17l18.4,4C22.2,26.4,22.5,25.8,21.5,24.8z"/>
	
		<linearGradient id="SVGID_00000181054495916081610390000012148013473268438439_" gradientUnits="userSpaceOnUse" x1="-16.5802" y1="79.2765" x2="32.4675" y2="6.5602" gradientTransform="matrix(1 0 0 -1 0 106)">
		<stop  offset="0" style="stop-color:#2360B1"/>
		<stop  offset="0.25" style="stop-color:#256FBF"/>
		<stop  offset="0.5594" style="stop-color:#2360B1"/>
		<stop  offset="0.8" style="stop-color:#A02D6E"/>
		<stop  offset="0.9" style="stop-color:#F3506F"/>
		<stop  offset="1" style="stop-color:#FCB450"/>
	</linearGradient>
	<path style="display:none;fill:url(#SVGID_00000181054495916081610390000012148013473268438439_);" d="M15.2,68.2L6.6,52
		c0,5.5-0.4,11-1.2,16.4l8.4,1.6C15.3,70.3,15.9,69.4,15.2,68.2z"/>
	
		<linearGradient id="SVGID_00000042711012498425918310000005769844116739555221_" gradientUnits="userSpaceOnUse" x1="24.2243" y1="106.7994" x2="73.272" y2="34.0832" gradientTransform="matrix(1 0 0 -1 0 106)">
		<stop  offset="0" style="stop-color:#2360B1"/>
		<stop  offset="0.25" style="stop-color:#256FBF"/>
		<stop  offset="0.5594" style="stop-color:#2360B1"/>
		<stop  offset="0.8" style="stop-color:#A02D6E"/>
		<stop  offset="0.9" style="stop-color:#F3506F"/>
		<stop  offset="1" style="stop-color:#FCB450"/>
	</linearGradient>
	<path style="display:none;fill:url(#SVGID_00000042711012498425918310000005769844116739555221_);" d="M35.4,29.3L61.9,35
		c1.4,0.3,3.5-0.1,4.7-1l0.9-0.7c-14.5-11-28.9-21-45-29.8c-6.9-4.1-12.9-4.3-17-2L31,26.9C32,27.9,34,29,35.4,29.3z"/>
	
		<linearGradient id="SVGID_00000031205609096558231740000003044181678860814268_" gradientUnits="userSpaceOnUse" x1="-24.6778" y1="73.8145" x2="24.3699" y2="1.0982" gradientTransform="matrix(1 0 0 -1 0 106)">
		<stop  offset="0" style="stop-color:#2360B1"/>
		<stop  offset="0.25" style="stop-color:#256FBF"/>
		<stop  offset="0.5594" style="stop-color:#2360B1"/>
		<stop  offset="0.8" style="stop-color:#A02D6E"/>
		<stop  offset="0.9" style="stop-color:#F3506F"/>
		<stop  offset="1" style="stop-color:#FCB450"/>
	</linearGradient>
	<path style="display:none;fill:url(#SVGID_00000031205609096558231740000003044181678860814268_);" d="M9,74.4l-4.4-0.8
		c-0.5,2.7-1.1,5.3-1.9,7.9l6.7-5C10.6,75.6,10.4,74.7,9,74.4z"/>
	
		<linearGradient id="SVGID_00000149351422730186985750000001312389141105438081_" gradientUnits="userSpaceOnUse" x1="2.9963" y1="92.481" x2="52.044" y2="19.7647" gradientTransform="matrix(1 0 0 -1 0 106)">
		<stop  offset="0" style="stop-color:#2360B1"/>
		<stop  offset="0.25" style="stop-color:#256FBF"/>
		<stop  offset="0.5594" style="stop-color:#2360B1"/>
		<stop  offset="0.8" style="stop-color:#A02D6E"/>
		<stop  offset="0.9" style="stop-color:#F3506F"/>
		<stop  offset="1" style="stop-color:#FCB450"/>
	</linearGradient>
	<path style="display:none;fill:url(#SVGID_00000149351422730186985750000001312389141105438081_);" d="M19.8,65.6
		c0.7,1.3,2.2,1.6,3.3,0.7l20.8-15.5c1.2-0.9,1.3-2.4,0.2-3.4L29.5,32.8c-1-1-3-2.1-4.4-2.4L3.4,25.7c1.1,4.5,1.9,9.1,2.5,13.8
		L19.8,65.6z"/>
</g>
<image style="display:none;overflow:visible;" width="483" height="612" id="Прямоугольник_3_xA0_Изображение_00000114075375840683276290000003348669745912776377_" xlink:href="C6CED609EDDCAD6B.png"  transform="matrix(0.1714 0 0 0.1714 -0.1057 -0.3077)">
</image>
<g class="st10">
	<path class="st11" d="M166.1,51.5c0,14.4-10.7,24.5-26.2,24.5h-20.4V27h20.8C155.5,27,166.1,37,166.1,51.5z M154.8,51.5
		c0-9-6.3-15.3-14.7-15.3h-9.5v30.4h10C148.8,66.7,154.8,60.5,154.8,51.5z"/>
	<path class="st11" d="M223.4,51.5c0,14.1-11.3,25-26.3,25s-26.3-10.8-26.3-25c0-14.3,11.3-24.9,26.3-24.9S223.4,37.3,223.4,51.5z
		 M182.1,51.5c0,8.6,6.9,15.3,15.1,15.3c8.2,0,14.8-6.7,14.8-15.3s-6.7-15.2-14.8-15.2C188.9,36.3,182.1,42.9,182.1,51.5z"/>
	<path class="st11" d="M260.8,76L253,62h-1h-10.2v14h-11.1V27H252c12.8,0,20.1,6.2,20.1,17c0,7.6-3.2,13-9.2,15.8L273.3,76H260.8z
		 M241.7,52.7h10.2c6.1,0,9.6-2.8,9.6-8.4c0-5.5-3.5-8.2-9.6-8.2h-10.2V52.7z"/>
	<path class="st11" d="M318.6,27v9.2h-26.3v10.6H316V56h-23.6v10.9h27V76h-38.1V27H318.6z"/>
</g>
<g>
	<text transform="matrix(1 0 0 1 115.9929 60.1948)" class="st12 st13 st14">МОСЭКО</text>
	<text transform="matrix(1 0 0 1 117.4275 92.805)" class="st12 st13 st15">МОНИТОРИНГ</text>
</g>
<g>
	
		<linearGradient id="SVGID_00000177473081733794568720000017837921168966004103_" gradientUnits="userSpaceOnUse" x1="82.9713" y1="2.5653" x2="1.7419" y2="86.6808">
		<stop  offset="0" style="stop-color:#C8E3FA"/>
		<stop  offset="1" style="stop-color:#E62490"/>
	</linearGradient>
	<path style="fill:url(#SVGID_00000177473081733794568720000017837921168966004103_);" d="M83.6,4.4c0,26.8,0,53.6,0,80.4
		c0,0-0.1,0.1-0.1,0.1c-1,3.1-2.7,4.3-6,4.3c-5.6,0-11.1,0-16.7,0c-0.3,0-0.7,0-1,0c-4.1,0.7-8.1,1.8-11.9,3.5
		c-5.5,2.4-10.3,5.7-13.8,10.7c-0.2,0.2-0.3,0.4-0.6,0.8c0-5.1,0-10,0-15c-0.4,0-0.7,0-1.1,0c-8.4,0-16.7,0-25.1,0
		c-3.9,0-6.1-2.2-6.1-6.1c0-19,0-37.9,0-56.9c0-6.9,0-13.8,0-20.6c0-2.7,1.6-4.8,4.2-5.5c0.1,0,0.3-0.1,0.4-0.2
		c24.4,0,48.8,0,73.2,0c1.3,0.4,2.6,0.9,3.4,2.1C82.9,2.8,83.2,3.7,83.6,4.4z M78.1,5.5c-23.8,0-47.6,0-71.4,0c0,26.1,0,52.2,0,78.3
		c10.9,0,21.6,0,32.5,0c0,2.2,0,4.4,0,6.5c2-1.1,3.9-2.3,5.9-3.2c2-1,4.2-1.7,6.3-2.5c1.6-0.6,3.3-0.8,5.1-0.8
		c6.8,0.1,13.7,0,20.5,0c0.3,0,0.6,0,0.9,0C78.1,57.6,78.1,31.6,78.1,5.5z"/>
	
		<linearGradient id="SVGID_00000127734067409662394300000014804164163615774392_" gradientUnits="userSpaceOnUse" x1="1" y1="52.3" x2="83.552" y2="52.3">
		<stop  offset="0" style="stop-color:#000000"/>
		<stop  offset="1" style="stop-color:#FFFFFF"/>
	</linearGradient>
	<path style="display:none;fill:url(#SVGID_00000127734067409662394300000014804164163615774392_);" d="M5.8,0
		C5.6,0.1,5.5,0.1,5.4,0.2C2.8,0.9,1.2,2.9,1.2,5.6c0,6.9,0,13.8,0,20.6c0,19,0,37.9,0,56.9c0,3.9,2.2,6.1,6.1,6.1
		c8.4,0,16.7,0,25.1,0c0.3,0,0.7,0,1.1,0c0,5,0,9.9,0,15c0.3-0.4,0.5-0.6,0.6-0.8c3.5-4.9,8.3-8.2,13.8-10.7
		c3.8-1.7,7.8-2.8,11.9-3.5c0.3-0.1,0.7,0,1,0c5.6,0,11.1,0,16.7,0c3.3,0,5-1.2,6-4.3c0,0,0.1-0.1,0.1-0.1c0,6.6,0,13.2,0,19.8
		c-27.5,0-55,0-82.6,0C1,69.7,1,34.9,1,0C2.6,0,4.2,0,5.8,0z"/>
</g>
</svg>
